<svg xmlns="http://www.w3.org/2000/svg" xmlns:xlink="http://www.w3.org/1999/xlink" width="78" height="78" viewBox="0 0 78 78"><defs><style>.a{fill:#c7eefd;}.b{fill:#98e5fb;}.c{fill:#0592fb;}.d{fill:#0181fb;}.e{fill:#c76d36;}.f{fill:#ab5e2e;}.g{fill:#fdd1a3;}.h{fill:#ffbb85;}.i{fill:#5a5a5a;}.j{fill:#9b9b9b;}.k{fill:#828282;}.l{filter:url(#a);}</style><filter id="a" x="0" y="0" width="78" height="78" filterUnits="userSpaceOnUse"><feOffset dy="3" input="SourceAlpha"/><feGaussianBlur stdDeviation="3" result="b"/><feFlood flood-opacity="0.161"/><feComposite operator="in" in2="b"/><feComposite in="SourceGraphic"/></filter></defs><g transform="translate(9 3.198)"><path class="a" d="M24.821,332.716l-2.242,1.55a1.061,1.061,0,0,1-1.1.064,1.084,1.084,0,0,1-.571-.958v-3.2H13.487A5.988,5.988,0,0,0,7.5,336.148V344a.646.646,0,0,0,.642.649H24.273l2.861-9.6Z" transform="translate(-6.621 -288.582)"/><path class="a" d="M217.694,339.757l-.06-.237-2.678-.579a.787.787,0,0,1-.617-.771V336.32a.786.786,0,0,1,.617-.771l2.678-.58.06-.237a10.169,10.169,0,0,1,1.1-2.682l.124-.21-1.068-1.668h-6.105v3.2a1.085,1.085,0,0,1-.571.958,1.061,1.061,0,0,1-1.1-.064l-2.242-1.55-2.313,2.339,2.862,9.6h9.26l1.282-2-.124-.21A10.174,10.174,0,0,1,217.694,339.757Z" transform="translate(-181.43 -288.582)"/><path class="b" d="M12.415,344v-7.854a5.988,5.988,0,0,1,5.987-5.976H13.487A5.988,5.988,0,0,0,7.5,336.148V344a.646.646,0,0,0,.642.649h4.915A.646.646,0,0,1,12.415,344Z" transform="translate(-6.621 -288.582)"/><path class="c" d="M157.061,371.383l-.956.967a1.166,1.166,0,0,1-1.657,0l-.956-.967-2.861,9.6h9.293Z" transform="translate(-132.977 -324.91)"/><path class="d" d="M156.1,372.35a1.166,1.166,0,0,1-1.657,0l-.956-.967-2.861,9.6h3.641L157.1,371.5l-.035-.118Z" transform="translate(-132.977 -324.91)"/><path class="c" d="M159.4,327.737l-4.1,2.832,3.27,3.306a1.166,1.166,0,0,0,1.657,0l3.27-3.306Z" transform="translate(-137.106 -286.435)"/><path class="d" d="M158.325,334.04l-3.018,2.086,3.27,3.306a1.166,1.166,0,0,0,1.657,0l.992-1-2.8-2.831A1.2,1.2,0,0,1,158.325,334.04Z" transform="translate(-137.107 -291.991)"/><path class="a" d="M131.471,311.457h-3.152a11.9,11.9,0,0,1-6.44-1.881v5.64a1.085,1.085,0,0,0,.571.958,1.061,1.061,0,0,0,1.1-.064l6.341-4.382,6.341,4.382a1.061,1.061,0,0,0,1.1.064,1.085,1.085,0,0,0,.571-.958v-5.64A11.9,11.9,0,0,1,131.471,311.457Z" transform="translate(-107.596 -270.426)"/><path class="e" d="M88.393,10.3c-7.47,0-13.525,2.775-13.525,10.211v7.238c.015-7.417,6.064-10.185,13.525-10.185s13.525,2.775,13.525,10.211v.674c0-.006,0-.012,0-.018V20.513c0-7.437-6.055-10.211-13.524-10.211Z" transform="translate(-66.094 -6.611)"/><path class="f" d="M78.525,20.1c.2-6.522,5.223-9.311,11.694-9.735q-.9-.059-1.824-.059c-7.47,0-13.525,2.775-13.525,10.211v7.238A8.886,8.886,0,0,1,78.525,20.1Z" transform="translate(-66.095 -6.611)"/><g transform="translate(4.445 10.956)"><path class="g" d="M42.256,178.958v-6.142H40.413a2.472,2.472,0,0,0-2.486,2.459v2.976a2.472,2.472,0,0,0,2.486,2.459h1.971A12.027,12.027,0,0,1,42.256,178.958Z" transform="translate(-37.927 -160.826)"/><path class="g" d="M306.569,172.815h-1.844v6.142a12.023,12.023,0,0,1-.128,1.752h1.972a2.472,2.472,0,0,0,2.486-2.459v-2.976A2.472,2.472,0,0,0,306.569,172.815Z" transform="translate(-273.347 -160.825)"/><path class="g" d="M88.39,71.617c-7.47,0-13.525,2.775-13.525,10.211v7.921a11.947,11.947,0,0,0,11.949,11.943h3.152a11.946,11.946,0,0,0,11.949-11.943V81.828C101.915,74.392,95.86,71.617,88.39,71.617Z" transform="translate(-70.536 -71.617)"/></g><path class="h" d="M78.515,89.749V81.828c0-6.821,5.094-9.719,11.7-10.153q-.9-.059-1.824-.059c-7.47,0-13.525,2.775-13.525,10.211v7.921a11.947,11.947,0,0,0,11.949,11.943h3.152c.083,0,.166,0,.248,0A11.947,11.947,0,0,1,78.515,89.749Z" transform="translate(-66.093 -60.661)"/><path class="i" d="M343.9,334.622a6.545,6.545,0,1,0,6.473,6.545A6.517,6.517,0,0,0,343.9,334.622Z" transform="translate(-297.881 -292.504)"/><ellipse class="j" cx="3.588" cy="3.627" rx="3.588" ry="3.627" transform="translate(42.427 45.035)"/><path class="k" d="M364.712,362.874a3.628,3.628,0,0,1,2.256-3.368,3.542,3.542,0,0,0-1.331-.259,3.628,3.628,0,0,0,0,7.255,3.541,3.541,0,0,0,1.331-.259A3.627,3.627,0,0,1,364.712,362.874Z" transform="translate(-319.621 -314.212)"/><path class="j" d="M293.016,304.526a.782.782,0,0,1-.763-.624l-.573-2.708-.235-.06a9.934,9.934,0,0,1-2.652-1.112l-.208-.125-2.3,1.506a.773.773,0,0,1-.975-.1l-1.293-1.307a.8.8,0,0,1-.1-.986l1.489-2.326-.124-.21a10.171,10.171,0,0,1-1.1-2.682l-.06-.237-2.678-.579a.787.787,0,0,1-.617-.771v-1.849a.786.786,0,0,1,.617-.771l2.678-.58.06-.237a10.167,10.167,0,0,1,1.1-2.682l.124-.21-1.489-2.326a.8.8,0,0,1,.1-.986l1.293-1.307a.773.773,0,0,1,.975-.1l2.3,1.506.208-.125a9.938,9.938,0,0,1,2.653-1.112l.235-.06.573-2.708a.782.782,0,0,1,.763-.624h1.829a.782.782,0,0,1,.763.624l.573,2.708.235.06a9.942,9.942,0,0,1,2.652,1.112l.208.125,2.3-1.506a.773.773,0,0,1,.975.1l1.293,1.307a.8.8,0,0,1,.1.986l-1.489,2.326.124.21a10.18,10.18,0,0,1,1.1,2.682l.06.237,2.678.58a.787.787,0,0,1,.617.771V292.2a.787.787,0,0,1-.617.771l-2.678.579-.06.237a10.178,10.178,0,0,1-1.1,2.682l-.124.21,1.489,2.326a.8.8,0,0,1-.1.986l-1.293,1.308a.773.773,0,0,1-.975.1l-2.3-1.506-.208.125a9.939,9.939,0,0,1-2.652,1.112l-.235.06-.573,2.708a.782.782,0,0,1-.763.624h-1.829Zm.914-19.8a6.545,6.545,0,1,0,6.473,6.545A6.517,6.517,0,0,0,293.93,284.73Z" transform="translate(-247.915 -242.612)"/><path d="M174.579,170.105h1.634a.889.889,0,0,0,0-1.777H174.7v-3.01a.879.879,0,1,0-1.758,0v3.139A1.647,1.647,0,0,0,174.579,170.105Z" transform="translate(-152.672 -142.477)"/><path d="M121.834,155.635a.884.884,0,0,0-.879.889v2.749a.879.879,0,1,0,1.758,0v-2.749A.884.884,0,0,0,121.834,155.635Z" transform="translate(-106.781 -134.725)"/><path d="M245.484,160.161a.884.884,0,0,0,.879-.889v-2.749a.879.879,0,1,0-1.758,0v2.749A.884.884,0,0,0,245.484,160.161Z" transform="translate(-215.94 -134.725)"/><path d="M154.756,228.04a.879.879,0,1,0-1.758,0,3.68,3.68,0,1,1-7.359,0,.879.879,0,1,0-1.758,0,5.438,5.438,0,1,0,10.875,0Z" transform="translate(-127.02 -197.767)"/><path d="M359.015,351.747a4.516,4.516,0,1,0,4.466,4.516A4.5,4.5,0,0,0,359.015,351.747Zm0,7.255a2.739,2.739,0,1,1,2.709-2.739A2.727,2.727,0,0,1,359.015,359Z" transform="translate(-312.999 -307.6)"/><path d="M343.759,335.372a.878.878,0,0,0-1.075.632,5.654,5.654,0,1,1-.188-3.48.876.876,0,0,0,1.137.508.892.892,0,0,0,.5-1.149,7.437,7.437,0,1,0,.248,4.576A.89.89,0,0,0,343.759,335.372Z" transform="translate(-291.26 -285.893)"/><g class="l" transform="matrix(1, 0, 0, 1, -9, -3.2)"><path d="M58.688,46.1l-2.149-.465a11.066,11.066,0,0,0-.964-2.351l1.2-1.867a1.7,1.7,0,0,0-.22-2.1l-1.293-1.307a1.645,1.645,0,0,0-2.075-.222L51.337,39a10.806,10.806,0,0,0-2.325-.975l-.46-2.173a1.672,1.672,0,0,0-1.622-1.326H45.1a1.672,1.672,0,0,0-1.622,1.326l-.46,2.173A10.805,10.805,0,0,0,40.693,39l-1.846-1.208a1.645,1.645,0,0,0-2.075.222L35.48,39.318a1.694,1.694,0,0,0-.471,1.384H31.193V39.62a12.862,12.862,0,0,0,5.235-7.892h1.238a3.36,3.36,0,0,0,3.364-3.347V25.405a3.36,3.36,0,0,0-3.364-3.347H36.7V13.9a9.718,9.718,0,0,0-4.358-8.638C29.881,3.631,26.5,2.8,22.3,2.8s-7.582.829-10.046,2.462A9.718,9.718,0,0,0,7.895,13.9v8.155H6.93A3.36,3.36,0,0,0,3.566,25.4v2.976A3.36,3.36,0,0,0,6.93,31.728H8.168A12.863,12.863,0,0,0,13.4,39.62V40.7H6.866A6.873,6.873,0,0,0,0,47.567v7.854a1.531,1.531,0,0,0,1.521,1.538H6.68a.889.889,0,0,0,0-1.777H1.758V47.567a5.1,5.1,0,0,1,5.108-5.087H13.4V44.79a1.97,1.97,0,0,0,1.04,1.744,1.932,1.932,0,0,0,2.01-.116l1.64-1.134,1.426,1.442L17,55.181H10.9a.889.889,0,0,0,0,1.777H35a1.683,1.683,0,0,0,.477,1.049l1.293,1.307a1.638,1.638,0,0,0,1.173.492h0a1.641,1.641,0,0,0,.9-.269l1.846-1.208a10.806,10.806,0,0,0,2.325.975l.46,2.172A1.671,1.671,0,0,0,45.1,62.8h1.829a1.672,1.672,0,0,0,1.622-1.326l.46-2.173a10.814,10.814,0,0,0,2.325-.975l1.845,1.208a1.645,1.645,0,0,0,2.075-.222l1.293-1.307a1.7,1.7,0,0,0,.22-2.1l-1.2-1.866a11.066,11.066,0,0,0,.964-2.351l2.149-.465A1.682,1.682,0,0,0,60,49.587V47.738a1.682,1.682,0,0,0-1.312-1.64ZM36.7,29.088V23.835h.965a1.59,1.59,0,0,1,1.607,1.57v2.976a1.59,1.59,0,0,1-1.607,1.57h-.994C36.691,29.666,36.7,29.378,36.7,29.088ZM6.93,29.951a1.591,1.591,0,0,1-1.607-1.57V25.4a1.59,1.59,0,0,1,1.607-1.57h.964v5.253c0,.29.011.578.03.863ZM9.652,13.9a8.032,8.032,0,0,1,3.565-7.151C15.359,5.33,18.5,4.579,22.3,4.579s6.94.751,9.081,2.171A8.032,8.032,0,0,1,34.944,13.9v1.128a9.628,9.628,0,0,0-2.6-2.5C29.88,10.9,26.5,10.067,22.3,10.067s-7.582.829-10.046,2.463a9.626,9.626,0,0,0-2.6,2.5Zm0,15.186V21.167a8.032,8.032,0,0,1,3.565-7.151C15.359,12.6,18.5,11.844,22.3,11.844s6.94.751,9.081,2.171a8.032,8.032,0,0,1,3.564,7.151v7.921a11.075,11.075,0,0,1-11.07,11.055H20.723A11.075,11.075,0,0,1,9.652,29.088Zm15.058,12.8a12.731,12.731,0,0,0,4.725-1.242v4.14a.194.194,0,0,1-.1.171.19.19,0,0,1-.2-.011Zm.316,2.371-2.52,2.548a.294.294,0,0,1-.414,0l-2.521-2.548L22.3,42.378Zm-9.564.687a.191.191,0,0,1-.2.011.194.194,0,0,1-.1-.172V40.651a12.732,12.732,0,0,0,4.725,1.242ZM35.727,55.181H27.6l-.426-1.427a.877.877,0,0,0-1.1-.594.89.89,0,0,0-.588,1.107l.273.914H18.835l2.1-7.035a2.029,2.029,0,0,0,2.732,0l.624,2.093a.877.877,0,0,0,1.1.594.89.89,0,0,0,.588-1.107l-.894-3L26.5,45.284l1.64,1.134a1.932,1.932,0,0,0,2.01.116,1.97,1.97,0,0,0,1.04-1.743V42.479h4.748l.514.8a11.056,11.056,0,0,0-.964,2.351l-2.149.465a1.682,1.682,0,0,0-1.312,1.64v1.849a1.682,1.682,0,0,0,1.312,1.64l2.149.465a11.069,11.069,0,0,0,.964,2.351Zm22.515-5.675-2.6.563a.884.884,0,0,0-.668.65l-.06.238a9.288,9.288,0,0,1-1,2.446l-.124.21a.9.9,0,0,0,.017.938l1.446,2.257L54.071,58l-2.233-1.462a.871.871,0,0,0-.927-.018l-.208.125a9.067,9.067,0,0,1-2.419,1.014l-.234.06a.884.884,0,0,0-.643.675l-.557,2.628H45.181L44.624,58.4a.884.884,0,0,0-.643-.675l-.234-.06a9.063,9.063,0,0,1-2.419-1.015l-.208-.125a.871.871,0,0,0-.927.018L37.959,58l-1.18-1.193,1.446-2.258a.9.9,0,0,0,.017-.938l-.124-.21a9.276,9.276,0,0,1-1-2.446l-.06-.237a.883.883,0,0,0-.668-.65l-2.6-.563V47.819l2.6-.563a.883.883,0,0,0,.668-.65l.059-.237a9.28,9.28,0,0,1,1-2.446l.124-.21a.9.9,0,0,0-.017-.938l-1.446-2.258,1.18-1.193,2.233,1.462a.871.871,0,0,0,.927.018l.208-.125a9.064,9.064,0,0,1,2.419-1.014l.235-.06a.884.884,0,0,0,.643-.675l.556-2.628H46.85l.557,2.628a.885.885,0,0,0,.643.675l.234.06A9.069,9.069,0,0,1,50.7,40.679l.208.125a.871.871,0,0,0,.927-.018l2.233-1.462,1.18,1.193-1.446,2.257a.9.9,0,0,0-.017.938l.124.21a9.281,9.281,0,0,1,1,2.447l.06.237a.883.883,0,0,0,.668.65l2.6.563Z" transform="translate(9 3.2)"/></g></g></svg>