<svg xmlns="http://www.w3.org/2000/svg" xmlns:xlink="http://www.w3.org/1999/xlink" width="177.892" height="168.998" viewBox="0 0 177.892 168.998"><defs><style>.a{fill:#ef314c;}.b{fill:#bb193b;}.c{fill:#ffdc00;}.d{fill:#fec108;}.e{filter:url(#a);}</style><filter id="a" x="0" y="29.068" width="146.819" height="125.754" filterUnits="userSpaceOnUse"><feOffset dy="5" input="SourceAlpha"/><feGaussianBlur stdDeviation="3" result="b"/><feFlood flood-opacity="0.612"/><feComposite operator="in" in2="b"/><feComposite in="SourceGraphic"/></filter></defs><g transform="translate(6.137 0)"><g transform="translate(0 0)"><g class="e" transform="matrix(1, 0, 0, 1, -6.14, 0)"><path class="a" d="M129.818,69.79a18.261,18.261,0,0,1-4.9,12.478V82.3A26.291,26.291,0,0,1,111.355,100.6a31.068,31.068,0,0,1,4.723,9.351,7.008,7.008,0,0,1,.372,2.253,7.322,7.322,0,0,1-4.523,6.732,7.684,7.684,0,0,1-8.76-2.2,19.4,19.4,0,0,0-8.874-5.774c-11.279-3.718-14.6-7.436-15.344-13.8h-.2A31.034,31.034,0,0,1,67.5,95.083a19.011,19.011,0,0,1-17.836,6.15A18.746,18.746,0,0,1,35.38,89.056a25.9,25.9,0,0,1-23.475-2.989A25.02,25.02,0,0,1,1,65.4,24.7,24.7,0,0,1,6.067,50.384a10.732,10.732,0,0,1-.63-3.605A11.068,11.068,0,0,1,14.4,36.019a9.6,9.6,0,0,1-.057-1.3,14.146,14.146,0,0,1,6.744-12.043,14.635,14.635,0,0,1,13.952-.773A21.11,21.11,0,0,1,49.872,12a21.339,21.339,0,0,1,17.227,4.9,11.174,11.174,0,0,1,19.666,1.577,27.521,27.521,0,0,1,3.063-.169,26.522,26.522,0,0,1,26.565,24.11h.086a11.2,11.2,0,0,1,9.592,5.461,10.832,10.832,0,0,1,.084,10.9,18.224,18.224,0,0,1,3.664,11.013Z" transform="translate(8 21.33)"/></g><path class="b" d="M79.829,58.778a10.832,10.832,0,0,0-.084-10.9,11.2,11.2,0,0,0-9.592-5.461h-.086A26.522,26.522,0,0,0,43.5,18.3a27.52,27.52,0,0,0-3.063.169,10.992,10.992,0,0,0-6.041-5.92,11.246,11.246,0,0,0-8.526.056,11.049,11.049,0,0,1,5.98,5.864,27.521,27.521,0,0,1,3.063-.169,26.522,26.522,0,0,1,26.565,24.11h.086a11.2,11.2,0,0,1,9.592,5.461,10.832,10.832,0,0,1,.084,10.9A18.361,18.361,0,0,1,70.01,82.268V82.3A26.291,26.291,0,0,1,56.441,100.6a31.068,31.068,0,0,1,4.723,9.351,7.008,7.008,0,0,1,.372,2.253,7.237,7.237,0,0,1-3.149,5.9,7.478,7.478,0,0,0,7.714.61,7.245,7.245,0,0,0,4.023-6.5,7.008,7.008,0,0,0-.372-2.253,31.067,31.067,0,0,0-4.723-9.351A26.291,26.291,0,0,0,78.6,82.3v-.028a18.361,18.361,0,0,0,1.231-23.491Z" transform="translate(48.189 21.328)"/><ellipse class="c" cx="11.5" cy="11" rx="11.5" ry="11" transform="translate(2.757 144)"/><path class="d" d="M7.794,51a11.567,11.567,0,0,0-4.294.845,11.246,11.246,0,0,1,7.159,10.43A11.246,11.246,0,0,1,3.5,72.7a11.586,11.586,0,0,0,12.446-2.512,11.134,11.134,0,0,0,2.428-12.271A11.455,11.455,0,0,0,7.794,51Z" transform="translate(6.52 92.648)"/><ellipse class="c" cx="11.5" cy="11" rx="11.5" ry="11" transform="translate(131.757 144)"/><path class="d" d="M52.794,51a11.567,11.567,0,0,0-4.294.845,11.177,11.177,0,0,1,0,20.86,11.586,11.586,0,0,0,12.446-2.512,11.134,11.134,0,0,0,2.428-12.271A11.455,11.455,0,0,0,52.794,51Z" transform="translate(90.338 92.648)"/><ellipse class="c" cx="11.5" cy="11" rx="11.5" ry="11" transform="translate(102.756 3)"/><path class="d" d="M42.794,1a11.567,11.567,0,0,0-4.294.845,11.177,11.177,0,0,1,0,20.86,11.586,11.586,0,0,0,12.446-2.512A11.134,11.134,0,0,0,53.374,7.922,11.455,11.455,0,0,0,42.794,1Z" transform="translate(71.712 1.817)"/><circle class="c" cx="11.5" cy="11.5" r="11.5" transform="translate(145.757 25)"/><path class="d" d="M57.794,9a11.567,11.567,0,0,0-4.294.845,11.177,11.177,0,0,1,0,20.86,11.586,11.586,0,0,0,12.446-2.512,11.134,11.134,0,0,0,2.428-12.271A11.455,11.455,0,0,0,57.794,9Z" transform="translate(99.652 16.35)"/><ellipse class="c" cx="11.5" cy="11" rx="11.5" ry="11" transform="translate(145.757 65)"/><path class="d" d="M57.794,23a11.567,11.567,0,0,0-4.294.845,11.177,11.177,0,0,1,0,20.86,11.586,11.586,0,0,0,12.446-2.512,11.134,11.134,0,0,0,2.428-12.271A11.455,11.455,0,0,0,57.794,23Z" transform="translate(99.652 41.783)"/><path d="M53.554,25.787a2.86,2.86,0,0,0-3.346,2.236A14.93,14.93,0,0,1,39.472,39.54a15.236,15.236,0,0,1-15.26-4.331,2.89,2.89,0,0,0-2.748-.922A2.846,2.846,0,0,0,19.31,36.2a2.784,2.784,0,0,0,.656,2.783A20.918,20.918,0,0,0,32.1,45.439a11.382,11.382,0,0,1-9.9,5.647,2.817,2.817,0,1,0,0,5.633A17.01,17.01,0,0,0,38.319,45.506,20.739,20.739,0,0,0,55.829,29.083a2.78,2.78,0,0,0-.444-2.112,2.866,2.866,0,0,0-1.832-1.184Z" transform="translate(35.724 46.755)"/><path d="M32.607,23.554a2.84,2.84,0,0,0-2.863-2.817A15.639,15.639,0,0,0,14,36.228a2.863,2.863,0,0,0,5.725,0A9.94,9.94,0,0,1,29.744,26.37,2.84,2.84,0,0,0,32.607,23.554Z" transform="translate(26.078 37.672)"/><path d="M120.231,39.433h23.187A14.289,14.289,0,1,0,158.881,22.6a14.285,14.285,0,0,0-15.463,11.2H120.231a11.413,11.413,0,0,0-11.124,8.7,29.608,29.608,0,0,0-17.4-5.687c-.484,0-.95.056-1.431.079a14,14,0,0,0-21.8-2.572,24.036,24.036,0,0,0-8.35-3.526V22.533A5.68,5.68,0,0,1,65.841,16.9h34.638a14.336,14.336,0,0,0,28.337-2.817,14.336,14.336,0,0,0-28.337-2.817H65.841A11.36,11.36,0,0,0,54.391,22.533v7.754a24.219,24.219,0,0,0-18.57,9.531,17.439,17.439,0,0,0-15.139,2.257A16.859,16.859,0,0,0,13.366,55.31,13.458,13.458,0,0,0,4.836,71.168a27.618,27.618,0,0,0,6.616,37.985v31.96a14.065,14.065,0,0,0,2.863,27.882,14.065,14.065,0,0,0,2.863-27.882V112.451a28.666,28.666,0,0,0,18.447,1.366,21.634,21.634,0,0,0,15.759,11.569,21.9,21.9,0,0,0,18.779-5.733,34.036,34.036,0,0,0,8.247,1.56c1.377,5.633,5.264,9.295,13.2,12.43v12.821a11.36,11.36,0,0,0,11.451,11.266h26.05a14.107,14.107,0,1,0,0-5.633h-26.05a5.68,5.68,0,0,1-5.725-5.633V135.787a15.946,15.946,0,0,1,5.525,4.107,10.751,10.751,0,0,0,8.1,3.755,10.265,10.265,0,0,0,3.962-.794,10.137,10.137,0,0,0,6.258-9.323,9.675,9.675,0,0,0-.51-3.115,36.882,36.882,0,0,0-3.435-7.6,28.944,28.944,0,0,0,12.189-17.919,20.934,20.934,0,0,0,1.846-24.966c.146-.346.252-.7.366-1.059h11.785a14.107,14.107,0,1,0,0-5.633H132.177A13.817,13.817,0,0,0,120.8,61.166a28.694,28.694,0,0,0-6.3-13.6v-2.5a5.68,5.68,0,0,1,5.725-5.633Zm37.214-11.266a8.451,8.451,0,1,1-8.588,8.45A8.52,8.52,0,0,1,157.445,28.167ZM114.506,5.634a8.451,8.451,0,1,1-8.588,8.45A8.52,8.52,0,0,1,114.506,5.634ZM22.9,154.914a8.589,8.589,0,1,1-8.588-8.45,8.66,8.66,0,0,1,6.073,2.475A8.382,8.382,0,0,1,22.9,154.914Zm120.231-8.45a8.451,8.451,0,1,1-8.588,8.45A8.52,8.52,0,0,1,143.132,146.464ZM157.445,67.6a8.451,8.451,0,1,1-8.588,8.45A8.52,8.52,0,0,1,157.445,67.6ZM126.6,74.683a8.038,8.038,0,0,1-1.062,4.005,8.32,8.32,0,0,1-3.721,3.38,2.8,2.8,0,0,0-1.377,3.746,2.883,2.883,0,0,0,3.807,1.355,13.985,13.985,0,0,0,3.278-2.135,15.428,15.428,0,0,1-2.823,16.643l-.054.062a16.4,16.4,0,0,1-19.122,3.45,15.213,15.213,0,0,1-2.385-1.465,11.366,11.366,0,0,0,1.282-12.3,2.885,2.885,0,0,0-4.989-.335,2.778,2.778,0,0,0-.132,2.85,5.886,5.886,0,0,1-1.955,7.532,6.2,6.2,0,0,1-4.911.828,6.1,6.1,0,0,1-3.909-3.039A2.885,2.885,0,0,0,84.686,98a2.8,2.8,0,0,0-1.28,3.78A11.709,11.709,0,0,0,98.552,107.2a20.808,20.808,0,0,0,4.374,3.008,21.7,21.7,0,0,0,17.914.789A23.533,23.533,0,0,1,104.5,121.923a2.818,2.818,0,0,0,.91,5.563,29.371,29.371,0,0,0,6.813-1.952,31.122,31.122,0,0,1,2.989,6.642,4.191,4.191,0,0,1,.226,1.363,4.506,4.506,0,0,1-2.782,4.14,4.807,4.807,0,0,1-5.439-1.408,22.176,22.176,0,0,0-10.157-6.633c-8.339-2.749-11.491-5.259-12.739-8.56a34.126,34.126,0,0,0,6.263-1.214,2.809,2.809,0,0,0,1.9-3.521,2.872,2.872,0,0,0-3.578-1.865,28.363,28.363,0,0,1-6.324,1.146A27.523,27.523,0,0,1,70.4,113.811a3.1,3.1,0,0,0-3.212.786,16.134,16.134,0,0,1-15.149,5.2,15.907,15.907,0,0,1-12.106-10.36v-.031l-.014-.023a15.537,15.537,0,0,1,1.408-13.238,2.8,2.8,0,0,0-.976-3.876,2.9,2.9,0,0,0-3.939.96,21.012,21.012,0,0,0-2.161,4.884c-.1,0-.2.045-.286.045a5.992,5.992,0,0,1-6.012-5.949v-.087a2.755,2.755,0,0,0-.843-1.974,2.847,2.847,0,0,0-2.02-.8,2.876,2.876,0,0,0-2.863,2.859,11.632,11.632,0,0,0,11.138,11.52c0,.177-.034.352-.034.53a21.243,21.243,0,0,0,.424,4.208,22.862,22.862,0,0,1-22.975-7.6A22,22,0,0,1,7.953,77.176a13.916,13.916,0,0,0,3.266,2.738,2.89,2.89,0,0,0,3.93-.958,2.792,2.792,0,0,0-.973-3.867,8.2,8.2,0,0,1-3.55-4.321,8.043,8.043,0,0,1,3.892-9.847,8.316,8.316,0,0,1,10.476,2.321A2.894,2.894,0,0,0,29,63.824a2.788,2.788,0,0,0,.591-3.942,13.858,13.858,0,0,0-10.368-5.5,11.152,11.152,0,0,1,4.714-7.7,11.511,11.511,0,0,1,8.95-1.8,23,23,0,0,0-1.013,2.969,2.785,2.785,0,0,0,.711,2.792,2.9,2.9,0,0,0,2.832.72,2.836,2.836,0,0,0,2-2.1,17.921,17.921,0,0,1,11.266-12.3A18.355,18.355,0,0,1,65.366,39.1,13.435,13.435,0,0,0,64.41,44a2.863,2.863,0,0,0,5.725,0,8.085,8.085,0,0,1,4.076-7.151,8.361,8.361,0,0,1,8.333,0A8.085,8.085,0,0,1,86.621,44a2.863,2.863,0,0,0,5.725,0,13.7,13.7,0,0,0-.157-1.541,23.841,23.841,0,0,1,22.835,18.871,13.924,13.924,0,0,0-5.05,2.318,2.8,2.8,0,0,0,.593,4.843,2.9,2.9,0,0,0,2.842-.337,8.347,8.347,0,0,1,8.645-.769,8.09,8.09,0,0,1,4.543,7.278Z" transform="translate(0 0)"/></g></g></svg>