<svg xmlns="http://www.w3.org/2000/svg" width="50" height="50" viewBox="0 0 50 50"><defs><style>.a{fill:#0052c2;}.b{fill:#003481;}.c{fill:#e0f4ff;}.d{fill:#b8e0f5;}.e{fill:#ffda2d;}.f{fill:#00b8f0;}.g{fill:#0097f0;}.h{fill:#ff641a;}.i{fill:#f03800;}.j{fill:#8afa42;}.k{fill:#fdbf00;}</style></defs><g transform="translate(0 -1)"><path class="a" d="M50,5.412A4.4,4.4,0,0,0,45.605,1H4.395A4.4,4.4,0,0,0,0,5.412v8.824l.977.98H49.023l.977-.98Z"/><path class="b" d="M281,5.412v8.824l-.977.98H256V1h20.605A4.4,4.4,0,0,1,281,5.412Z" transform="translate(-231)"/><path class="c" d="M0,136v26.471a4.408,4.408,0,0,0,4.395,4.412H45.605A4.408,4.408,0,0,0,50,162.471V136Z" transform="translate(0 -121.765)"/><path class="d" d="M281,136v26.471a4.409,4.409,0,0,1-4.395,4.412H256V136Z" transform="translate(-231 -121.765)"/><path class="e" d="M74.184,301H62.465A1.468,1.468,0,0,0,61,302.471v5.882a1.468,1.468,0,0,0,1.465,1.471H74.184a1.468,1.468,0,0,0,1.465-1.471v-5.882A1.468,1.468,0,0,0,74.184,301Z" transform="translate(-55.043 -270.588)"/><path class="f" d="M88.832,181H62.465a1.471,1.471,0,0,0,0,2.941H88.832a1.471,1.471,0,0,0,0-2.941Z" transform="translate(-55.043 -162.353)"/><path class="g" d="M266.254,182.471a1.468,1.468,0,0,1-1.465,1.471H256V181h8.789A1.468,1.468,0,0,1,266.254,182.471Z" transform="translate(-231 -162.353)"/><path class="f" d="M82.973,241H62.465a1.471,1.471,0,0,0,0,2.941H82.973a1.471,1.471,0,0,0,0-2.941Z" transform="translate(-55.043 -216.471)"/><path class="g" d="M260.395,242.471a1.468,1.468,0,0,1-1.465,1.471H256V241h2.93A1.468,1.468,0,0,1,260.395,242.471Z" transform="translate(-231 -216.471)"/><path class="h" d="M315.648,321.98v16.176a1.468,1.468,0,0,1-1.465,1.471H302.465A1.468,1.468,0,0,1,301,338.157V321.98l.977-.98h12.7Z" transform="translate(-271.605 -288.627)"/><path class="i" d="M383.324,321.98v16.176a1.468,1.468,0,0,1-1.465,1.471H376V321h6.348Z" transform="translate(-339.281 -288.627)"/><path class="a" d="M364.93,321.98v17.647H362V321.98l.977-.98h.977Z" transform="translate(-326.648 -288.627)"/><path class="b" d="M377.563,321.98v17.647H376V321h.586Z" transform="translate(-339.281 -288.627)"/><ellipse class="j" cx="1.465" cy="1.471" rx="1.465" ry="1.471" transform="translate(5.957 6.882)"/><ellipse class="k" cx="1.465" cy="1.471" rx="1.465" ry="1.471" transform="translate(11.816 6.882)"/><ellipse class="i" cx="1.465" cy="1.471" rx="1.465" ry="1.471" transform="translate(17.676 6.882)"/><path class="a" d="M341.254,61h-8.789a1.471,1.471,0,0,0,0,2.941h8.789a1.471,1.471,0,0,0,0-2.941Z" transform="translate(-298.676 -54.118)"/><path class="e" d="M309.543,226.662a1.463,1.463,0,0,0-2.438,0l-5.859,8.824a1.474,1.474,0,0,0-.246.816h14.648a1.474,1.474,0,0,0-.246-.816Z" transform="translate(-271.605 -202.948)"/><path class="k" d="M383.324,236.3H376V226.01a1.453,1.453,0,0,1,1.219.654l5.859,8.824A1.476,1.476,0,0,1,383.324,236.3Z" transform="translate(-339.281 -202.95)"/></g></svg>