<?xml version="1.0" encoding="utf-8"?>
<!-- Generator: Adobe Illustrator 19.0.0, SVG Export Plug-In . SVG Version: 6.00 Build 0)  -->
<svg version="1.1" id="Layer_1" xmlns="http://www.w3.org/2000/svg" xmlns:xlink="http://www.w3.org/1999/xlink" x="0px" y="0px"
	 viewBox="-55 147 500 500" style="enable-background:new -55 147 500 500;" xml:space="preserve">
<style type="text/css">
	.st0{fill:#E0E0E0;}
	.st1{display:none;}
	.st2{display:inline;fill:#F5F5F5;}
	.st3{fill:#FFFFFF;}
	.st4{fill:#263238;}
	.st5{display:inline;}
	.st6{fill:#6798C0;}
	.st7{display:inline;fill:#FF725E;}
	.st8{enable-background:new    ;}
	.st9{display:none;enable-background:new    ;}
	.st10{font-family:'Montserrat-Medium';}
	.st11{font-size:20.4517px;}
	.st12{fill:#455A64;}
	.st13{fill:#F5F5F5;}
	.st14{fill:#FF725E;}
</style>
<g id="Background_Complete">
	<g id="XMLID_1_">
		<g id="XMLID_2_">
			<g id="XMLID_3_">
				<path id="XMLID_4_" class="st0" d="M69.7,306c0.1-0.1,0.7,0.5,1.8,1.5c1.1,1,2.5,2.4,4,4h-0.4v-0.1c1.5-1.6,2.9-3.1,4-4.1
					c1-1,1.7-1.7,1.7-1.6c0.1,0-0.5,0.8-1.5,1.9c-1,1.1-2.3,2.6-3.8,4.2v0.1l-0.2,0.2l-0.2-0.2c-1.6-1.6-3-3-3.9-4.1
					C70.3,306.8,69.7,306.1,69.7,306z"/>
			</g>
		</g>
		<g id="XMLID_5_">
			<g id="XMLID_6_">
				<path id="XMLID_7_" class="st0" d="M75.3,311.5c0,0,0-0.1,0-0.3c0-0.2,0-0.5,0-0.8c0-0.7,0-1.8,0-3.1c0-2.7,0-6.7-0.1-11.7
					c0-10-0.1-24.2-0.1-41l0.2,0.2c-12.4,0-26.4,0-41.2,0c-9.2,0-18,0-26.3,0H7.5v-0.3c0-20.7,0.1-38.7,0.1-51.5
					c0-6.4,0.1-11.4,0.1-15c0-1.7,0-3.1,0-4c0-0.4,0-0.8,0-1s0-0.4,0-0.4s0,0.1,0,0.4s0,0.6,0,1c0,0.9,0,2.3,0,4c0,3.5,0,8.6,0.1,15
					c0,12.8,0.1,30.7,0.1,51.5l-0.3-0.3c8.2,0,17.1,0,26.3,0c14.8,0,28.8,0,41.2,0h0.2v0.2c0,16.8-0.1,31-0.1,41
					c0,5-0.1,8.9-0.1,11.7c0,1.3,0,2.4,0,3.1c0,0.3,0,0.6,0,0.8C75.4,311.4,75.4,311.5,75.3,311.5z"/>
			</g>
		</g>
		<g id="XMLID_8_">
			<g id="XMLID_9_">
				<path id="XMLID_10_" class="st0" d="M50.7,390.8c0,0.1-17.6,0.3-39.4,0.3s-39.4-0.1-39.4-0.3c0-0.1,17.6-0.3,39.4-0.3
					S50.7,390.6,50.7,390.8z"/>
			</g>
		</g>
		<g id="XMLID_11_">
			<g id="XMLID_12_">
				<path id="XMLID_13_" class="st0" d="M45,396.4c-0.1-0.1,0.5-0.7,1.5-1.8c1-1.1,2.4-2.5,4-4v0.4h-0.1c-1.6-1.5-3.1-2.9-4.1-4
					c-1-1-1.7-1.7-1.6-1.7c0-0.1,0.8,0.5,1.9,1.5s2.6,2.3,4.2,3.8h0.1l0.2,0.2l-0.2,0.2c-1.6,1.6-3,3-4.1,3.9
					C45.8,395.9,45.1,396.5,45,396.4z"/>
			</g>
		</g>
		<g id="XMLID_14_">
			<g id="XMLID_15_">
				<path id="XMLID_16_" class="st0" d="M45,454.7c-0.1-0.1,0.5-0.7,1.5-1.8c1-1.1,2.4-2.5,4-4v0.4h-0.1c-1.6-1.5-3.1-2.9-4.1-4
					c-1-1-1.7-1.7-1.6-1.7c0-0.1,0.8,0.5,1.9,1.5s2.6,2.3,4.2,3.8h0.1l0.2,0.2l-0.2,0.2c-1.6,1.6-3,3-4.1,3.9
					C45.8,454.2,45.1,454.7,45,454.7z"/>
			</g>
		</g>
		<g id="XMLID_17_">
			<g id="XMLID_18_">
				<path id="XMLID_19_" class="st0" d="M51.6,516.9c0,0-0.1,0-0.4,0s-0.7,0-1.1,0c-1,0-2.5,0-4.3,0c-3.8,0-9.2,0-15.9,0.1
					c-13.4,0-32,0-52.4,0.1c-1.9,0-3.8,0-5.6,0l0.3-0.3c0,19.2-0.1,36.3-0.1,48.6c0,6.1-0.1,11.1-0.1,14.6c0,1.7,0,3,0,3.9
					c0,0.4,0,0.8,0,1s0,0.3,0,0.3s0-0.1,0-0.3c0-0.3,0-0.6,0-1c0-0.9,0-2.2,0-3.9c0-3.5,0-8.4-0.1-14.6c0-12.4,0-29.5-0.1-48.6v-0.3
					h0.3c1.8,0,3.7,0,5.6,0c20.5,0,39,0.1,52.4,0.1c6.7,0,12.1,0.1,15.9,0.1c1.9,0,3.3,0,4.3,0c0.5,0,0.8,0,1.1,0
					C51.5,516.9,51.6,516.9,51.6,516.9z"/>
			</g>
		</g>
		<g id="XMLID_20_">
			<g id="XMLID_21_">
				<path id="XMLID_22_" class="st0" d="M45.9,511.3c0.1-0.1,0.7,0.5,1.8,1.5c1.1,1,2.5,2.4,4.1,3.9l0.2,0.2l-0.2,0.2h-0.1
					c-1.6,1.5-3.1,2.9-4.2,3.8c-1.1,1-1.8,1.5-1.9,1.5c0-0.1,0.6-0.7,1.6-1.7s2.5-2.4,4.1-4h0.1v0.4c-1.6-1.6-3-3-4-4
					C46.5,512,45.9,511.3,45.9,511.3z"/>
			</g>
		</g>
		<g id="XMLID_23_">
			<g id="XMLID_24_">
				<path id="XMLID_25_" class="st0" d="M44.1,555.8c0.1-0.1,0.7,0.5,1.8,1.5c1.1,1,2.5,2.4,4.1,3.9l0.2,0.2l-0.2,0.2h-0.1
					c-1.6,1.5-3.1,2.9-4.2,3.8c-1.1,1-1.8,1.5-1.9,1.5c0-0.1,0.6-0.7,1.6-1.7s2.5-2.4,4.1-4h0.1v0.4c-1.6-1.6-3-3-4-4
					S44,555.9,44.1,555.8z"/>
			</g>
		</g>
		<g id="XMLID_26_">
			<g id="XMLID_27_">
				<path id="XMLID_28_" class="st0" d="M-35.7,239.5c0,0,0.1,0,0.3,0c0.2,0,0.5,0,0.8,0c0.8,0,1.8,0,3.3,0c2.9,0,7,0,12.3-0.1h0.1
					v0.2c0,16.4,0.1,43.7,0.1,74.6c0,7.8,0,15.5,0,22.6l-0.3-0.3c19.7,0,36.9,0.1,49.1,0.1c6.1,0,11,0.1,14.3,0.1c1.7,0,2.9,0,3.8,0
					c0.4,0,0.7,0,1,0c0.2,0,0.3,0,0.3,0s-0.1,0-0.3,0c-0.2,0-0.6,0-1,0c-0.9,0-2.2,0-3.8,0c-3.4,0-8.2,0-14.3,0.1
					c-12.2,0-29.4,0.1-49.1,0.1h-0.3v-0.3c0-7.1,0-14.8,0-22.6c0-30.9,0.1-58.1,0.1-74.6l0.1,0.1c-5.2,0-9.4-0.1-12.3-0.1
					c-1.4,0-2.5,0-3.3,0C-35.2,239.4-35.4,239.4-35.7,239.5C-35.6,239.5-35.7,239.5-35.7,239.5z"/>
			</g>
		</g>
		<g id="XMLID_29_">
			<g id="XMLID_30_">
				<path id="XMLID_31_" class="st0" d="M-35.7,449.1c0-0.1,19.4-0.3,43.2-0.3c23.9,0,43.2,0.1,43.2,0.3s-19.3,0.3-43.2,0.3
					S-35.7,449.2-35.7,449.1z"/>
			</g>
		</g>
		<g id="XMLID_32_">
			<g id="XMLID_33_">
				<path id="XMLID_34_" class="st0" d="M7.9,614.4c0,0,0-0.1,0-0.2c0-0.2,0-0.4,0-0.7c0-0.7,0-1.6,0-2.8c0-2.4,0-5.9-0.1-10.2
					c0-8.6,0-20.5-0.1-33.5c0-1.9,0-3.7,0-5.5v-0.3H8c11.8,0,22.3,0.1,29.8,0.1c3.7,0,6.7,0.1,8.9,0.1c1,0,1.8,0,2.4,0
					c0.5,0,0.8,0,0.8,0s-0.3,0-0.8,0c-0.6,0-1.4,0-2.4,0c-2.1,0-5.1,0-8.9,0.1c-7.6,0-18,0.1-29.8,0.1l0.3-0.3c0,1.8,0,3.6,0,5.5
					c0,13.1-0.1,24.9-0.1,33.5c0,4.3-0.1,7.7-0.1,10.2c0,1.2,0,2.1,0,2.8c0,0.3,0,0.5,0,0.7C7.9,614.3,7.9,614.4,7.9,614.4z"/>
			</g>
		</g>
		<g id="XMLID_35_">
			<g id="XMLID_36_">
				<path id="XMLID_37_" class="st0" d="M43.8,342.4c-0.1-0.1,0.5-0.7,1.5-1.8c1-1.1,2.4-2.5,4-4v0.4h-0.1c-1.6-1.5-3.1-2.9-4.1-4
					c-1-1-1.7-1.7-1.6-1.7c0-0.1,0.8,0.5,1.9,1.5s2.6,2.3,4.2,3.8h0.1l0.2,0.2l-0.2,0.2c-1.6,1.6-3,3-4.1,3.9
					C44.6,341.9,43.9,342.5,43.8,342.4z"/>
			</g>
		</g>
	</g>
	<g id="XMLID_38_">
		<g id="XMLID_39_">
			<g id="XMLID_40_">
				<path id="XMLID_41_" class="st0" d="M318,306.1c0.1,0.1-0.5,0.7-1.5,1.8c-1,1.1-2.4,2.5-3.9,4.1l-0.2,0.2l-0.2-0.2v-0.1
					c-1.5-1.6-2.9-3.1-3.8-4.2c-1-1.1-1.5-1.8-1.5-1.9c0.1,0,0.7,0.6,1.7,1.6s2.4,2.5,4,4.1v0.1h-0.4c1.6-1.6,3-3,4-4
					C317.2,306.6,317.9,306,318,306.1z"/>
			</g>
		</g>
		<g id="XMLID_42_">
			<g id="XMLID_43_">
				<path id="XMLID_44_" class="st0" d="M312.3,311.5c0,0,0-0.1,0-0.3c0-0.2,0-0.5,0-0.8c0-0.7,0-1.7,0-3.1c0-2.7,0-6.6-0.1-11.6
					c0-10-0.1-24.2-0.1-41.1v-0.2h0.2c14,0,30,0,47.1,0c7,0,13.8,0,20.4,0l-0.3,0.3c0-23.8,0.1-44.7,0.1-59.7
					c0-7.5,0.1-13.4,0.1-17.6c0-2,0-3.6,0-4.7c0-0.5,0-0.9,0-1.2s0-0.4,0-0.4s0,0.1,0,0.4s0,0.7,0,1.2c0,1.1,0,2.7,0,4.7
					c0,4.1,0,10.1,0.1,17.6c0,15,0.1,35.8,0.1,59.7v0.3h-0.3c-6.6,0-13.4,0-20.4,0c-17,0-33.1,0-47.1,0l0.2-0.2
					c0,16.9-0.1,31.1-0.1,41.1c0,5,0,8.9-0.1,11.6c0,1.3,0,2.4,0,3.1c0,0.3,0,0.6,0,0.8C312.4,311.4,312.4,311.5,312.3,311.5z"/>
			</g>
		</g>
		<g id="XMLID_45_">
			<g id="XMLID_46_">
				<path id="XMLID_47_" class="st0" d="M337,390.8c0-0.1,19.1-0.3,42.8-0.3c23.6,0,42.8,0.1,42.8,0.3c0,0.1-19.1,0.3-42.8,0.3
					C356.1,391,337,390.9,337,390.8z"/>
			</g>
		</g>
		<g id="XMLID_48_">
			<g id="XMLID_49_">
				<path id="XMLID_50_" class="st0" d="M342.7,396.4c-0.1,0.1-0.7-0.5-1.8-1.5c-1.1-1-2.5-2.4-4.1-3.9l-0.2-0.2l0.2-0.2h0.1
					c1.6-1.5,3.1-2.9,4.2-3.8c1.1-0.9,1.8-1.5,1.9-1.5c0,0.1-0.6,0.7-1.6,1.7s-2.5,2.4-4.1,4h-0.1v-0.4c1.6,1.6,3,3,4,4
					C342.1,395.7,342.7,396.4,342.7,396.4z"/>
			</g>
		</g>
		<g id="XMLID_51_">
			<g id="XMLID_52_">
				<path id="XMLID_53_" class="st0" d="M342.7,454.7c-0.1,0.1-0.7-0.5-1.8-1.5c-1.1-1-2.5-2.4-4.1-3.9l-0.2-0.2l0.2-0.2h0.1
					c1.6-1.5,3.1-2.9,4.2-3.8s1.8-1.5,1.9-1.5c0,0.1-0.6,0.7-1.6,1.7s-2.5,2.4-4.1,4h-0.1v-0.4c1.6,1.6,3,3,4,4
					C342.1,454,342.7,454.7,342.7,454.7z"/>
			</g>
		</g>
		<g id="XMLID_54_">
			<g id="XMLID_55_">
				<path id="XMLID_56_" class="st0" d="M336.1,516.9c0,0,0.1,0,0.4,0s0.6,0,1,0c0.9,0,2.3,0,4,0c3.5,0,8.6,0,14.9-0.1
					c12.7,0,30.4-0.1,50.4-0.1h0.3v0.3c0,3.8,0,7.8,0,11.8c0,22-0.1,42-0.1,56.7l-0.2-0.2c7.9,0,14.4,0.1,18.9,0.1
					c2.2,0,3.9,0,5.1,0.1c0.6,0,1,0,1.3,0s0.5,0,0.5,0s-0.2,0-0.5,0s-0.8,0-1.3,0c-1.2,0-2.9,0-5.1,0.1c-4.5,0-10.9,0-18.9,0.1h-0.2
					v-0.2c0-14.7,0-34.7-0.1-56.7c0-4,0-8,0-11.8l0.3,0.3c-20,0-37.7-0.1-50.4-0.1c-6.3,0-11.4-0.1-14.9-0.1c-1.7,0-3.1,0-4,0
					c-0.4,0-0.8,0-1,0C336.2,517,336.1,517,336.1,516.9z"/>
			</g>
		</g>
		<g id="XMLID_57_">
			<g id="XMLID_58_">
				<path id="XMLID_59_" class="st0" d="M341.8,511.3c0.1,0.1-0.5,0.7-1.5,1.8s-2.4,2.5-4,4v-0.4h0.1c1.6,1.5,3.1,2.9,4.1,4
					c1,1,1.7,1.7,1.6,1.7c0,0.1-0.8-0.5-1.9-1.5s-2.6-2.3-4.2-3.8h-0.1l-0.2-0.2l0.2-0.2c1.6-1.6,3-3,4.1-3.9
					C341,511.8,341.7,511.2,341.8,511.3z"/>
			</g>
		</g>
		<g id="XMLID_60_">
			<g id="XMLID_61_">
				<path id="XMLID_62_" class="st0" d="M343.6,555.9c0.1,0.1-0.5,0.7-1.5,1.8c-1,1.1-2.4,2.5-4,4v-0.4h0.1c1.6,1.5,3.1,2.9,4.1,4
					c1,1,1.7,1.7,1.6,1.7c0,0.1-0.8-0.5-1.9-1.5s-2.6-2.3-4.2-3.8h-0.1l-0.2-0.2l0.2-0.2c1.6-1.6,3-3,4.1-3.9
					C342.9,556.4,343.6,555.8,343.6,555.9z"/>
			</g>
		</g>
		<g id="XMLID_63_">
			<g id="XMLID_64_">
				<path id="XMLID_65_" class="st0" d="M432.6,239.6c0,0-0.2,0-0.4,0c-0.3,0-0.8,0-1.3,0c-1.2,0-2.9,0-5.1,0
					c-4.5,0-10.9,0-18.9,0.1l0.2-0.2c0,17.3,0.1,42.3,0.1,70c0,9.5,0,18.7,0,27.2v0.3H407c-19.9,0-37-0.1-49.2-0.1
					c-6.1,0-10.9-0.1-14.3-0.1c-1.6,0-2.9,0-3.8,0c-0.4,0-0.7,0-1,0c-0.2,0-0.3,0-0.3,0s0.1,0,0.3,0c0.2,0,0.6,0,1,0
					c0.9,0,2.2,0,3.8,0c3.3,0,8.2,0,14.3-0.1c12.2,0,29.3-0.1,49.2-0.1l-0.2,0.2c0-8.5,0-17.7,0-27.2c0-27.7,0.1-52.7,0.1-70v-0.2
					h0.2c8,0,14.5,0.1,18.9,0.1c2.2,0,3.9,0,5.1,0c0.6,0,1,0,1.3,0C432.4,239.5,432.6,239.6,432.6,239.6z"/>
			</g>
		</g>
		<g id="XMLID_66_">
			<g id="XMLID_67_">
				<path id="XMLID_68_" class="st0" d="M432.6,449.1c0,0.1-21.4,0.3-47.8,0.3s-47.8-0.1-47.8-0.3c0-0.1,21.4-0.3,47.8-0.3
					C411.2,448.9,432.6,449,432.6,449.1z"/>
			</g>
		</g>
		<g id="XMLID_69_">
			<g id="XMLID_70_">
				<path id="XMLID_71_" class="st0" d="M379.8,614.4c0,0,0-0.1,0-0.2c0-0.2,0-0.4,0-0.7c0-0.7,0-1.6,0-2.8c0-2.4,0-5.9-0.1-10.2
					c0-8.6,0-20.5-0.1-33.5c0-1.9,0-3.7,0-5.5l0.3,0.3c-11.8,0-22.3-0.1-29.8-0.1c-3.7,0-6.7-0.1-8.9-0.1c-1,0-1.8,0-2.4,0
					c-0.5,0-0.8,0-0.8,0s0.3,0,0.8,0c0.6,0,1.4,0,2.4,0c2.1,0,5.1,0,8.9-0.1c7.6,0,18-0.1,29.8-0.1h0.3v0.3c0,1.8,0,3.6,0,5.5
					c0,13.1-0.1,24.9-0.1,33.5c0,4.3-0.1,7.7-0.1,10.2c0,1.2,0,2.1,0,2.8c0,0.3,0,0.5,0,0.7C379.9,614.3,379.8,614.4,379.8,614.4z"
					/>
			</g>
		</g>
		<g id="XMLID_72_">
			<g id="XMLID_73_">
				<path id="XMLID_74_" class="st0" d="M343.9,342.4c-0.1,0.1-0.7-0.5-1.8-1.5c-1.1-1-2.5-2.4-4.1-3.9l-0.2-0.2l0.2-0.2h0.1
					c1.6-1.5,3.1-2.9,4.2-3.8c1.1-1,1.8-1.5,1.9-1.5c0,0.1-0.6,0.7-1.6,1.7s-2.5,2.4-4.1,4h-0.1v-0.4c1.6,1.6,3,3,4,4
					C343.3,341.7,343.9,342.4,343.9,342.4z"/>
			</g>
		</g>
	</g>
</g>
<g id="Background_Simple" class="st1">
	<path id="XMLID_75_" class="st2" d="M400.3,252l-2.7-4.5c-22.9-37.7-64.3-60.5-108-57.7c-5.6,0.4-11.2,1.1-16.7,2.3
		c-39.7,8.5-74.2,38.5-88.5,76.9c-8.4,22.6-10.8,48.6-26.7,66.6c-20.8,23.3-56.1,24.1-87.1,23.1s-66.3-0.1-87,23.3
		c-13,14.7-17.1,35.5-16,55.2c2.8,52,39,98.6,85.1,121.7s100.4,25.2,150.9,15C274.3,559.6,341.5,520.5,382,460
		C422.4,399.6,432.6,317.2,400.3,252z"/>
	<circle class="st2" cx="57.9" cy="295.1" r="45.4"/>
</g>
<g id="Error">
	<g id="XMLID_76_">
		<g id="XMLID_77_">
			<g id="XMLID_78_">
				<g id="XMLID_79_">
					<g>
						<g id="XMLID_81_">
							<g id="XMLID_82_">
								
									<rect x="48.4" y="184.8" transform="matrix(-0.9986 5.267876e-002 -5.267876e-002 -0.9986 324.7 482.1367)" class="st3" width="215.2" height="121.1"/>
							</g>
						</g>
						<g id="XMLID_83_">
							<g id="XMLID_84_">
								<g id="XMLID_85_">
									<path class="st4" d="M266.6,300.2c0,0-0.1-0.7-0.1-2.2c-0.1-1.4-0.2-3.5-0.4-6.3c-0.3-5.5-0.8-13.7-1.3-24.2
										c-1.1-20.9-2.8-51.1-4.8-88.3l0.2,0.2c-57.4,3-132.7,7-214.9,11.4l0,0l0.2-0.3c2.2,42.8,4.4,83.7,6.4,120.9l-0.2-0.2
										c62.9-3.3,116.6-6.1,154.6-8c19-1,34.1-1.7,44.4-2.3c5.2-0.3,9.1-0.5,11.8-0.6c1.3-0.1,2.4-0.1,3.1-0.1
										C266.3,300.2,266.6,300.2,266.6,300.2s-0.3,0-1,0.1c-0.7,0-1.7,0.1-3,0.2c-2.7,0.1-6.6,0.4-11.8,0.7
										c-10.3,0.6-25.4,1.4-44.3,2.4c-38,2-91.8,4.9-154.8,8.3h-0.2v-0.2c-2-37.3-4.1-78.1-6.4-120.9v-0.3h0.3l0,0
										c82.2-4.3,157.5-8.3,214.9-11.3h0.2v0.2c1.9,37.2,3.5,67.4,4.6,88.4c0.5,10.5,0.9,18.6,1.2,24.1c0.1,2.8,0.2,4.9,0.3,6.3
										C266.6,299.4,266.6,300.2,266.6,300.2z"/>
								</g>
							</g>
						</g>
					</g>
				</g>
				<g id="XMLID_80_">
					<g>
						<g id="XMLID_87_">
							<g id="XMLID_88_">
								<circle class="st0" cx="247.6" cy="194.3" r="5"/>
							</g>
						</g>
						<g id="XMLID_89_">
							<g id="XMLID_90_">
								<g id="XMLID_91_">
									<path class="st4" d="M252.6,194.8c-0.1,0,0-0.5-0.2-1.2c-0.1-0.8-0.6-1.9-1.6-2.8c-1-0.9-2.7-1.5-4.5-1.1
										c-1.7,0.4-3.3,2.1-3.5,4.2c-0.2,2.1,1.1,4,2.7,4.7c1.6,0.8,3.4,0.5,4.6-0.2c1.2-0.7,1.8-1.7,2.1-2.5
										C252.5,195.2,252.6,194.7,252.6,194.8c0,0,0,0.1,0,0.3c0,0.2-0.1,0.5-0.2,0.9c-0.2,0.8-0.8,1.9-2.1,2.7
										c-1.2,0.8-3.2,1.2-5,0.4c-1.8-0.8-3.3-2.9-3-5.3c0.2-2.3,2-4.2,4-4.6c2-0.5,3.8,0.2,4.9,1.3c1.1,1,1.5,2.3,1.5,3.1
										c0,0.4,0,0.7,0,0.9C252.7,194.6,252.6,194.8,252.6,194.8z"/>
								</g>
							</g>
						</g>
					</g>
					<g id="XMLID_86_">
						<g id="XMLID_92_">
							<g id="XMLID_93_">
								<path class="st4" d="M250.3,190.9c0.1,0,0.1,1.9-1.2,3.8c-1.3,1.9-3,2.7-3,2.5c-0.1-0.1,1.4-1.1,2.6-2.9
									C249.8,192.6,250.1,190.9,250.3,190.9z"/>
							</g>
						</g>
					</g>
					<g id="XMLID_94_">
						<g id="XMLID_95_">
							<g id="XMLID_96_">
								<path class="st4" d="M250.6,196.3c-0.2,0.1-0.6-1.3-2-2.3s-2.9-1-2.9-1.1c0-0.1,0.4-0.2,1-0.2s1.5,0.3,2.2,0.8
									c0.8,0.5,1.3,1.3,1.5,1.8C250.6,195.9,250.6,196.3,250.6,196.3z"/>
							</g>
						</g>
					</g>
				</g>
				<g id="XMLID_97_">
					<g>
						<g id="XMLID_99_">
							<g id="XMLID_100_">
								<circle class="st0" cx="58.8" cy="206.3" r="5"/>
							</g>
						</g>
						<g id="XMLID_101_">
							<g id="XMLID_102_">
								<g id="XMLID_103_">
									<path class="st4" d="M63.8,206.7c-0.1,0,0-0.5-0.2-1.2c-0.1-0.8-0.6-1.9-1.6-2.8c-1-0.9-2.7-1.5-4.5-1.1
										c-1.7,0.4-3.3,2.1-3.5,4.2c-0.2,2.1,1.1,4,2.7,4.7c1.6,0.8,3.4,0.5,4.6-0.2s1.8-1.7,2.1-2.5
										C63.7,207.2,63.8,206.7,63.8,206.7s0,0.1,0,0.3s-0.1,0.5-0.2,0.9c-0.2,0.8-0.8,1.9-2.1,2.7c-1.2,0.8-3.2,1.2-5,0.4
										s-3.3-2.9-3-5.3c0.2-2.3,2-4.2,4-4.6c2-0.5,3.8,0.2,4.9,1.3c1.1,1,1.5,2.3,1.5,3.1c0,0.4,0,0.7,0,0.9
										C63.9,206.6,63.9,206.7,63.8,206.7z"/>
								</g>
							</g>
						</g>
					</g>
					<g id="XMLID_98_">
						<g id="XMLID_104_">
							<g id="XMLID_105_">
								<path class="st4" d="M61.5,202.9c0.1,0,0.1,1.9-1.2,3.8c-1.3,1.9-3,2.7-3,2.5c-0.1-0.1,1.4-1.1,2.6-2.9
									C61,204.6,61.3,202.9,61.5,202.9z"/>
							</g>
						</g>
					</g>
					<g id="XMLID_106_">
						<g id="XMLID_107_">
							<g id="XMLID_108_">
								<path class="st4" d="M61.8,208.3c-0.2,0.1-0.6-1.3-2-2.3s-2.9-1-2.9-1.1c0-0.1,0.4-0.2,1-0.2s1.5,0.3,2.2,0.8
									c0.8,0.5,1.3,1.3,1.5,1.8C61.8,207.9,61.9,208.3,61.8,208.3z"/>
							</g>
						</g>
					</g>
				</g>
			</g>
		</g>
		<g id="XMLID_109_" class="st1">
			<g id="XMLID_110_" class="st5">
				<path id="XMLID_111_" class="st4" d="M75.3,282.4l-3.6,0.2l-0.1-1.3l8.6-0.5l0.1,1.3l-3.6,0.2l0.6,9.2l-1.5,0.1L75.3,282.4z"/>
				<path id="XMLID_113_" class="st4" d="M81.2,286c-0.2-3.1,2-5.5,5.2-5.7c3.2-0.2,5.7,1.9,5.8,5c0.2,3.1-2,5.5-5.2,5.7
					S81.3,289,81.2,286z M90.7,285.4c-0.1-2.3-2-3.9-4.3-3.8c-2.3,0.1-4,2-3.8,4.3c0.1,2.3,2,3.9,4.3,3.8
					C89.3,289.5,90.9,287.7,90.7,285.4z"/>
				<path id="XMLID_116_" class="st4" d="M93.6,285.2c-0.2-3.1,2-5.5,5.2-5.7s5.7,1.9,5.8,5c0.2,3.1-2,5.5-5.2,5.7
					C96.3,290.4,93.8,288.3,93.6,285.2z M103.2,284.6c-0.1-2.3-2-3.9-4.3-3.8c-2.3,0.1-4,2-3.8,4.3c0.1,2.3,2,3.9,4.3,3.8
					C101.7,288.7,103.4,286.9,103.2,284.6z"/>
				<path id="XMLID_119_" class="st4" d="M120.9,288.8l-0.5-7.6l-3.4,6.6h-0.7l-4.2-6.1l0.5,7.6l-1.4,0.1l-0.7-10.5l1.2-0.1l4.8,7.1
					l3.8-7.6l1.2-0.1l0.7,10.5L120.9,288.8z"/>
				<path id="XMLID_121_" class="st4" d="M131.9,285.4l-5.5,0.3l-1,2.7l-1.5,0.1l4.1-10.8l1.5-0.1l5.4,10.2l-1.6,0.1L131.9,285.4z
					 M131.4,284.3l-2.6-5l-1.9,5.3L131.4,284.3z"/>
				<path id="XMLID_124_" class="st4" d="M144.7,276.7l0.7,10.5l-1.2,0.1l-6.7-7.4l0.5,7.8l-1.5,0.1l-0.7-10.5l1.2-0.1l6.7,7.4
					l-0.5-7.8L144.7,276.7z"/>
				<path id="XMLID_126_" class="st4" d="M152.2,283.2l0.2,3.6l-1.5,0.1l-0.2-3.7l-4.6-6.6l1.6-0.1l3.7,5.3l3-5.7l1.5-0.1
					L152.2,283.2z"/>
				<path id="XMLID_128_" class="st4" d="M169,285.8l-2.4-3.1c-0.2,0-0.4,0.1-0.7,0.1l-2.6,0.2l0.2,3.2l-1.5,0.1l-0.7-10.5l4.1-0.3
					c2.7-0.2,4.4,1.1,4.6,3.4c0.1,1.6-0.7,2.8-2.1,3.5l2.7,3.4H169z M168.5,278.9c-0.1-1.5-1.1-2.3-3-2.2l-2.5,0.2l0.3,4.7l2.5-0.2
					C167.7,281.4,168.6,280.4,168.5,278.9z"/>
				<path id="XMLID_131_" class="st4" d="M180.3,283.8l0.1,1.3l-7.6,0.5l-0.7-10.5l7.3-0.5l0.1,1.3l-5.9,0.4l0.2,3.2l5.2-0.3
					l0.1,1.3l-5.2,0.3l0.2,3.4L180.3,283.8z"/>
				<path id="XMLID_133_" class="st4" d="M193.5,285.2c-0.6,0.8-1.5,1.3-2.5,1.4c-1.3,0.1-2.4-0.4-3.9-1.9c-3,0-5.3-2.1-5.5-5
					c-0.2-3.1,2-5.5,5.2-5.7s5.7,1.9,5.8,5c0.2,2.6-1.4,4.7-3.8,5.5c0.7,0.7,1.4,1,2.1,0.9c0.7,0,1.3-0.4,1.8-1L193.5,285.2z
					 M187.4,283.4c2.3-0.1,3.9-2,3.8-4.3c-0.1-2.3-2-3.9-4.3-3.8c-2.3,0.1-4,2-3.8,4.3C183.2,281.9,185,283.6,187.4,283.4z"/>
				<path id="XMLID_136_" class="st4" d="M194.9,279.6l-0.4-6l1.5-0.1l0.4,5.9c0.1,2.3,1.3,3.3,3.1,3.2c1.9-0.1,2.9-1.2,2.7-3.6
					l-0.4-5.9l1.4-0.1l0.4,6c0.2,3-1.4,4.8-4.1,4.9C196.8,284.2,195.1,282.7,194.9,279.6z"/>
				<path id="XMLID_138_" class="st4" d="M214.5,281.6l0.1,1.3l-7.6,0.5l-0.7-10.5l7.3-0.5l0.1,1.3l-5.9,0.4l0.2,3.2l5.2-0.3
					l0.1,1.3l-5.2,0.3l0.2,3.4L214.5,281.6z"/>
				<path id="XMLID_140_" class="st4" d="M215.9,281.7l0.5-1.2c0.8,0.7,2.2,1.1,3.5,1c1.8-0.1,2.5-0.9,2.5-1.8
					c-0.2-2.6-6.4-0.6-6.6-4.5c-0.1-1.6,1.1-3.1,3.8-3.2c1.2-0.1,2.5,0.2,3.4,0.7l-0.4,1.2c-0.9-0.5-2-0.7-2.9-0.7
					c-1.8,0.1-2.5,0.9-2.4,1.8c0.2,2.6,6.4,0.6,6.6,4.4c0.1,1.6-1.1,3.1-3.8,3.2C218.4,282.8,216.8,282.4,215.9,281.7z"/>
				<path id="XMLID_142_" class="st4" d="M227.5,272.9l-3.6,0.2l-0.1-1.3l8.6-0.5l0.1,1.3l-3.6,0.2l0.6,9.2l-1.5,0.1L227.5,272.9z"
					/>
				<path id="XMLID_144_" class="st4" d="M233.6,280.6l0.5-1.2c0.8,0.7,2.2,1.1,3.5,1c1.8-0.1,2.5-0.9,2.5-1.8
					c-0.2-2.6-6.4-0.6-6.6-4.5c-0.1-1.6,1.1-3.1,3.8-3.2c1.2-0.1,2.5,0.2,3.4,0.7l-0.4,1.2c-0.9-0.5-2-0.7-2.9-0.7
					c-1.8,0.1-2.5,0.9-2.4,1.8c0.2,2.6,6.4,0.6,6.6,4.4c0.1,1.6-1.1,3.1-3.8,3.2C236.1,281.7,234.5,281.3,233.6,280.6z"/>
			</g>
		</g>
		<g id="XMLID_146_">
			<g id="XMLID_147_">
				<path id="XMLID_148_" class="st6" d="M135.7,212.6l0.1,2.1l-8.7,0.4l-0.6-11.4l8.5-0.4l0.1,2.1l-5.9,0.3l0.1,2.5l5.2-0.3l0.1,2
					l-5.2,0.3l0.1,2.6L135.7,212.6z"/>
				<path id="XMLID_150_" class="st6" d="M145,214.2l-2.3-3.1h-0.1l-2.3,0.1l0.2,3.2l-2.6,0.1l-0.6-11.4l4.9-0.3
					c3-0.2,5,1.3,5.1,3.9c0.1,1.7-0.7,3-2.1,3.7l2.7,3.5L145,214.2z M142.1,205.1l-2.1,0.1l0.2,4l2.1-0.1c1.6-0.1,2.4-0.9,2.3-2.1
					C144.6,205.7,143.7,205,142.1,205.1z"/>
				<path id="XMLID_153_" class="st6" d="M156.9,213.6l-2.3-3.1h-0.1l-2.3,0.1l0.2,3.2l-2.6,0.1l-0.6-11.4l4.9-0.3
					c3-0.2,5,1.3,5.1,3.9c0.1,1.7-0.7,3-2.1,3.7l2.7,3.5L156.9,213.6z M154,204.5l-2.1,0.1l0.2,4l2.1-0.1c1.6-0.1,2.4-0.9,2.3-2.1
					C156.4,205.1,155.5,204.4,154,204.5z"/>
				<path id="XMLID_156_" class="st6" d="M160.5,207.7c-0.2-3.4,2.3-6,5.9-6.2c3.5-0.2,6.3,2.2,6.5,5.6c0.2,3.4-2.3,6-5.9,6.2
					C163.4,213.5,160.7,211.1,160.5,207.7z M170.2,207.2c-0.1-2.2-1.7-3.6-3.7-3.5c-2,0.1-3.4,1.7-3.3,3.8c0.1,2.2,1.7,3.6,3.7,3.5
					S170.3,209.4,170.2,207.2z"/>
				<path id="XMLID_159_" class="st6" d="M182.3,212.3l-2.3-3.1h-0.1l-2.3,0.1l0.2,3.2l-2.6,0.1l-0.6-11.4l4.9-0.3
					c3-0.2,5,1.3,5.1,3.9c0.1,1.7-0.7,3-2.1,3.7l2.7,3.5L182.3,212.3z M179.4,203.2l-2.1,0.1l0.2,4l2.1-0.1c1.6-0.1,2.4-0.9,2.3-2.1
					C181.8,203.8,181,203.1,179.4,203.2z"/>
			</g>
		</g>
		<g id="XMLID_162_" class="st1">
			<path id="XMLID_163_" class="st7" d="M136.8,257.8l-6.9,0.4l0.6,8.8l-12.7,0.8l-0.6-8.8l-24.4,1.5l-0.5-8.5l18.9-30.1l13.5-0.8
				l-17.1,28.2l9.4-0.6l-0.5-7.8l12.3-0.8l0.5,7.8l6.9-0.4L136.8,257.8z"/>
			<path id="XMLID_165_" class="st7" d="M174.9,253.9l0.6,10.4l-35.9,2.2l-0.5-8.2l16.3-17.2c3.5-3.7,3.9-5.8,3.8-7.7
				c-0.2-3-2.3-4.6-6.2-4.4c-3.4,0.2-6.3,1.9-8,5l-10-4.8c3.1-6,9.4-10.3,18.5-10.8c10.6-0.7,18.3,4.4,18.8,12.9
				c0.3,4.5-0.7,8.7-6.9,15.1l-8.2,8.6L174.9,253.9z"/>
			<path id="XMLID_167_" class="st7" d="M216.2,237.3c1,16.1-8.4,25.9-23,26.8c-5.1,0.3-10.2-0.6-13.7-2.5l4.2-9.7
				c2.8,1.7,5.7,2,8.7,1.8c6.5-0.4,10.7-4.4,10.9-11.4c-2.4,2.3-5.8,3.7-10.1,4c-8.7,0.5-16.3-4.7-16.8-13.6
				c-0.6-9.6,7.1-16.3,17.1-16.9C206.3,215.1,215.3,222.3,216.2,237.3z M201.6,230.5c-0.2-3.4-2.9-5.6-6.8-5.4
				c-3.7,0.2-6.1,2.6-5.9,6.3c0.2,3.6,2.9,5.6,6.7,5.4C199.3,236.6,201.8,234,201.6,230.5z"/>
		</g>
	</g>
	<g class="st8">
		<path class="st6" d="M131.5,256.3c3.5,2.5,5.4,6.1,5.8,10.7c0.2,3-0.3,5.8-1.6,8.3c-1.3,2.6-3.4,4.7-6.4,6.4
			c-2.9,1.7-6.7,2.7-11.1,3.1c-3.5,0.3-6.9,0.1-10.3-0.6s-6.4-1.7-8.8-3.2l3.8-9c2,1.3,4.2,2.2,6.7,2.8c2.5,0.6,5,0.8,7.6,0.6
			c2.8-0.2,5-1,6.6-2.2c1.5-1.3,2.2-2.9,2.1-4.9c-0.2-2.1-1.1-3.6-2.9-4.6c-1.8-0.9-4.8-1.2-9-0.9l-12.5,1l0.4-27.8l29.9-2.3
			l0.7,9.1l-20.5,1.6l0,9.4l4-0.3C122.8,252.8,128,253.8,131.5,256.3z"/>
		<path class="st6" d="M153.1,279.1c-3.3-1.8-6-4.5-8.1-8.1c-2.1-3.7-3.4-8.1-3.8-13.4c-0.4-5.3,0.1-9.9,1.6-13.8
			c1.5-3.9,3.8-7,6.8-9.3c3-2.3,6.6-3.5,10.6-3.9c4.1-0.3,7.8,0.4,11.1,2.2c3.3,1.8,6,4.5,8.1,8.1c2.1,3.7,3.4,8.1,3.8,13.4
			c0.4,5.3-0.1,9.9-1.6,13.8c-1.5,3.9-3.8,7.1-6.8,9.3c-3,2.3-6.6,3.5-10.6,3.9C160.1,281.6,156.4,280.8,153.1,279.1z M170.2,267.2
			c1.5-2.7,2-6.7,1.6-12.1c-0.4-5.4-1.6-9.3-3.5-11.7c-1.9-2.4-4.4-3.5-7.3-3.3c-2.9,0.2-5.2,1.7-6.7,4.4c-1.5,2.7-2,6.7-1.6,12.1
			c0.4,5.4,1.6,9.3,3.5,11.7c1.9,2.4,4.3,3.5,7.3,3.3C166.4,271.4,168.7,269.9,170.2,267.2z"/>
		<path class="st6" d="M200.7,275.3c-3.3-1.8-6-4.5-8.1-8.1c-2.1-3.7-3.4-8.1-3.8-13.4c-0.4-5.3,0.1-9.9,1.6-13.8
			c1.5-3.9,3.8-7,6.8-9.3c3-2.3,6.6-3.5,10.6-3.9c4.1-0.3,7.8,0.4,11.1,2.2s6,4.5,8.1,8.1c2.1,3.7,3.4,8.1,3.8,13.4
			c0.4,5.3-0.1,9.9-1.6,13.8c-1.5,3.9-3.8,7.1-6.8,9.3c-3,2.3-6.6,3.5-10.6,3.9C207.7,277.8,204,277.1,200.7,275.3z M217.8,263.5
			c1.5-2.7,2-6.7,1.6-12.1c-0.4-5.4-1.6-9.3-3.5-11.7c-1.9-2.4-4.4-3.5-7.3-3.3c-2.9,0.2-5.2,1.7-6.7,4.4c-1.5,2.7-2,6.7-1.6,12.1
			c0.4,5.4,1.6,9.3,3.5,11.7c1.9,2.4,4.3,3.5,7.3,3.3C214,267.7,216.2,266.2,217.8,263.5z"/>
	</g>
	<text id="XMLID_899_" transform="matrix(0.999 -4.472920e-002 4.472920e-002 0.999 92.0893 295.4043)" class="st9 st10 st11">System Error</text>
</g>
<g id="Server">
	<g>
		<g id="XMLID_171_">
			<g id="XMLID_172_">
				<g id="XMLID_173_">
					<g id="XMLID_174_">
						<path class="st12" d="M30.5,409c0.2,0,0.6,3,2.2,6.5s3.6,5.8,3.4,5.9c0,0-0.6-0.5-1.4-1.5s-1.7-2.5-2.5-4.2
							c-0.8-1.8-1.3-3.4-1.5-4.7C30.5,409.8,30.5,409,30.5,409z"/>
					</g>
				</g>
			</g>
			<g id="XMLID_175_">
				<g id="XMLID_176_">
					<g id="XMLID_177_">
						<path class="st12" d="M28.6,409.4c0.1,0,1,3.1,2.9,6.5c1.9,3.5,4.1,5.8,4,5.9c0,0-0.7-0.5-1.5-1.5c-0.9-1-1.9-2.4-2.9-4.2
							c-1-1.7-1.6-3.4-2-4.7C28.7,410.2,28.5,409.4,28.6,409.4z"/>
					</g>
				</g>
			</g>
			<g id="XMLID_178_">
				<g id="XMLID_179_">
					<g id="XMLID_180_">
						<path class="st12" d="M33.3,411.3c0.1,0,0.2,2,0.9,4.4c0.7,2.4,1.7,4.2,1.6,4.2c-0.1,0.1-1.4-1.6-2.1-4.1
							C33,413.4,33.2,411.3,33.3,411.3z"/>
					</g>
				</g>
			</g>
			<g id="XMLID_181_">
				<g id="XMLID_182_">
					<g id="XMLID_183_">
						<g id="XMLID_184_">
							<path class="st12" d="M46,487.2c0.1,0,0.6,2.4,2.2,5s3.5,4.1,3.4,4.2c0,0.1-2.2-1.3-3.8-4C46.2,489.7,45.9,487.2,46,487.2z"
								/>
						</g>
					</g>
				</g>
				<g id="XMLID_185_">
					<g id="XMLID_186_">
						<g id="XMLID_187_">
							<path class="st12" d="M44.9,487.4c0.1,0,0.9,2.2,1.9,5s2,5,1.8,5.1c-0.1,0.1-1.2-2.1-2.3-4.9
								C45.3,489.8,44.7,487.5,44.9,487.4z"/>
						</g>
					</g>
				</g>
				<g id="XMLID_188_">
					<g id="XMLID_189_">
						<path class="st4" d="M67.8,458.9l-1.2,4.5c-2.6-0.7-5.5-0.2-7.8,1.2c-0.9,0.6-1.8,1.3-2.4,2.2c2.9,0.5,5.5,2.3,6.6,4.9
							c0.8,1.9,0.7,4.2-0.4,6.1c-1,1.8-2.5,3-4.4,3.4c-2.8,0.5-5.8-0.9-7.4-3.6c-0.6-1-1-2.1-1.2-3.4c-0.1,0.1-0.2,0.2-0.3,0.3
							c-3,3.9-3.1,9.9-0.4,13.9l-3.8,2.6c-3.9-5.7-3.7-13.9,0.5-19.4c1.4-1.8,3-3.1,4.8-4c1.2-2.9,3.2-5.4,5.8-7
							C59.7,458.6,64,457.9,67.8,458.9z M54.2,472.7c0,1,0.2,1.9,0.6,2.6c0.6,1,1.7,1.6,2.5,1.4c0.7-0.1,1-0.7,1.2-1
							c0.4-0.7,0.4-1.6,0.2-2.2c-0.6-1.4-2.4-2.3-4.2-2.1c-0.1,0-0.1,0-0.2,0C54.2,471.8,54.2,472.3,54.2,472.7z"/>
					</g>
				</g>
			</g>
			<g id="XMLID_190_">
				<g id="XMLID_191_">
					<g id="XMLID_192_">
						<path class="st4" d="M68.6,432.9c-12.9,1.6-28.1-2.6-35.4-13l2-2.5c0,0,7.7,12.9,33.5,11.9"/>
					</g>
				</g>
				<g id="XMLID_193_">
					<g id="XMLID_194_">
						<g id="XMLID_195_">
							
								<ellipse id="XMLID_196_" transform="matrix(-0.7365 -0.6765 0.6765 -0.7365 -220.8725 758.458)" class="st12" cx="37.3" cy="422.3" rx="0.1" ry="1.7"/>
						</g>
					</g>
					<g id="XMLID_197_">
						<g id="XMLID_198_">
							
								<ellipse id="XMLID_199_" transform="matrix(-0.7837 -0.6211 0.6211 -0.7837 -191.7116 782.6456)" class="st12" cx="40.4" cy="424.7" rx="0.1" ry="1.7"/>
						</g>
					</g>
					<g id="XMLID_200_">
						<g id="XMLID_201_">
							<path id="XMLID_202_" class="st12" d="M45.1,425.2c0.1,0-0.3,0.8-0.8,1.6c-0.5,0.9-1,1.5-1.1,1.4c0,0,0.4-0.7,0.9-1.6
								C44.7,425.9,45.1,425.2,45.1,425.2z"/>
						</g>
					</g>
					<g id="XMLID_203_">
						<g id="XMLID_204_">
							<path id="XMLID_205_" class="st12" d="M47,430.2c-0.1,0,0.3-0.8,0.7-1.8c0.4-1,0.8-1.7,0.9-1.7s-0.3,0.8-0.7,1.8
								C47.5,429.5,47.1,430.2,47,430.2z"/>
						</g>
					</g>
					<g id="XMLID_206_">
						<g id="XMLID_207_">
							<path id="XMLID_208_" class="st12" d="M51,431.4c-0.1,0,0.2-0.8,0.6-1.8s0.7-1.7,0.8-1.7c0.1,0-0.2,0.8-0.6,1.8
								C51.4,430.6,51,431.4,51,431.4z"/>
						</g>
					</g>
					<g id="XMLID_209_">
						<g id="XMLID_210_">
							
								<ellipse id="XMLID_211_" transform="matrix(0.9722 0.2341 -0.2341 0.9722 102.2861 -0.9656)" class="st12" cx="55.2" cy="430.4" rx="0.1" ry="1.9"/>
						</g>
					</g>
					<g id="XMLID_212_">
						<g id="XMLID_213_">
							
								<ellipse id="XMLID_214_" transform="matrix(0.9856 0.169 -0.169 0.9856 73.6798 -3.7635)" class="st12" cx="58.9" cy="431" rx="0.1" ry="1.9"/>
						</g>
					</g>
					<g id="XMLID_215_">
						<g id="XMLID_216_">
							<path id="XMLID_217_" class="st12" d="M62.1,433c-0.1,0,0.1-0.8,0.2-1.8s0.2-1.8,0.2-1.8c0.1,0,0.1,0.8,0,1.8
								C62.4,432.2,62.2,433,62.1,433z"/>
						</g>
					</g>
				</g>
			</g>
			<g id="XMLID_218_">
				<g id="XMLID_219_">
					
						<ellipse id="XMLID_220_" transform="matrix(-0.3702 -0.9289 0.9289 -0.3702 -389.9484 709.991)" class="st12" cx="45.7" cy="487.2" rx="0.1" ry="2.3"/>
				</g>
			</g>
			<g id="XMLID_221_">
				<g id="XMLID_222_">
					
						<ellipse id="XMLID_223_" transform="matrix(-0.1749 -0.9846 0.9846 -0.1749 -423.68 612.7399)" class="st12" cx="44.9" cy="483.9" rx="0.1" ry="2.3"/>
				</g>
			</g>
			<g id="XMLID_224_">
				<g id="XMLID_225_">
					<path id="XMLID_226_" class="st12" d="M47.2,480.5c0,0.1-1,0.1-2.3,0c-1.3,0-2.3-0.1-2.3-0.2s1-0.1,2.3,0
						C46.1,480.3,47.2,480.4,47.2,480.5z"/>
				</g>
			</g>
			<g id="XMLID_227_">
				<g id="XMLID_228_">
					<path id="XMLID_229_" class="st12" d="M47.6,477.8c0,0.1-0.9-0.3-2.1-0.8c-1.1-0.5-2-0.9-2-1s0.9,0.3,2.1,0.8
						C46.7,477.3,47.6,477.8,47.6,477.8z"/>
				</g>
			</g>
			<g id="XMLID_230_">
				<g id="XMLID_231_">
					<path id="XMLID_232_" class="st12" d="M49.1,474.4c0,0-0.9-0.4-1.7-1.1c-0.9-0.7-1.4-1.5-1.4-1.5s0.7,0.6,1.5,1.4
						C48.4,473.8,49.2,474.3,49.1,474.4z"/>
				</g>
			</g>
			<g id="XMLID_233_">
				<g id="XMLID_234_">
					<path id="XMLID_235_" class="st12" d="M49.7,474.8c0,0-0.1-0.4-0.1-1s0-1.5,0.1-2.5s0.3-1.8,0.5-2.5c0.2-0.6,0.3-1,0.3-1
						s-0.1,0.4-0.2,1s-0.3,1.5-0.4,2.4c-0.1,1-0.2,1.8-0.2,2.5C49.8,474.4,49.8,474.8,49.7,474.8z"/>
				</g>
			</g>
			<g id="XMLID_236_">
				<g id="XMLID_237_">
					<path id="XMLID_238_" class="st12" d="M56.9,466.4c0.1,0-1,1-1.7,2.5c-0.8,1.5-0.9,2.9-1,2.8c0,0,0-0.3,0.1-0.9
						c0.1-0.5,0.3-1.3,0.7-2c0.4-0.8,0.8-1.4,1.2-1.8C56.6,466.6,56.9,466.3,56.9,466.4z"/>
				</g>
			</g>
			<g id="XMLID_239_">
				<g id="XMLID_240_">
					
						<ellipse id="XMLID_241_" transform="matrix(0.8904 -0.4552 0.4552 0.8904 -208.3531 74.0076)" class="st12" cx="49.5" cy="469.6" rx="0.1" ry="0.9"/>
				</g>
			</g>
			<g id="XMLID_242_">
				<g id="XMLID_243_">
					<path id="XMLID_244_" class="st12" d="M54.7,475.3c0,0.1-1,0.3-2.1,0.8s-1.9,1.1-2,1.1c0,0,0.7-0.7,1.9-1.2
						C53.7,475.3,54.7,475.2,54.7,475.3z"/>
				</g>
			</g>
			<g id="XMLID_245_">
				<g id="XMLID_246_">
					
						<ellipse id="XMLID_247_" transform="matrix(0.8741 0.4858 -0.4858 0.8741 239.3804 33.5778)" class="st12" cx="54.9" cy="478.5" rx="0.1" ry="2.3"/>
				</g>
			</g>
			<g id="XMLID_248_">
				<g id="XMLID_249_">
					<path id="XMLID_250_" class="st12" d="M58.7,481c-0.1,0-0.2-1-0.5-2.2s-0.5-2.2-0.5-2.2c0.1,0,0.4,1,0.7,2.2
						C58.7,479.9,58.8,481,58.7,481z"/>
				</g>
			</g>
			<g id="XMLID_251_">
				<g id="XMLID_252_">
					
						<ellipse id="XMLID_253_" transform="matrix(0.329 -0.9443 0.9443 0.329 -408.2876 376.7938)" class="st12" cx="61" cy="475.7" rx="0.1" ry="2.2"/>
				</g>
			</g>
			<g id="XMLID_254_">
				<g id="XMLID_255_">
					<path id="XMLID_256_" class="st12" d="M62.8,471.3c0,0.1-1,0.3-2.2,0.8s-2.1,0.9-2.1,0.9s0.9-0.6,2.1-1.1
						C61.8,471.5,62.8,471.3,62.8,471.3z"/>
				</g>
			</g>
			<g id="XMLID_257_">
				<g id="XMLID_258_">
					<path id="XMLID_259_" class="st12" d="M58.5,467.3c0.1,0-0.5,0.9-1,2.1s-0.9,2.2-0.9,2.1c-0.1,0,0.2-1,0.7-2.2
						C57.8,468.1,58.4,467.3,58.5,467.3z"/>
				</g>
			</g>
			<g id="XMLID_260_">
				<g id="XMLID_261_">
					<path id="XMLID_262_" class="st12" d="M54,471.7c0,0.1-0.9,0.1-2,0.2s-2,0.3-2,0.3c0-0.1,0.9-0.3,2-0.5
						C53.1,471.6,54,471.7,54,471.7z"/>
				</g>
			</g>
			<g id="XMLID_263_">
				<g id="XMLID_264_">
					<path id="XMLID_265_" class="st12" d="M55.2,468.3c0,0.1-1-0.2-2.2-0.3c-1.2-0.1-2.3-0.1-2.3-0.1c0-0.1,1-0.2,2.3-0.1
						C54.2,467.9,55.2,468.2,55.2,468.3z"/>
				</g>
			</g>
			<g id="XMLID_266_">
				<g id="XMLID_267_">
					<path id="XMLID_268_" class="st12" d="M58.1,465.2c0,0.1-1-0.5-2.4-1c-1.3-0.5-2.5-0.6-2.5-0.7c0,0,0.3,0,0.8,0
						c0.5,0.1,1.1,0.2,1.8,0.4c0.7,0.2,1.3,0.5,1.7,0.7C57.9,465,58.1,465.2,58.1,465.2z"/>
				</g>
			</g>
			<g id="XMLID_269_">
				<g id="XMLID_270_">
					<path id="XMLID_271_" class="st12" d="M60.5,463.8c-0.1,0-0.4-1-1-2.1s-1.3-1.9-1.3-1.9s0.8,0.7,1.4,1.8
						C60.3,462.8,60.5,463.8,60.5,463.8z"/>
				</g>
			</g>
			<g id="XMLID_272_">
				<g id="XMLID_273_">
					<path id="XMLID_274_" class="st12" d="M63.7,458.5c0,0,0.6,0.9,0.7,2.2c0.1,1.3-0.1,2.4-0.2,2.3c-0.1,0,0.1-1,0-2.3
						C64,459.5,63.6,458.5,63.7,458.5z"/>
				</g>
			</g>
		</g>
		<g id="XMLID_275_">
			<g id="XMLID_276_">
				<g id="XMLID_277_">
					<g id="XMLID_278_">
						<g id="XMLID_279_">
							<path class="st12" d="M339.6,416.4c-0.1,0-0.6-2.4-2.2-5s-3.5-4.1-3.4-4.2c0-0.1,2.2,1.3,3.8,4
								C339.4,413.9,339.7,416.4,339.6,416.4z"/>
						</g>
					</g>
				</g>
				<g id="XMLID_280_">
					<g id="XMLID_281_">
						<g id="XMLID_282_">
							<path class="st12" d="M340.8,416.2c-0.1,0-0.9-2.2-1.9-5s-2-5-1.8-5.1c0.1-0.1,1.2,2.1,2.3,4.9
								C340.3,413.8,340.9,416.1,340.8,416.2z"/>
						</g>
					</g>
				</g>
				<g id="XMLID_283_">
					<g id="XMLID_284_">
						<path class="st4" d="M317.8,444.7l1.2-4.5c2.6,0.7,5.5,0.2,7.8-1.2c0.9-0.6,1.8-1.3,2.4-2.2c-2.9-0.5-5.5-2.3-6.6-4.9
							c-0.8-1.9-0.7-4.2,0.4-6.1c1-1.8,2.5-3,4.4-3.4c2.8-0.5,5.8,0.9,7.4,3.6c0.6,1,1,2.1,1.2,3.4c0.1-0.1,0.2-0.2,0.3-0.3
							c3-3.9,3.1-9.9,0.4-13.9l3.8-2.6c3.9,5.7,3.7,13.9-0.5,19.3c-1.4,1.8-3,3.1-4.8,4c-1.2,2.9-3.2,5.4-5.8,7.1
							C325.9,445,321.6,445.6,317.8,444.7z M331.4,430.9c0-1-0.2-1.9-0.6-2.6c-0.6-1-1.7-1.6-2.5-1.4c-0.7,0.1-1,0.7-1.2,1
							c-0.4,0.7-0.4,1.6-0.2,2.2c0.6,1.4,2.4,2.3,4.2,2.1c0.1,0,0.1,0,0.2,0C331.4,431.8,331.4,431.3,331.4,430.9z"/>
					</g>
				</g>
			</g>
			<g id="XMLID_285_">
				<g id="XMLID_286_">
					
						<ellipse id="XMLID_287_" transform="matrix(0.3702 0.9289 -0.9289 0.3702 600.9276 -53.5856)" class="st12" cx="340" cy="416.4" rx="0.1" ry="2.3"/>
				</g>
			</g>
			<g id="XMLID_288_">
				<g id="XMLID_289_">
					
						<ellipse id="XMLID_290_" transform="matrix(0.1749 0.9846 -0.9846 0.1749 694.3202 10.7107)" class="st12" cx="340.8" cy="419.6" rx="0.1" ry="2.3"/>
				</g>
			</g>
			<g id="XMLID_291_">
				<g id="XMLID_292_">
					<path id="XMLID_293_" class="st12" d="M338.4,423.1c0-0.1,1-0.1,2.3,0c1.3,0,2.3,0.1,2.3,0.2s-1,0.1-2.3,0
						C339.5,423.3,338.4,423.2,338.4,423.1z"/>
				</g>
			</g>
			<g id="XMLID_294_">
				<g id="XMLID_295_">
					<path id="XMLID_296_" class="st12" d="M338,425.8c0-0.1,0.9,0.3,2.1,0.8c1.1,0.5,2,0.9,2,1s-0.9-0.3-2.1-0.8
						C338.9,426.3,338,425.8,338,425.8z"/>
				</g>
			</g>
			<g id="XMLID_297_">
				<g id="XMLID_298_">
					<path id="XMLID_299_" class="st12" d="M336.5,429.2c0,0,0.9,0.4,1.7,1.1c0.9,0.7,1.4,1.5,1.4,1.5s-0.7-0.6-1.5-1.4
						C337.2,429.7,336.5,429.2,336.5,429.2z"/>
				</g>
			</g>
			<g id="XMLID_300_">
				<g id="XMLID_301_">
					<path id="XMLID_302_" class="st12" d="M335.9,428.7c0,0,0.1,0.4,0.1,1s0,1.5-0.1,2.5s-0.3,1.8-0.5,2.5c-0.2,0.6-0.3,1-0.3,1
						s0.1-0.4,0.2-1s0.3-1.5,0.4-2.4c0.1-1,0.2-1.8,0.2-2.5C335.8,429.1,335.8,428.7,335.9,428.7z"/>
				</g>
			</g>
			<g id="XMLID_303_">
				<g id="XMLID_304_">
					<path id="XMLID_305_" class="st12" d="M328.7,437.2c-0.1,0,1-1,1.7-2.5c0.8-1.5,0.9-2.9,1-2.8c0,0,0,0.3-0.1,0.9
						c-0.1,0.5-0.3,1.3-0.7,2c-0.4,0.8-0.8,1.4-1.2,1.8C329,437,328.7,437.2,328.7,437.2z"/>
				</g>
			</g>
			<g id="XMLID_306_">
				<g id="XMLID_307_">
					
						<ellipse id="XMLID_308_" transform="matrix(-0.8904 0.4552 -0.4552 -0.8904 833.0665 667.4034)" class="st12" cx="336.2" cy="434" rx="0.1" ry="0.9"/>
				</g>
			</g>
			<g id="XMLID_309_">
				<g id="XMLID_310_">
					<path id="XMLID_311_" class="st12" d="M330.9,428.3c0-0.1,1-0.3,2.1-0.8s1.9-1.1,2-1.1c0,0-0.7,0.7-1.9,1.2
						C331.9,428.2,330.9,428.4,330.9,428.3z"/>
				</g>
			</g>
			<g id="XMLID_312_">
				<g id="XMLID_313_">
					
						<ellipse id="XMLID_314_" transform="matrix(-0.8741 -0.4858 0.4858 -0.8741 413.2538 957.2216)" class="st12" cx="330.7" cy="425.1" rx="0.1" ry="2.3"/>
				</g>
			</g>
			<g id="XMLID_315_">
				<g id="XMLID_316_">
					<path id="XMLID_317_" class="st12" d="M326.9,422.6c0.1,0,0.2,1,0.5,2.2s0.5,2.2,0.5,2.2c-0.1,0-0.4-1-0.7-2.2
						C326.9,423.6,326.9,422.6,326.9,422.6z"/>
				</g>
			</g>
			<g id="XMLID_318_">
				<g id="XMLID_319_">
					
						<ellipse id="XMLID_320_" transform="matrix(-0.329 0.9443 -0.9443 -0.329 835.5659 261.9495)" class="st12" cx="324.7" cy="427.8" rx="0.1" ry="2.2"/>
				</g>
			</g>
			<g id="XMLID_321_">
				<g id="XMLID_322_">
					<path id="XMLID_323_" class="st12" d="M322.8,432.3c0-0.1,1-0.3,2.2-0.8s2.1-0.9,2.1-0.9s-0.9,0.6-2.1,1.1
						C323.9,432.1,322.8,432.3,322.8,432.3z"/>
				</g>
			</g>
			<g id="XMLID_324_">
				<g id="XMLID_325_">
					<path id="XMLID_326_" class="st12" d="M327.1,436.3c-0.1,0,0.5-0.9,1-2.1s0.9-2.2,0.9-2.1c0.1,0-0.2,1-0.7,2.2
						C327.8,435.4,327.2,436.3,327.1,436.3z"/>
				</g>
			</g>
			<g id="XMLID_327_">
				<g id="XMLID_328_">
					<path id="XMLID_329_" class="st12" d="M331.6,431.9c0-0.1,0.9-0.1,2-0.2s2-0.3,2-0.3c0,0.1-0.9,0.3-2,0.5
						C332.5,432,331.6,431.9,331.6,431.9z"/>
				</g>
			</g>
			<g id="XMLID_330_">
				<g id="XMLID_331_">
					<path id="XMLID_332_" class="st12" d="M330.4,435.3c0-0.1,1,0.2,2.2,0.3c1.2,0.1,2.3,0.1,2.3,0.1c0,0.1-1,0.2-2.3,0.1
						C331.4,435.7,330.4,435.4,330.4,435.3z"/>
				</g>
			</g>
			<g id="XMLID_333_">
				<g id="XMLID_334_">
					<path id="XMLID_335_" class="st12" d="M327.5,438.3c0-0.1,1,0.5,2.4,1c1.3,0.5,2.5,0.6,2.5,0.7c0,0-0.3,0-0.8,0
						c-0.5-0.1-1.1-0.2-1.8-0.4c-0.7-0.2-1.3-0.5-1.7-0.7C327.7,438.5,327.5,438.4,327.5,438.3z"/>
				</g>
			</g>
			<g id="XMLID_336_">
				<g id="XMLID_337_">
					<path id="XMLID_338_" class="st12" d="M325.1,439.8c0.1,0,0.4,1,1,2.1s1.3,1.9,1.3,1.9s-0.8-0.7-1.4-1.8
						C325.3,440.8,325.1,439.8,325.1,439.8z"/>
				</g>
			</g>
			<g id="XMLID_339_">
				<g id="XMLID_340_">
					<path id="XMLID_341_" class="st12" d="M321.9,445.1c0,0-0.6-0.9-0.7-2.2c-0.1-1.3,0.1-2.4,0.2-2.3c0.1,0-0.1,1,0,2.3
						C321.6,444.1,322,445.1,321.9,445.1z"/>
				</g>
			</g>
		</g>
		<g id="XMLID_342_">
			<g>
				<g id="XMLID_344_">
					<g id="XMLID_345_">
						
							<rect x="334.6" y="366" transform="matrix(0.8037 -0.5951 0.5951 0.8037 -152.5859 275.3496)" class="st0" width="12.8" height="5.8"/>
					</g>
				</g>
				<g id="XMLID_346_">
					<g id="XMLID_347_">
						<g id="XMLID_348_">
							<path class="st4" d="M334.1,370.4c0,0,0.4,0.5,1.1,1.2c0.6,0.8,1.5,1.9,2.6,3.3h-0.3c2.6-2,6.2-4.7,10.2-7.7
								c0.1-0.4-0.1,0.5-0.1,0.4l0,0l0,0l0,0l0,0l0,0l0,0l-0.1-0.1l-0.1-0.2l-0.2-0.3l-0.4-0.6c-0.3-0.4-0.6-0.8-0.9-1.2
								c-0.6-0.8-1.1-1.5-1.7-2.3l0.4,0.1c-3,2.2-5.5,4-7.4,5.3c-0.9,0.6-1.6,1.1-2.2,1.5C334.5,370.2,334.2,370.4,334.1,370.4
								c0,0,0.2-0.2,0.7-0.6c0.6-0.5,1.3-1,2.1-1.6c1.8-1.4,4.3-3.4,7.4-5.6l0.2-0.2l0.2,0.2c0.5,0.7,1.1,1.5,1.7,2.2
								c0.3,0.4,0.6,0.8,0.9,1.2l0.4,0.6l0.2,0.3l0.1,0.2l0.1,0.1l0,0l0,0l0,0l0,0l0,0l0,0c0-0.1-0.1,0.8-0.1,0.4
								c-4,3-7.6,5.6-10.3,7.5l-0.2,0.1l-0.1-0.2c-1.1-1.5-1.9-2.7-2.5-3.5C334.4,370.8,334.1,370.4,334.1,370.4z"/>
						</g>
					</g>
				</g>
			</g>
			<g>
				<g id="XMLID_349_">
					<g id="XMLID_350_">
						<path class="st0" d="M350.3,361.8c-1.8-2.4-5.1-2.9-7.5-1.1l6.4,8.6C351.6,367.5,352.1,364.1,350.3,361.8z"/>
					</g>
				</g>
				<g id="XMLID_351_">
					<g id="XMLID_352_">
						<g id="XMLID_353_">
							<path class="st4" d="M350.3,361.8c0,0,0.2,0.1,0.4,0.5c0.2,0.3,0.5,0.9,0.7,1.6c0.2,0.7,0.2,1.7-0.1,2.7
								c-0.3,1-0.9,2.1-2,2.9l-0.2,0.2l-0.2-0.2c-1-1.3-2.1-2.8-3.2-4.3s-2.2-3-3.2-4.3l-0.2-0.2l0.2-0.2c1.1-0.8,2.3-1.1,3.3-1.1
								c1.1,0,2,0.3,2.6,0.7c0.7,0.4,1.1,0.8,1.3,1.1C350.2,361.6,350.3,361.7,350.3,361.8c-0.1,0.1-0.6-0.7-1.8-1.4
								c-0.6-0.3-1.5-0.6-2.5-0.5c-1,0-2.1,0.3-3,1l0.1-0.4c1,1.3,2.1,2.8,3.2,4.3s2.2,3,3.2,4.3L349,369c0.9-0.7,1.6-1.6,1.9-2.6
								c0.3-0.9,0.3-1.8,0.2-2.5C350.8,362.5,350.2,361.8,350.3,361.8z"/>
						</g>
					</g>
				</g>
			</g>
			<g>
				<g id="XMLID_354_">
					<g id="XMLID_355_">
						<path class="st0" d="M349,364.5c0.9-0.9,1.2-2.4,0.7-3.5"/>
					</g>
				</g>
				<g id="XMLID_356_">
					<g id="XMLID_357_">
						<g id="XMLID_358_">
							<path class="st4" d="M349.7,361c0.1-0.1,0.7,0.8,0.5,1.9c-0.2,1.2-1.1,1.7-1.2,1.6c-0.1-0.1,0.4-0.8,0.5-1.7
								C349.7,361.9,349.5,361.1,349.7,361z"/>
						</g>
					</g>
				</g>
			</g>
			<g id="XMLID_343_">
				<g id="XMLID_359_">
					<g id="XMLID_360_">
						<path class="st4" d="M342.7,363.7c0.2-0.1,0.9,1,1.9,2.3s1.9,2.3,1.8,2.5c-0.1,0.1-1.2-0.7-2.3-2.1
							C343.1,365.1,342.6,363.8,342.7,363.7z"/>
					</g>
				</g>
			</g>
			<g id="XMLID_361_">
				<g id="XMLID_362_">
					<g id="XMLID_363_">
						<path class="st4" d="M341.5,364.6c0.2-0.1,0.9,1,1.9,2.3c1,1.3,1.9,2.3,1.8,2.5c-0.1,0.1-1.2-0.7-2.3-2.1
							C341.9,366,341.4,364.7,341.5,364.6z"/>
					</g>
				</g>
			</g>
			<g id="XMLID_364_">
				<g id="XMLID_365_">
					<g id="XMLID_366_">
						<path class="st4" d="M340.3,365.5c0.2-0.1,0.9,1,1.9,2.3c1,1.3,1.9,2.3,1.8,2.5c-0.1,0.1-1.2-0.7-2.3-2.1
							C340.7,366.9,340.2,365.6,340.3,365.5z"/>
					</g>
				</g>
			</g>
			<g id="XMLID_367_">
				<g id="XMLID_368_">
					<g id="XMLID_369_">
						<path class="st4" d="M339.1,366.4c0.2-0.1,0.9,1,1.9,2.3c1,1.3,1.9,2.3,1.8,2.5c-0.1,0.1-1.2-0.7-2.3-2.1
							C339.5,367.8,339,366.5,339.1,366.4z"/>
					</g>
				</g>
			</g>
			<g id="XMLID_370_">
				<g id="XMLID_371_">
					<g id="XMLID_372_">
						<path class="st4" d="M337.9,367.3c0.2-0.1,0.9,1,1.9,2.3s1.9,2.3,1.8,2.5c-0.1,0.1-1.2-0.7-2.3-2.1
							C338.3,368.7,337.7,367.4,337.9,367.3z"/>
					</g>
				</g>
			</g>
			<g id="XMLID_373_">
				<g id="XMLID_374_">
					<g id="XMLID_375_">
						<path class="st4" d="M336.7,368.2c0.2-0.1,0.9,1,1.9,2.3s1.9,2.3,1.8,2.5c-0.1,0.1-1.2-0.7-2.3-2.1
							C337.1,369.6,336.5,368.3,336.7,368.2z"/>
					</g>
				</g>
			</g>
			<g id="XMLID_376_">
				<g id="XMLID_377_">
					<g id="XMLID_378_">
						<path class="st4" d="M335.5,369.1c0.2-0.1,0.9,1,1.9,2.3c1,1.3,1.9,2.3,1.8,2.5c-0.1,0.1-1.2-0.7-2.3-2.1
							C335.9,370.5,335.3,369.2,335.5,369.1z"/>
					</g>
				</g>
			</g>
		</g>
		<g id="XMLID_379_">
			<g>
				<g id="XMLID_381_">
					<g id="XMLID_382_">
						
							<rect x="10.4" y="461.8" transform="matrix(-0.7048 0.7094 -0.7094 -0.7048 358.3397 780.3011)" class="st0" width="12.8" height="5.8"/>
					</g>
				</g>
				<g id="XMLID_383_">
					<g id="XMLID_384_">
						<g id="XMLID_385_">
							<path class="st4" d="M23.4,462.2c0,0-0.5-0.4-1.2-1.1s-1.8-1.6-3-2.8h0.3c-2.3,2.4-5.5,5.6-9,9.1c0,0.4,0-0.5,0-0.5l0,0l0,0
								l0,0l0,0l0,0l0,0l0.1,0.1l0.1,0.1l0.3,0.3l0.5,0.5c0.4,0.4,0.7,0.7,1,1c0.7,0.7,1.3,1.3,2,2h-0.4c2.6-2.6,4.9-4.8,6.5-6.3
								c0.8-0.7,1.4-1.3,2-1.8C23.1,462.4,23.4,462.2,23.4,462.2s-0.2,0.2-0.6,0.7c-0.5,0.5-1.1,1.2-1.8,1.9c-1.5,1.6-3.8,4-6.4,6.7
								l-0.2,0.2l-0.2-0.2c-0.6-0.6-1.3-1.3-2-2c-0.3-0.3-0.7-0.7-1-1l-0.5-0.5l-0.3-0.3l-0.1-0.1l-0.1-0.1l0,0l0,0l0,0l0,0l0,0l0,0
								c0,0.1,0-0.9,0-0.5c3.5-3.5,6.7-6.7,9.1-9l0.2-0.2l0.2,0.2c1.3,1.3,2.3,2.4,3,3.1C23.1,461.8,23.4,462.2,23.4,462.2z"/>
						</g>
					</g>
				</g>
			</g>
			<g>
				<g id="XMLID_386_">
					<g id="XMLID_387_">
						<path class="st0" d="M8.7,473.2c2.1,2.1,5.5,2.1,7.5,0l-7.6-7.5C6.6,467.7,6.6,471.1,8.7,473.2z"/>
					</g>
				</g>
				<g id="XMLID_388_">
					<g id="XMLID_389_">
						<g id="XMLID_390_">
							<path class="st4" d="M8.7,473.2c0,0-0.2-0.1-0.5-0.4s-0.6-0.8-0.9-1.5c-0.3-0.7-0.5-1.6-0.3-2.7c0.1-1.1,0.6-2.2,1.5-3.2
								l0.2-0.2l0.2,0.2c1.2,1.2,2.5,2.4,3.8,3.7c1.3,1.3,2.6,2.6,3.8,3.8l0.2,0.2l-0.2,0.2c-0.9,0.9-2.1,1.4-3.1,1.5
								c-1.1,0.2-2,0-2.7-0.3s-1.2-0.7-1.5-0.9C8.8,473.4,8.7,473.2,8.7,473.2c0.1-0.1,0.7,0.6,2,1.1c0.7,0.2,1.6,0.3,2.5,0.2
								c1-0.2,2-0.6,2.8-1.5v0.4c-1.2-1.2-2.5-2.4-3.8-3.7c-1.3-1.3-2.6-2.6-3.8-3.8h0.4c-0.8,0.8-1.3,1.8-1.5,2.8s0,1.8,0.2,2.5
								C8.1,472.5,8.8,473.1,8.7,473.2z"/>
						</g>
					</g>
				</g>
			</g>
			<g>
				<g id="XMLID_391_">
					<g id="XMLID_392_">
						<path class="st0" d="M9.6,470.2c-0.7,1-0.8,2.5-0.1,3.6"/>
					</g>
				</g>
				<g id="XMLID_393_">
					<g id="XMLID_394_">
						<g id="XMLID_395_">
							<path class="st4" d="M9.5,473.8c-0.1,0.1-0.8-0.6-0.8-1.8c0-1.2,0.8-1.9,0.9-1.8S9.4,471,9.3,472
								C9.3,473,9.6,473.7,9.5,473.8z"/>
						</g>
					</g>
				</g>
			</g>
			<g id="XMLID_380_">
				<g id="XMLID_396_">
					<g id="XMLID_397_">
						<path class="st4" d="M15.9,470.1c-0.1,0.1-1.1-0.9-2.3-2c-1.2-1.1-2.2-2-2.1-2.2c0.1-0.1,1.3,0.5,2.6,1.7
							C15.3,468.8,16,470,15.9,470.1z"/>
					</g>
				</g>
			</g>
			<g id="XMLID_398_">
				<g id="XMLID_399_">
					<g id="XMLID_400_">
						<path class="st4" d="M17,469c-0.1,0.1-1.1-0.9-2.3-2c-1.2-1.1-2.2-2-2.1-2.2c0.1-0.1,1.3,0.5,2.6,1.7
							C16.4,467.7,17.1,468.9,17,469z"/>
					</g>
				</g>
			</g>
			<g id="XMLID_401_">
				<g id="XMLID_402_">
					<g id="XMLID_403_">
						<path class="st4" d="M18,468c-0.1,0.1-1.1-0.9-2.3-2c-1.2-1.1-2.2-2-2.1-2.2c0.1-0.1,1.3,0.5,2.6,1.7
							C17.4,466.7,18.2,467.9,18,468z"/>
					</g>
				</g>
			</g>
			<g id="XMLID_404_">
				<g id="XMLID_405_">
					<g id="XMLID_406_">
						<path class="st4" d="M19.1,466.9c-0.1,0.1-1.1-0.9-2.3-2c-1.2-1.1-2.2-2-2.1-2.2c0.1-0.1,1.3,0.5,2.6,1.7
							C18.5,465.6,19.2,466.8,19.1,466.9z"/>
					</g>
				</g>
			</g>
			<g id="XMLID_407_">
				<g id="XMLID_408_">
					<g id="XMLID_409_">
						<path class="st4" d="M20.1,465.8c-0.1,0.1-1.1-0.9-2.3-2c-1.2-1.1-2.2-2-2.1-2.2c0.1-0.1,1.3,0.5,2.6,1.7
							C19.6,464.5,20.3,465.7,20.1,465.8z"/>
					</g>
				</g>
			</g>
			<g id="XMLID_410_">
				<g id="XMLID_411_">
					<g id="XMLID_412_">
						<path class="st4" d="M21.2,464.8c-0.1,0.1-1.1-0.9-2.3-2c-1.2-1.1-2.2-2-2.1-2.2c0.1-0.1,1.3,0.5,2.6,1.7
							C20.6,463.5,21.3,464.7,21.2,464.8z"/>
					</g>
				</g>
			</g>
			<g id="XMLID_413_">
				<g id="XMLID_414_">
					<g id="XMLID_415_">
						<path class="st4" d="M22.3,463.7c-0.1,0.1-1.1-0.9-2.3-2c-1.2-1.1-2.2-2-2.1-2.2c0.1-0.1,1.3,0.5,2.6,1.7
							C21.7,462.4,22.4,463.6,22.3,463.7z"/>
					</g>
				</g>
			</g>
		</g>
		<g id="XMLID_416_">
			<g id="XMLID_417_">
				<g id="XMLID_418_">
					<g id="XMLID_994_">
						<g id="XMLID_995_">
							<g id="XMLID_996_">
								<g id="XMLID_1004_">
									<path id="XMLID_1005_" class="st6" d="M239.9,296.6c-5-0.9-9.1-4.2-10.9-9s-0.9-10.1,2.3-14l52.1-63.2
										c3.3-4,8.2-5.8,13.3-5l0,0c5,0.9,9.1,4.2,10.9,9l28.7,76.7c1.8,4.8,0.9,10.1-2.3,14c-3.3,4-8.2,5.8-13.3,5L239.9,296.6
										L239.9,296.6z"/>
								</g>
								<g id="XMLID_997_">
									<g id="XMLID_1001_">
										<path id="XMLID_1002_" class="st6" d="M239.9,296.6c-5-0.9-9.1-4.2-10.9-9s-0.9-10.1,2.3-14l52.1-63.2
											c3.3-4,8.2-5.8,13.3-5l0,0c5,0.9,9.1,4.2,10.9,9l28.7,76.7c1.8,4.8,0.9,10.1-2.3,14c-3.3,4-8.2,5.8-13.3,5L239.9,296.6
											L239.9,296.6z"/>
									</g>
									<g id="XMLID_998_">
										<g id="XMLID_999_">
											<path id="XMLID_1000_" class="st6" d="M239.9,296.6c0,0,0.3,0,0.9,0.1s1.4,0.2,2.5,0.4c2.2,0.4,5.5,0.9,9.6,1.6
												c8.4,1.4,20.5,3.4,35.4,5.8c7.5,1.2,15.7,2.6,24.5,4c2.2,0.4,4.4,0.7,6.7,1.1c1.1,0.2,2.3,0.4,3.4,0.4
												c1.2,0,2.3-0.1,3.4-0.4c4.6-1,8.6-4.7,10.1-9.4c0.7-2.3,0.8-4.9,0.2-7.4c-0.3-1.2-0.8-2.4-1.2-3.6
												c-0.5-1.2-0.9-2.4-1.4-3.7c-1.8-4.9-3.7-9.9-5.6-15c-3.8-10.2-7.8-20.8-11.8-31.6c-2-5.4-4-10.8-6-16
												c-1-2.6-2-5.3-2.9-7.9s-2.4-4.9-4.6-6.6c-4.2-3.4-10.3-4-14.9-1.6c-1.2,0.6-2.2,1.3-3.2,2.1c-1,0.8-1.7,1.9-2.6,2.8
												c-1.6,2-3.2,3.9-4.8,5.9c-12.8,15.5-24.2,29.4-33.9,41.1c-4.8,5.9-9.2,11.1-13,15.8c-1.7,2.4-2.5,5.2-2.6,7.8
												c0,2.6,0.6,4.9,1.6,6.7c1,1.9,2.2,3.3,3.4,4.4c1.2,1,2.5,1.7,3.5,2.2s1.8,0.7,2.4,0.8
												C239.6,296.5,239.9,296.6,239.9,296.6s-0.3,0-0.9-0.1s-1.4-0.3-2.4-0.8c-1-0.4-2.3-1.1-3.5-2.1c-1.3-1-2.5-2.5-3.5-4.4
												c-1-1.9-1.7-4.2-1.6-6.8c0-2.6,0.8-5.4,2.6-7.9c3.8-4.7,8.1-10,12.9-15.9c9.6-11.7,21.1-25.7,33.8-41.1
												c1.6-1.9,3.2-3.9,4.8-5.9c0.8-1,1.6-2,2.6-2.9c1-0.9,2.1-1.6,3.3-2.2c4.8-2.4,11-1.8,15.4,1.7c2.2,1.7,3.8,4.2,4.7,6.8
												c1,2.6,2,5.2,2.9,7.9c2,5.3,4,10.6,6,16c4.1,10.8,8,21.4,11.8,31.6c1.9,5.1,3.8,10.1,5.6,15c0.5,1.2,0.9,2.4,1.4,3.7
												c0.4,1.2,1,2.4,1.3,3.7c0.6,2.5,0.5,5.2-0.3,7.6c-1.5,4.9-5.7,8.7-10.4,9.7c-1.2,0.3-2.4,0.4-3.6,0.4s-2.4-0.2-3.5-0.4
												c-2.3-0.4-4.5-0.8-6.7-1.1c-8.8-1.5-17-2.9-24.4-4.1c-14.9-2.5-27-4.6-35.4-6c-4.2-0.7-7.4-1.3-9.6-1.7
												c-1.1-0.2-1.9-0.3-2.5-0.4C240.2,296.7,239.9,296.6,239.9,296.6z"/>
										</g>
									</g>
								</g>
							</g>
						</g>
					</g>
				</g>
				<g id="XMLID_420_">
					<path class="st3" d="M296,209.6C296,209.6,296,209.5,296,209.6c-3.6-0.6-7.1,0.7-9.4,3.5l-52.1,63.2c-2.3,2.8-2.9,6.5-1.6,9.8
						c1.3,3.4,4.1,5.7,7.7,6.3l0,0l80.8,13.5c3.6,0.6,7-0.7,9.3-3.5c2.3-2.8,2.9-6.5,1.6-9.8l-28.7-76.7
						C302.4,212.5,299.5,210.2,296,209.6z"/>
				</g>
				<g id="XMLID_429_">
					<g id="XMLID_945_">
						<g id="XMLID_946_">
							<g id="XMLID_947_">
								<path id="XMLID_948_" class="st6" d="M278.3,279.8c0.5-2.9,3.1-4.8,6.3-4.3c3.1,0.5,4.9,3.1,4.4,6s-3.1,4.9-6.1,4.4
									C279.7,285.4,277.8,282.7,278.3,279.8z M285.6,237.8l9.9,1.6l-6.8,31.1l-6.6-1.1L285.6,237.8z"/>
							</g>
						</g>
					</g>
				</g>
			</g>
			<g id="XMLID_432_">
				<polygon id="XMLID_433_" class="st12" points="272.5,302 264.1,343.9 282.1,343.9 289.5,304.9 				"/>
			</g>
		</g>
		<g id="XMLID_434_">
			<rect id="XMLID_897_" x="93.2" y="557.6" class="st0" width="196.1" height="43.9"/>
		</g>
		<g id="XMLID_435_">
			<path id="XMLID_896_" class="st0" d="M320,611.8H69.2c-2.2,0-4.1-1.8-4.1-4.1v-2.2c0-2.2,1.8-4.1,4.1-4.1H320
				c2.2,0,4.1,1.8,4.1,4.1v2.2C324.1,610,322.3,611.8,320,611.8z"/>
		</g>
		<g id="XMLID_436_">
			<path id="XMLID_895_" class="st0" d="M316.2,325.1H70.7c-1.9,0-3.4,1.5-3.4,3.4v225.8c0,1.9,1.5,3.4,3.4,3.4h245.5
				c1.9,0,3.4-1.5,3.4-3.4V328.4C319.6,326.6,318,325.1,316.2,325.1z"/>
		</g>
		<g id="XMLID_437_">
			<rect x="80.5" y="342.1" class="st4" width="224.1" height="204.4"/>
		</g>
		<g id="XMLID_438_">
			<g id="XMLID_439_">
				<g id="XMLID_440_">
					<g id="XMLID_441_">
						<g id="XMLID_442_">
							<rect id="XMLID_894_" x="86" y="417.2" class="st12" width="208.2" height="51.6"/>
						</g>
					</g>
					<g id="XMLID_443_">
						<g id="XMLID_444_">
							<rect x="95.3" y="427.8" class="st4" width="41" height="6.3"/>
						</g>
					</g>
					<g id="XMLID_445_">
						<g id="XMLID_446_">
							<rect id="XMLID_893_" x="95.3" y="438.7" class="st4" width="41" height="6.3"/>
						</g>
					</g>
					<g id="XMLID_447_">
						<g id="XMLID_448_">
							<rect id="XMLID_892_" x="95.3" y="449.9" class="st4" width="41" height="6.3"/>
						</g>
					</g>
					<g id="XMLID_449_">
						<g id="XMLID_450_">
							<g id="XMLID_451_">
								<g id="XMLID_452_">
									<circle id="XMLID_453_" class="st4" cx="150.1" cy="431.6" r="2.4"/>
								</g>
							</g>
							<g id="XMLID_454_">
								<g id="XMLID_455_">
									<circle id="XMLID_456_" class="st4" cx="160.5" cy="431.6" r="2.4"/>
								</g>
							</g>
							<g id="XMLID_457_">
								<g id="XMLID_458_">
									<circle id="XMLID_459_" class="st4" cx="170.8" cy="431.6" r="2.4"/>
								</g>
							</g>
							<g id="XMLID_460_">
								<g id="XMLID_461_">
									<circle id="XMLID_462_" class="st4" cx="181.2" cy="431.6" r="2.4"/>
								</g>
							</g>
							<g id="XMLID_463_">
								<g id="XMLID_464_">
									<circle id="XMLID_465_" class="st4" cx="261.6" cy="431.6" r="2.4"/>
								</g>
							</g>
							<g id="XMLID_466_">
								<g id="XMLID_467_">
									<circle id="XMLID_468_" class="st4" cx="272.2" cy="431.6" r="2.4"/>
								</g>
							</g>
							<g id="XMLID_469_">
								<g id="XMLID_470_">
									<circle id="XMLID_471_" class="st4" cx="191.6" cy="431.6" r="2.4"/>
								</g>
							</g>
							<g id="XMLID_472_">
								<g id="XMLID_473_">
									<circle id="XMLID_474_" class="st4" cx="242.6" cy="431.6" r="2.4"/>
								</g>
							</g>
							<g id="XMLID_475_">
								<g id="XMLID_476_">
									<circle id="XMLID_477_" class="st13" cx="202" cy="431.6" r="2.4"/>
								</g>
							</g>
							<g id="XMLID_478_">
								<g id="XMLID_479_">
									<circle id="XMLID_480_" class="st13" cx="212.4" cy="431.6" r="2.4"/>
								</g>
							</g>
							<g id="XMLID_481_">
								<g id="XMLID_482_">
									<circle id="XMLID_483_" class="st13" cx="233.4" cy="431.6" r="2.4"/>
								</g>
							</g>
							<g id="XMLID_484_">
								<g id="XMLID_485_">
									<circle id="XMLID_486_" class="st13" cx="280.8" cy="431.6" r="2.4"/>
								</g>
							</g>
							<g id="XMLID_487_">
								<g id="XMLID_488_">
									<circle id="XMLID_489_" class="st14" cx="222.7" cy="431.6" r="2.4"/>
								</g>
							</g>
							<g id="XMLID_490_">
								<g id="XMLID_491_">
									<circle id="XMLID_492_" class="st14" cx="253.2" cy="431.6" r="2.4"/>
								</g>
							</g>
						</g>
						<g id="XMLID_493_">
							<g id="XMLID_494_">
								<g id="XMLID_495_">
									<circle class="st4" cx="280.8" cy="443" r="2.4"/>
								</g>
							</g>
							<g id="XMLID_496_">
								<g id="XMLID_497_">
									<circle class="st4" cx="270.4" cy="443" r="2.4"/>
								</g>
							</g>
							<g id="XMLID_498_">
								<g id="XMLID_499_">
									<circle class="st4" cx="260.1" cy="443" r="2.4"/>
								</g>
							</g>
							<g id="XMLID_500_">
								<g id="XMLID_501_">
									<circle class="st4" cx="249.7" cy="443" r="2.4"/>
								</g>
							</g>
							<g id="XMLID_502_">
								<g id="XMLID_503_">
									<circle class="st4" cx="169.3" cy="443" r="2.4"/>
								</g>
							</g>
							<g id="XMLID_504_">
								<g id="XMLID_505_">
									<circle class="st4" cx="158.7" cy="443" r="2.4"/>
								</g>
							</g>
							<g id="XMLID_506_">
								<g id="XMLID_507_">
									<circle class="st4" cx="239.3" cy="443" r="2.4"/>
								</g>
							</g>
							<g id="XMLID_508_">
								<g id="XMLID_509_">
									<circle class="st4" cx="188.4" cy="443" r="2.4"/>
								</g>
							</g>
							<g id="XMLID_510_">
								<g id="XMLID_511_">
									<circle class="st13" cx="228.9" cy="443" r="2.4"/>
								</g>
							</g>
							<g id="XMLID_512_">
								<g id="XMLID_513_">
									<circle class="st13" cx="218.6" cy="443" r="2.4"/>
								</g>
							</g>
							<g id="XMLID_514_">
								<g id="XMLID_515_">
									<circle class="st13" cx="197.5" cy="443" r="2.4"/>
								</g>
							</g>
							<g id="XMLID_516_">
								<g id="XMLID_517_">
									<circle class="st13" cx="150.1" cy="443" r="2.4"/>
								</g>
							</g>
							<g id="XMLID_518_">
								<g id="XMLID_519_">
									<circle class="st14" cx="208.2" cy="443" r="2.4"/>
								</g>
							</g>
							<g id="XMLID_520_">
								<g id="XMLID_521_">
									<circle class="st14" cx="178.5" cy="443" r="2.4"/>
								</g>
							</g>
						</g>
						<g id="XMLID_522_">
							<g id="XMLID_523_">
								<g id="XMLID_524_">
									<circle class="st4" cx="150.1" cy="453" r="2.4"/>
								</g>
							</g>
							<g id="XMLID_525_">
								<g id="XMLID_526_">
									<circle class="st4" cx="160.5" cy="453" r="2.4"/>
								</g>
							</g>
							<g id="XMLID_527_">
								<g id="XMLID_528_">
									<circle class="st4" cx="170.8" cy="453" r="2.4"/>
								</g>
							</g>
							<g id="XMLID_529_">
								<g id="XMLID_530_">
									<circle class="st4" cx="181.2" cy="453" r="2.4"/>
								</g>
							</g>
							<g id="XMLID_531_">
								<g id="XMLID_532_">
									<circle class="st4" cx="261.6" cy="453" r="2.4"/>
								</g>
							</g>
							<g id="XMLID_533_">
								<g id="XMLID_534_">
									<circle class="st4" cx="272.2" cy="453" r="2.4"/>
								</g>
							</g>
							<g id="XMLID_535_">
								<g id="XMLID_536_">
									<circle class="st4" cx="191.6" cy="453" r="2.4"/>
								</g>
							</g>
							<g id="XMLID_537_">
								<g id="XMLID_538_">
									<circle class="st4" cx="242.6" cy="453" r="2.4"/>
								</g>
							</g>
							<g id="XMLID_539_">
								<g id="XMLID_540_">
									<circle class="st13" cx="202" cy="453" r="2.4"/>
								</g>
							</g>
							<g id="XMLID_541_">
								<g id="XMLID_542_">
									<circle class="st13" cx="212.4" cy="453" r="2.4"/>
								</g>
							</g>
							<g id="XMLID_543_">
								<g id="XMLID_544_">
									<circle class="st13" cx="233.4" cy="453" r="2.4"/>
								</g>
							</g>
							<g id="XMLID_545_">
								<g id="XMLID_546_">
									<circle class="st13" cx="280.8" cy="453" r="2.4"/>
								</g>
							</g>
							<g id="XMLID_547_">
								<g id="XMLID_548_">
									<circle class="st14" cx="222.7" cy="453" r="2.4"/>
								</g>
							</g>
							<g id="XMLID_549_">
								<g id="XMLID_550_">
									<circle class="st14" cx="252.4" cy="453" r="2.4"/>
								</g>
							</g>
						</g>
					</g>
					<g id="XMLID_551_">
						<g id="XMLID_552_">
							<rect id="XMLID_891_" x="86" y="480.9" class="st12" width="208.2" height="51.6"/>
						</g>
					</g>
					<g id="XMLID_553_">
						<g id="XMLID_554_">
							<g id="XMLID_555_">
								<g id="XMLID_556_">
									<circle id="XMLID_557_" class="st4" cx="149.6" cy="494.8" r="2.4"/>
								</g>
							</g>
							<g id="XMLID_558_">
								<g id="XMLID_559_">
									<circle id="XMLID_560_" class="st4" cx="160" cy="494.8" r="2.4"/>
								</g>
							</g>
							<g id="XMLID_561_">
								<g id="XMLID_562_">
									<circle id="XMLID_563_" class="st4" cx="170.3" cy="494.8" r="2.4"/>
								</g>
							</g>
							<g id="XMLID_564_">
								<g id="XMLID_565_">
									<circle id="XMLID_566_" class="st4" cx="180.7" cy="494.8" r="2.4"/>
								</g>
							</g>
							<g id="XMLID_567_">
								<g id="XMLID_568_">
									<circle id="XMLID_569_" class="st4" cx="261.1" cy="494.8" r="2.4"/>
								</g>
							</g>
							<g id="XMLID_570_">
								<g id="XMLID_571_">
									<circle id="XMLID_572_" class="st4" cx="271.7" cy="494.8" r="2.4"/>
								</g>
							</g>
							<g id="XMLID_573_">
								<g id="XMLID_574_">
									<circle id="XMLID_575_" class="st4" cx="191.1" cy="494.8" r="2.4"/>
								</g>
							</g>
							<g id="XMLID_576_">
								<g id="XMLID_577_">
									<circle id="XMLID_578_" class="st4" cx="242" cy="494.8" r="2.4"/>
								</g>
							</g>
							<g id="XMLID_579_">
								<g id="XMLID_580_">
									<circle id="XMLID_581_" class="st13" cx="201.5" cy="494.8" r="2.4"/>
								</g>
							</g>
							<g id="XMLID_582_">
								<g id="XMLID_583_">
									<circle id="XMLID_584_" class="st13" cx="211.8" cy="494.8" r="2.4"/>
								</g>
							</g>
							<g id="XMLID_585_">
								<g id="XMLID_586_">
									<circle id="XMLID_587_" class="st13" cx="232.9" cy="494.8" r="2.4"/>
								</g>
							</g>
							<g id="XMLID_588_">
								<g id="XMLID_589_">
									<circle id="XMLID_590_" class="st13" cx="280.3" cy="494.8" r="2.4"/>
								</g>
							</g>
							<g id="XMLID_591_">
								<g id="XMLID_592_">
									<circle id="XMLID_593_" class="st14" cx="222.2" cy="494.8" r="2.4"/>
								</g>
							</g>
							<g id="XMLID_594_">
								<g id="XMLID_595_">
									<circle id="XMLID_596_" class="st14" cx="251.9" cy="494.8" r="2.4"/>
								</g>
							</g>
						</g>
						<g id="XMLID_597_">
							<g id="XMLID_598_">
								<g id="XMLID_599_">
									<circle class="st4" cx="280.3" cy="506.2" r="2.4"/>
								</g>
							</g>
							<g id="XMLID_600_">
								<g id="XMLID_601_">
									<circle class="st4" cx="269.9" cy="506.2" r="2.4"/>
								</g>
							</g>
							<g id="XMLID_602_">
								<g id="XMLID_603_">
									<circle class="st4" cx="259.5" cy="506.2" r="2.4"/>
								</g>
							</g>
							<g id="XMLID_604_">
								<g id="XMLID_605_">
									<circle class="st4" cx="249.2" cy="506.2" r="2.4"/>
								</g>
							</g>
							<g id="XMLID_606_">
								<g id="XMLID_607_">
									<circle class="st4" cx="168.8" cy="506.2" r="2.4"/>
								</g>
							</g>
							<g id="XMLID_608_">
								<g id="XMLID_609_">
									<circle class="st4" cx="158.2" cy="506.2" r="2.4"/>
								</g>
							</g>
							<g id="XMLID_610_">
								<g id="XMLID_611_">
									<circle class="st4" cx="238.8" cy="506.2" r="2.4"/>
								</g>
							</g>
							<g id="XMLID_612_">
								<g id="XMLID_613_">
									<circle class="st4" cx="187.8" cy="506.2" r="2.4"/>
								</g>
							</g>
							<g id="XMLID_614_">
								<g id="XMLID_615_">
									<circle class="st13" cx="228.4" cy="506.2" r="2.4"/>
								</g>
							</g>
							<g id="XMLID_616_">
								<g id="XMLID_617_">
									<circle class="st13" cx="218" cy="506.2" r="2.4"/>
								</g>
							</g>
							<g id="XMLID_618_">
								<g id="XMLID_619_">
									<circle class="st13" cx="197" cy="506.2" r="2.4"/>
								</g>
							</g>
							<g id="XMLID_620_">
								<g id="XMLID_621_">
									<circle class="st13" cx="149.6" cy="506.2" r="2.4"/>
								</g>
							</g>
							<g id="XMLID_622_">
								<g id="XMLID_623_">
									<circle class="st14" cx="207.7" cy="506.2" r="2.4"/>
								</g>
							</g>
							<g id="XMLID_624_">
								<g id="XMLID_625_">
									<circle class="st14" cx="178" cy="506.2" r="2.4"/>
								</g>
							</g>
						</g>
						<g id="XMLID_626_">
							<g id="XMLID_627_">
								<g id="XMLID_628_">
									<circle class="st4" cx="149.6" cy="516.3" r="2.4"/>
								</g>
							</g>
							<g id="XMLID_629_">
								<g id="XMLID_630_">
									<circle class="st4" cx="160" cy="516.3" r="2.4"/>
								</g>
							</g>
							<g id="XMLID_631_">
								<g id="XMLID_632_">
									<circle class="st4" cx="170.3" cy="516.3" r="2.4"/>
								</g>
							</g>
							<g id="XMLID_633_">
								<g id="XMLID_634_">
									<circle class="st4" cx="180.7" cy="516.3" r="2.4"/>
								</g>
							</g>
							<g id="XMLID_635_">
								<g id="XMLID_636_">
									<circle class="st4" cx="261.1" cy="516.3" r="2.4"/>
								</g>
							</g>
							<g id="XMLID_637_">
								<g id="XMLID_638_">
									<circle class="st4" cx="271.7" cy="516.3" r="2.4"/>
								</g>
							</g>
							<g id="XMLID_639_">
								<g id="XMLID_640_">
									<circle class="st4" cx="191.1" cy="516.3" r="2.4"/>
								</g>
							</g>
							<g id="XMLID_641_">
								<g id="XMLID_642_">
									<circle class="st4" cx="242" cy="516.3" r="2.4"/>
								</g>
							</g>
							<g id="XMLID_643_">
								<g id="XMLID_644_">
									<circle class="st13" cx="201.5" cy="516.3" r="2.4"/>
								</g>
							</g>
							<g id="XMLID_645_">
								<g id="XMLID_646_">
									<circle class="st13" cx="211.8" cy="516.3" r="2.4"/>
								</g>
							</g>
							<g id="XMLID_647_">
								<g id="XMLID_648_">
									<circle class="st13" cx="232.9" cy="516.3" r="2.4"/>
								</g>
							</g>
							<g id="XMLID_649_">
								<g id="XMLID_650_">
									<circle class="st13" cx="280.3" cy="516.3" r="2.4"/>
								</g>
							</g>
							<g id="XMLID_651_">
								<g id="XMLID_652_">
									<circle class="st14" cx="222.2" cy="516.3" r="2.4"/>
								</g>
							</g>
							<g id="XMLID_653_">
								<g id="XMLID_654_">
									<circle class="st14" cx="251.9" cy="516.3" r="2.4"/>
								</g>
							</g>
						</g>
					</g>
					<g id="XMLID_655_">
						<g id="XMLID_656_">
							<rect x="95.3" y="491.5" class="st4" width="41" height="6.3"/>
						</g>
					</g>
					<g id="XMLID_657_">
						<g id="XMLID_658_">
							<rect x="95.3" y="502.4" class="st4" width="41" height="6.3"/>
						</g>
					</g>
					<g id="XMLID_659_">
						<g id="XMLID_660_">
							<rect x="95.3" y="513.6" class="st4" width="41" height="6.3"/>
						</g>
					</g>
					<g id="XMLID_661_">
						<g id="XMLID_662_">
							<rect x="96.8" y="386.6" class="st4" width="41" height="6.3"/>
						</g>
					</g>
					<g id="XMLID_663_">
						<g id="XMLID_664_">
							<g id="XMLID_665_">
								<rect x="87.5" y="353.9" class="st12" width="208.2" height="51.6"/>
							</g>
						</g>
						<g id="XMLID_666_">
							<g id="XMLID_667_">
								<rect id="XMLID_890_" x="96.8" y="364.5" class="st4" width="41" height="6.3"/>
							</g>
						</g>
						<g id="XMLID_668_">
							<g id="XMLID_669_">
								<rect x="96.8" y="375.4" class="st4" width="41" height="6.3"/>
							</g>
						</g>
						<g id="XMLID_670_">
							<g id="XMLID_671_">
								<g id="XMLID_672_">
									<g id="XMLID_673_">
										<circle id="XMLID_674_" class="st4" cx="151.6" cy="368.4" r="2.4"/>
									</g>
								</g>
								<g id="XMLID_675_">
									<g id="XMLID_676_">
										<circle id="XMLID_677_" class="st4" cx="162" cy="368.4" r="2.4"/>
									</g>
								</g>
								<g id="XMLID_678_">
									<g id="XMLID_679_">
										<circle id="XMLID_680_" class="st4" cx="172.4" cy="368.4" r="2.4"/>
									</g>
								</g>
								<g id="XMLID_681_">
									<g id="XMLID_682_">
										<circle id="XMLID_683_" class="st4" cx="182.7" cy="368.4" r="2.4"/>
									</g>
								</g>
								<g id="XMLID_684_">
									<g id="XMLID_685_">
										<circle id="XMLID_686_" class="st4" cx="263.1" cy="368.4" r="2.4"/>
									</g>
								</g>
								<g id="XMLID_687_">
									<g id="XMLID_688_">
										<circle id="XMLID_689_" class="st4" cx="273.7" cy="368.4" r="2.4"/>
									</g>
								</g>
								<g id="XMLID_690_">
									<g id="XMLID_691_">
										<circle id="XMLID_692_" class="st4" cx="193.1" cy="368.4" r="2.4"/>
									</g>
								</g>
								<g id="XMLID_693_">
									<g id="XMLID_694_">
										<circle id="XMLID_695_" class="st4" cx="244.1" cy="368.4" r="2.4"/>
									</g>
								</g>
								<g id="XMLID_696_">
									<g id="XMLID_697_">
										<circle id="XMLID_698_" class="st13" cx="203.5" cy="368.4" r="2.4"/>
									</g>
								</g>
								<g id="XMLID_699_">
									<g id="XMLID_700_">
										<circle id="XMLID_701_" class="st13" cx="213.9" cy="368.4" r="2.4"/>
									</g>
								</g>
								<g id="XMLID_702_">
									<g id="XMLID_703_">
										<circle id="XMLID_704_" class="st13" cx="234.9" cy="368.4" r="2.4"/>
									</g>
								</g>
								<g id="XMLID_705_">
									<g id="XMLID_706_">
										<circle id="XMLID_707_" class="st13" cx="282.3" cy="368.4" r="2.4"/>
									</g>
								</g>
								<g id="XMLID_708_">
									<g id="XMLID_709_">
										<circle id="XMLID_710_" class="st14" cx="225" cy="368.4" r="2.4"/>
									</g>
								</g>
								<g id="XMLID_711_">
									<g id="XMLID_712_">
										<circle id="XMLID_713_" class="st14" cx="254.7" cy="368.4" r="2.4"/>
									</g>
								</g>
							</g>
							<g id="XMLID_714_">
								<g id="XMLID_715_">
									<g id="XMLID_716_">
										<circle class="st4" cx="282.3" cy="379.7" r="2.4"/>
									</g>
								</g>
								<g id="XMLID_717_">
									<g id="XMLID_718_">
										<circle class="st4" cx="271.9" cy="379.7" r="2.4"/>
									</g>
								</g>
								<g id="XMLID_719_">
									<g id="XMLID_720_">
										<circle class="st4" cx="261.6" cy="379.7" r="2.4"/>
									</g>
								</g>
								<g id="XMLID_721_">
									<g id="XMLID_722_">
										<circle class="st4" cx="251.2" cy="379.7" r="2.4"/>
									</g>
								</g>
								<g id="XMLID_723_">
									<g id="XMLID_724_">
										<circle class="st4" cx="170.8" cy="379.7" r="2.4"/>
									</g>
								</g>
								<g id="XMLID_725_">
									<g id="XMLID_726_">
										<circle class="st4" cx="160.2" cy="379.7" r="2.4"/>
									</g>
								</g>
								<g id="XMLID_727_">
									<g id="XMLID_728_">
										<circle class="st4" cx="240.8" cy="379.7" r="2.4"/>
									</g>
								</g>
								<g id="XMLID_729_">
									<g id="XMLID_730_">
										<circle class="st4" cx="189.9" cy="379.7" r="2.4"/>
									</g>
								</g>
								<g id="XMLID_731_">
									<g id="XMLID_732_">
										<circle class="st13" cx="230.4" cy="379.7" r="2.4"/>
									</g>
								</g>
								<g id="XMLID_733_">
									<g id="XMLID_734_">
										<circle class="st13" cx="220.1" cy="379.7" r="2.4"/>
									</g>
								</g>
								<g id="XMLID_735_">
									<g id="XMLID_736_">
										<circle class="st13" cx="199" cy="379.7" r="2.4"/>
									</g>
								</g>
								<g id="XMLID_737_">
									<g id="XMLID_738_">
										<circle class="st13" cx="151.6" cy="379.7" r="2.4"/>
									</g>
								</g>
								<g id="XMLID_739_">
									<g id="XMLID_740_">
										<path class="st14" d="M208.1,379.7c0-1.3,0.3-2.4,1.6-2.4c1.3,0,2.4,1.1,2.4,2.4s-1.1,2.4-2.4,2.4
											C208.4,382,208.1,381,208.1,379.7z"/>
									</g>
								</g>
								<g id="XMLID_741_">
									<g id="XMLID_742_">
										<circle class="st14" cx="180.7" cy="379.7" r="2.4"/>
									</g>
								</g>
							</g>
							<g id="XMLID_743_">
								<g id="XMLID_744_">
									<g id="XMLID_745_">
										<circle class="st4" cx="151.6" cy="389.8" r="2.4"/>
									</g>
								</g>
								<g id="XMLID_746_">
									<g id="XMLID_747_">
										<circle class="st4" cx="162" cy="389.8" r="2.4"/>
									</g>
								</g>
								<g id="XMLID_748_">
									<g id="XMLID_749_">
										<circle class="st4" cx="172.4" cy="389.8" r="2.4"/>
									</g>
								</g>
								<g id="XMLID_750_">
									<g id="XMLID_751_">
										<circle class="st4" cx="182.7" cy="389.8" r="2.4"/>
									</g>
								</g>
								<g id="XMLID_752_">
									<g id="XMLID_753_">
										<circle class="st4" cx="263.1" cy="389.8" r="2.4"/>
									</g>
								</g>
								<g id="XMLID_754_">
									<g id="XMLID_755_">
										<circle class="st4" cx="273.7" cy="389.8" r="2.4"/>
									</g>
								</g>
								<g id="XMLID_756_">
									<g id="XMLID_757_">
										<circle class="st4" cx="193.1" cy="389.8" r="2.4"/>
									</g>
								</g>
								<g id="XMLID_758_">
									<g id="XMLID_759_">
										<circle class="st4" cx="244.1" cy="389.8" r="2.4"/>
									</g>
								</g>
								<g id="XMLID_760_">
									<g id="XMLID_761_">
										<circle class="st13" cx="203.5" cy="389.8" r="2.4"/>
									</g>
								</g>
								<g id="XMLID_762_">
									<g id="XMLID_763_">
										<circle class="st13" cx="213.9" cy="389.8" r="2.4"/>
									</g>
								</g>
								<g id="XMLID_764_">
									<g id="XMLID_765_">
										<circle class="st13" cx="234.9" cy="389.8" r="2.4"/>
									</g>
								</g>
								<g id="XMLID_766_">
									<g id="XMLID_767_">
										<circle class="st13" cx="282.3" cy="389.8" r="2.4"/>
									</g>
								</g>
								<g id="XMLID_768_">
									<g id="XMLID_769_">
										<path class="st14" d="M226.6,389.8c0,1.3-1.1,2.4-2.4,2.4s-1.6-1.1-1.6-2.4s0.3-2.4,1.6-2.4S226.6,388.5,226.6,389.8z"/>
									</g>
								</g>
								<g id="XMLID_770_">
									<g id="XMLID_771_">
										<circle class="st14" cx="254.7" cy="389.8" r="2.4"/>
									</g>
								</g>
							</g>
						</g>
					</g>
				</g>
			</g>
		</g>
		<g id="XMLID_772_">
			<g id="XMLID_773_">
				<g id="XMLID_774_">
					<ellipse id="XMLID_775_" class="st4" cx="113" cy="582" rx="0.3" ry="10.3"/>
				</g>
			</g>
			<g id="XMLID_776_">
				<g id="XMLID_777_">
					<ellipse id="XMLID_778_" class="st4" cx="118.8" cy="582" rx="0.3" ry="10.3"/>
				</g>
			</g>
			<g id="XMLID_779_">
				<g id="XMLID_780_">
					<ellipse id="XMLID_781_" class="st4" cx="124.6" cy="582" rx="0.3" ry="10.3"/>
				</g>
			</g>
			<g id="XMLID_782_">
				<g id="XMLID_783_">
					<ellipse id="XMLID_784_" class="st4" cx="130.5" cy="582" rx="0.3" ry="10.3"/>
				</g>
			</g>
			<g id="XMLID_785_">
				<g id="XMLID_786_">
					<ellipse id="XMLID_787_" class="st4" cx="136.3" cy="582" rx="0.3" ry="10.3"/>
				</g>
			</g>
			<g id="XMLID_788_">
				<g id="XMLID_789_">
					<ellipse id="XMLID_790_" class="st4" cx="142.1" cy="582" rx="0.3" ry="10.3"/>
				</g>
			</g>
			<g id="XMLID_791_">
				<g id="XMLID_792_">
					<ellipse id="XMLID_793_" class="st4" cx="148" cy="582" rx="0.3" ry="10.3"/>
				</g>
			</g>
			<g id="XMLID_794_">
				<g id="XMLID_795_">
					<ellipse id="XMLID_796_" class="st4" cx="153.8" cy="582" rx="0.3" ry="10.3"/>
				</g>
			</g>
			<g id="XMLID_797_">
				<g id="XMLID_798_">
					<ellipse id="XMLID_799_" class="st4" cx="159.6" cy="582" rx="0.3" ry="10.3"/>
				</g>
			</g>
			<g id="XMLID_800_">
				<g id="XMLID_801_">
					<ellipse id="XMLID_802_" class="st4" cx="165.5" cy="582" rx="0.3" ry="10.3"/>
				</g>
			</g>
			<g id="XMLID_803_">
				<g id="XMLID_804_">
					<ellipse id="XMLID_805_" class="st4" cx="171.3" cy="582" rx="0.3" ry="10.3"/>
				</g>
			</g>
			<g id="XMLID_806_">
				<g id="XMLID_807_">
					<ellipse id="XMLID_808_" class="st4" cx="177.1" cy="582" rx="0.3" ry="10.3"/>
				</g>
			</g>
			<g id="XMLID_809_">
				<g id="XMLID_810_">
					<ellipse id="XMLID_811_" class="st4" cx="183" cy="582" rx="0.3" ry="10.3"/>
				</g>
			</g>
			<g id="XMLID_812_">
				<g id="XMLID_813_">
					<ellipse id="XMLID_814_" class="st4" cx="188.8" cy="582" rx="0.3" ry="10.3"/>
				</g>
			</g>
			<g id="XMLID_815_">
				<g id="XMLID_816_">
					<ellipse id="XMLID_817_" class="st4" cx="194.6" cy="582" rx="0.3" ry="10.3"/>
				</g>
			</g>
			<g id="XMLID_818_">
				<g id="XMLID_819_">
					<ellipse id="XMLID_820_" class="st4" cx="200.4" cy="582" rx="0.3" ry="10.3"/>
				</g>
			</g>
			<g id="XMLID_821_">
				<g id="XMLID_822_">
					<ellipse id="XMLID_823_" class="st4" cx="206.3" cy="582" rx="0.3" ry="10.3"/>
				</g>
			</g>
			<g id="XMLID_824_">
				<g id="XMLID_825_">
					<ellipse id="XMLID_826_" class="st4" cx="212.1" cy="582" rx="0.3" ry="10.3"/>
				</g>
			</g>
			<g id="XMLID_827_">
				<g id="XMLID_828_">
					<ellipse id="XMLID_829_" class="st4" cx="217.9" cy="582" rx="0.3" ry="10.3"/>
				</g>
			</g>
			<g id="XMLID_830_">
				<g id="XMLID_831_">
					<ellipse id="XMLID_832_" class="st4" cx="223.8" cy="582" rx="0.3" ry="10.3"/>
				</g>
			</g>
			<g id="XMLID_833_">
				<g id="XMLID_834_">
					<ellipse id="XMLID_835_" class="st4" cx="229.6" cy="582" rx="0.3" ry="10.3"/>
				</g>
			</g>
			<g id="XMLID_836_">
				<g id="XMLID_837_">
					<ellipse id="XMLID_838_" class="st4" cx="235.4" cy="582" rx="0.3" ry="10.3"/>
				</g>
			</g>
			<g id="XMLID_839_">
				<g id="XMLID_840_">
					<ellipse id="XMLID_841_" class="st4" cx="241.3" cy="582" rx="0.3" ry="10.3"/>
				</g>
			</g>
			<g id="XMLID_842_">
				<g id="XMLID_843_">
					<ellipse id="XMLID_844_" class="st4" cx="247.1" cy="582" rx="0.3" ry="10.3"/>
				</g>
			</g>
			<g id="XMLID_845_">
				<g id="XMLID_846_">
					<ellipse id="XMLID_847_" class="st4" cx="252.9" cy="582" rx="0.3" ry="10.3"/>
				</g>
			</g>
			<g id="XMLID_848_">
				<g id="XMLID_849_">
					<ellipse id="XMLID_850_" class="st4" cx="258.8" cy="582" rx="0.3" ry="10.3"/>
				</g>
			</g>
			<g id="XMLID_851_">
				<g id="XMLID_852_">
					<ellipse id="XMLID_853_" class="st4" cx="264.6" cy="582" rx="0.3" ry="10.3"/>
				</g>
			</g>
			<g id="XMLID_854_">
				<g id="XMLID_855_">
					<ellipse id="XMLID_856_" class="st4" cx="270.4" cy="582" rx="0.3" ry="10.3"/>
				</g>
			</g>
		</g>
		<g id="XMLID_857_">
			<g id="XMLID_858_">
				<path id="XMLID_859_" class="st4" d="M316.2,557.6c0,0.1-55.1,0.3-123.1,0.3S70,557.8,70,557.6c0-0.2,55.1-0.3,123.1-0.3
					C261.1,557.3,316.2,557.4,316.2,557.6z"/>
			</g>
		</g>
		<g id="XMLID_860_">
			<g id="XMLID_861_">
				<path id="XMLID_862_" class="st4" d="M319,601.4c0,0.1-56.2,0.3-125.6,0.3s-125.6-0.1-125.6-0.3c0-0.1,56.2-0.3,125.6-0.3
					C262.8,601.2,319,601.3,319,601.4z"/>
			</g>
		</g>
		<g id="XMLID_863_">
			<g id="XMLID_864_">
				<path id="XMLID_865_" class="st4" d="M313.2,554.2c0-1.9-0.1-88.8-0.2-222.4l0.2,0.2c-69,0-151,0-238.8,0l0,0l0.3-0.3
					c0,81.1,0,157.3,0,222.4l-0.2-0.2C217.3,554.1,311.3,554.2,313.2,554.2c-2,0-96,0.1-238.8,0.2h-0.2v-0.2c0-65.1,0-141.3,0-222.4
					v-0.3h0.3l0,0c87.8,0,169.8,0,238.8,0h0.2v0.2C313.3,465.4,313.2,552.3,313.2,554.2z"/>
			</g>
		</g>
		<g id="XMLID_866_">
			<g id="XMLID_867_">
				<g id="XMLID_868_">
					<path id="XMLID_869_" class="st3" d="M238,405.4c0,0-0.1,0.1-0.3,0.3c-0.2,0.2-0.5,0.5-1,0.9c-0.9,0.8-2.1,2-3.7,3.6
						c-3.2,3.1-7.9,7.6-13.7,13.1c-11.6,11-27.5,26.3-45,43.3s-33.2,32.5-44.6,43.7c-5.7,5.6-10.3,10.1-13.5,13.3
						c-1.6,1.6-2.8,2.8-3.7,3.6c-0.4,0.4-0.7,0.7-1,0.9c-0.2,0.2-0.3,0.3-0.3,0.3s0.1-0.1,0.3-0.3c0.2-0.2,0.5-0.6,0.9-1
						c0.8-0.9,2.1-2.1,3.6-3.7c3.2-3.2,7.7-7.8,13.3-13.4c11.3-11.3,27-26.8,44.5-43.8s33.5-32.2,45.1-43.2
						c5.8-5.5,10.5-9.9,13.8-13c1.6-1.5,2.9-2.7,3.8-3.5c0.4-0.4,0.8-0.7,1-0.9C237.8,405.5,238,405.4,238,405.4z"/>
				</g>
			</g>
			<g id="XMLID_870_">
				<g id="XMLID_871_">
					<path id="XMLID_872_" class="st3" d="M226.2,396.1c0,0-0.1,0.1-0.3,0.3c-0.2,0.2-0.4,0.4-0.8,0.8c-0.7,0.7-1.7,1.7-3,2.9
						c-2.6,2.5-6.4,6.2-11.1,10.7c-9.3,9-22.1,21.6-36.3,35.4c-14.1,13.9-26.9,26.5-36.2,35.5c-4.7,4.5-8.5,8.1-11.2,10.6
						c-1.3,1.2-2.4,2.1-3.2,2.7c-0.4,0.3-0.7,0.5-0.9,0.6c-0.1,0.1-0.2,0.1-0.3,0.1s-0.1-0.1-0.1-0.1c0,0.2,0.4-0.1,1.1-0.8
						c0.7-0.6,1.8-1.6,3.1-2.8c2.6-2.5,6.4-6.1,11-10.7c9.3-9.1,22-21.7,36.1-35.6c14.1-13.9,27-26.4,36.4-35.3
						c4.7-4.5,8.5-8.1,11.2-10.6c1.3-1.2,2.3-2.2,3.1-2.8c0.3-0.3,0.6-0.5,0.8-0.7C226.1,396.2,226.2,396.1,226.2,396.1z"/>
				</g>
			</g>
			<g id="XMLID_873_">
				<g id="XMLID_874_">
					<path id="XMLID_875_" class="st3" d="M239.9,362.1c0,0-0.1,0.1-0.3,0.3c-0.2,0.2-0.4,0.4-0.8,0.8c-0.7,0.7-1.7,1.7-3,2.9
						c-2.6,2.5-6.4,6.2-11.1,10.7c-9.3,9-22.1,21.6-36.3,35.4c-14.1,13.9-26.9,26.5-36.2,35.5c-4.7,4.5-8.5,8.1-11.2,10.6
						c-1.3,1.2-2.4,2.1-3.2,2.7c-0.4,0.3-0.7,0.5-0.9,0.6c-0.1,0.1-0.2,0.1-0.3,0.1s-0.1-0.1-0.1-0.1c0,0.2,0.4-0.1,1.1-0.8
						c0.7-0.6,1.8-1.6,3.1-2.8c2.6-2.5,6.4-6.1,11-10.7c9.3-9.1,22-21.7,36.1-35.6c14.1-13.9,27-26.4,36.4-35.3
						c4.7-4.5,8.5-8.1,11.2-10.6c1.3-1.2,2.3-2.2,3.1-2.8c0.3-0.3,0.6-0.5,0.8-0.7C239.8,362.2,239.9,362.1,239.9,362.1z"/>
				</g>
			</g>
		</g>
		<g id="XMLID_876_">
			<rect x="72.7" y="359.8" class="st4" width="3.5" height="30.5"/>
		</g>
		<g id="XMLID_877_">
			<rect x="72.7" y="490.9" class="st4" width="3.5" height="30.5"/>
		</g>
		<g id="XMLID_878_">
			<g id="XMLID_879_">
				<g id="XMLID_880_">
					<path id="XMLID_881_" class="st4" d="M183.3,289.9c0,0,0.1,0,0.3,0.1s0.5,0.4,0.7,0.8c0.2,0.4,0.4,1,0.4,1.7s-0.3,1.4-0.7,2.1
						c-0.4,0.7-1,1.4-1.4,2.2c-0.5,0.8-0.9,1.7-0.8,2.7c0.1,1,0.7,1.9,1.5,2.8c0.8,0.8,1.7,1.6,2.5,2.6s1.3,2.3,0.9,3.6
						c-0.4,1.2-1.3,2-2.2,2.7c-0.9,0.6-1.7,1.2-2.4,1.8c-0.7,0.6-1.2,1.3-1.4,2.1c-0.5,1.5-0.2,2.8,0.2,3.6c0.4,0.8,0.7,1.2,0.7,1.2
						s-0.1-0.1-0.3-0.2c-0.2-0.2-0.4-0.5-0.6-0.9c-0.4-0.8-0.8-2.2-0.3-3.8c0.1-0.4,0.3-0.8,0.6-1.2c0.3-0.4,0.6-0.7,0.9-1.1
						c0.7-0.7,1.6-1.2,2.4-1.8c0.8-0.6,1.7-1.4,2-2.4s-0.1-2.2-0.9-3.1c-0.7-1-1.7-1.7-2.5-2.6s-1.5-1.9-1.6-3.1s0.4-2.2,0.9-3
						s1.1-1.5,1.5-2.2c0.4-0.7,0.7-1.4,0.7-2c0-0.6-0.1-1.2-0.3-1.5C183.8,290.1,183.3,289.9,183.3,289.9z"/>
				</g>
			</g>
			<g id="XMLID_882_">
				<g id="XMLID_883_">
					<path id="XMLID_884_" class="st4" d="M193.8,289.9c0,0,0.1,0,0.3,0.1s0.5,0.4,0.7,0.8c0.2,0.4,0.4,1,0.4,1.7s-0.3,1.4-0.7,2.1
						c-0.4,0.7-1,1.4-1.4,2.2c-0.5,0.8-0.9,1.7-0.8,2.7c0.1,1,0.7,1.9,1.5,2.8c0.8,0.8,1.7,1.6,2.5,2.6s1.3,2.3,0.9,3.6
						c-0.4,1.2-1.3,2-2.2,2.7c-0.9,0.6-1.7,1.2-2.4,1.8c-0.7,0.6-1.2,1.3-1.4,2.1c-0.5,1.5-0.2,2.8,0.2,3.6c0.4,0.8,0.7,1.2,0.7,1.2
						s-0.1-0.1-0.3-0.2c-0.2-0.2-0.4-0.5-0.6-0.9c-0.4-0.8-0.8-2.2-0.3-3.8c0.1-0.4,0.3-0.8,0.6-1.2c0.3-0.4,0.6-0.7,0.9-1.1
						c0.7-0.7,1.6-1.2,2.4-1.8c0.8-0.6,1.7-1.4,2-2.4s-0.1-2.2-0.9-3.1c-0.7-1-1.7-1.7-2.5-2.6s-1.5-1.9-1.6-3.1s0.4-2.2,0.9-3
						s1.1-1.5,1.5-2.2c0.4-0.7,0.7-1.4,0.7-2c0-0.6-0.1-1.2-0.3-1.5C194.3,290.1,193.8,289.9,193.8,289.9z"/>
				</g>
			</g>
			<g id="XMLID_885_">
				<g id="XMLID_886_">
					<path id="XMLID_887_" class="st4" d="M204.3,289.9c0,0,0.1,0,0.3,0.1c0.2,0.1,0.5,0.4,0.7,0.8c0.2,0.4,0.4,1,0.4,1.7
						s-0.3,1.4-0.7,2.1c-0.4,0.7-1,1.4-1.4,2.2c-0.5,0.8-0.9,1.7-0.8,2.7s0.7,1.9,1.5,2.8c0.8,0.8,1.7,1.6,2.5,2.6s1.3,2.3,0.9,3.6
						c-0.4,1.2-1.3,2-2.2,2.7c-0.9,0.6-1.7,1.2-2.4,1.8c-0.7,0.6-1.2,1.3-1.4,2.1c-0.5,1.5-0.2,2.8,0.2,3.6c0.4,0.8,0.7,1.2,0.7,1.2
						s-0.1-0.1-0.3-0.2c-0.2-0.2-0.4-0.5-0.6-0.9c-0.4-0.8-0.8-2.2-0.3-3.8c0.1-0.4,0.3-0.8,0.6-1.2c0.3-0.4,0.6-0.7,0.9-1.1
						c0.7-0.7,1.6-1.2,2.4-1.8s1.7-1.4,2-2.4s-0.1-2.2-0.9-3.1c-0.7-1-1.7-1.7-2.5-2.6s-1.5-1.9-1.6-3.1s0.4-2.2,0.9-3
						s1.1-1.5,1.5-2.2c0.4-0.7,0.7-1.4,0.7-2c0-0.6-0.1-1.2-0.3-1.5C204.8,290.1,204.2,289.9,204.3,289.9z"/>
				</g>
			</g>
		</g>
	</g>
</g>
<g id="Floor">
	<g id="XMLID_170_">
		<g id="XMLID_888_">
			<path id="XMLID_889_" class="st4" d="M353.2,611.8c0,0.1-70.8,0.3-158.2,0.3S36.8,612,36.8,611.8c0-0.1,70.8-0.3,158.2-0.3
				S353.2,611.6,353.2,611.8z"/>
		</g>
	</g>
</g>
</svg>
