<svg xmlns="http://www.w3.org/2000/svg" viewBox="0 0 500 500"><defs><style>.cls-1{isolation:isolate;}.cls-2{fill:#fff;}.cls-3{fill:#79c9e8;}.cls-4{fill:#d7f0f9;}.cls-5{fill:#0582c1;}.cls-6{fill:#ffbf4d;}.cls-7{fill:#00668e;}.cls-8{fill:#05556d;}.cls-9{fill:#f98d3d;}.cls-10{fill:#ed701b;}.cls-11{fill:none;}.cls-12{fill:#efaa3a;}.cls-13{fill:#f98d2b;opacity:0.29;mix-blend-mode:multiply;}.cls-14{fill:#ff9f50;}</style></defs><g class="cls-1"><g id="BACKGROUND"><rect class="cls-2" width="500" height="500"/></g><g id="OBJECTS"><rect class="cls-3" x="177.77" width="2.24" height="163.8"/><rect class="cls-3" x="338.74" width="2.24" height="188.96"/><path class="cls-4" d="M340.77,178,173.83,158.46a13,13,0,0,0-14.43,11.41L146.94,276.63a13,13,0,0,0,11.41,14.42l167,19.49a13,13,0,0,0,14.42-11.41l12.46-106.76A13,13,0,0,0,340.77,178Z"/><path class="cls-5" d="M351,202.94l1.23-10.57A13,13,0,0,0,340.77,178L173.83,158.46a13,13,0,0,0-14.43,11.41l-1.23,10.57Z"/><path class="cls-3" d="M185.18,245.08l21.16-37.29a6.83,6.83,0,0,1,6.74-3.41h0a6.84,6.84,0,0,1,6,7.58l-4.41,37.72.19,0A4.73,4.73,0,0,1,219,255h0a4.75,4.75,0,0,1-5.26,4.16l-.18,0-.81,6.87a5.1,5.1,0,0,1-5.67,4.49h0a5.11,5.11,0,0,1-4.49-5.67l.8-6.87-15.23-1.78a4.74,4.74,0,0,1-4.16-5.26l.4-3.46A5.94,5.94,0,0,1,185.18,245.08Zm19.4,2.79,2.73-23.39a.14.14,0,0,0-.27-.09l-12.51,22.06a.63.63,0,0,0,.47.93l8.89,1A.63.63,0,0,0,204.58,247.87Z"/><path class="cls-3" d="M278.57,256l21.17-37.29a6.83,6.83,0,0,1,6.73-3.41h0a6.83,6.83,0,0,1,6,7.58l-4.4,37.72.19,0a4.72,4.72,0,0,1,4.15,5.25h0a4.73,4.73,0,0,1-5.25,4.16l-.19,0-.8,6.87a5.11,5.11,0,0,1-5.67,4.48h0a5.1,5.1,0,0,1-4.49-5.67l.8-6.87L281.57,267a4.74,4.74,0,0,1-4.16-5.26l.41-3.46A6.09,6.09,0,0,1,278.57,256ZM298,258.77l2.73-23.39a.15.15,0,0,0-.28-.09l-12.5,22.06a.63.63,0,0,0,.47.93l8.89,1A.63.63,0,0,0,298,258.77Z"/><path class="cls-3" d="M236.59,223.14c1.23-10.53,7.48-15.91,17.64-14.72s15,7.85,13.79,18.39l-4,34.25c-1.23,10.54-7.49,15.91-17.65,14.73s-15-7.86-13.78-18.4Zm6.27,36.12c-.55,4.71,1.32,6.73,4.61,7.12s5.57-1.16,6.12-5.87L257.74,225c.55-4.71-1.31-6.74-4.6-7.12s-5.58,1.16-6.12,5.86Z"/><path class="cls-2" d="M177.85,173.21a3.5,3.5,0,1,1-3.07-3.87A3.5,3.5,0,0,1,177.85,173.21Z"/><path class="cls-3" d="M194.59,175.17a3.49,3.49,0,1,1-3.06-3.88A3.49,3.49,0,0,1,194.59,175.17Z"/><path class="cls-6" d="M212,177.19a3.49,3.49,0,1,1-3.06-3.87A3.49,3.49,0,0,1,212,177.19Z"/><path class="cls-7" d="M144.79,298.79A90.22,90.22,0,0,0,142.91,319c.34,9.15-.75,69.31-.75,69.31h7.35s10.46-47.11,10.85-50.83S166,296.56,166,296.56Z"/><path class="cls-5" d="M149.68,296.05s1.69,12.85,4.57,22,17,70.28,17,70.28h7.35s-1.35-47.11-1.86-50.83-4.23-40.93-4.23-40.93Z"/><path class="cls-5" d="M171.85,388.31v5.13h14a.8.8,0,0,0,.44-1.47c-2-1.36-5.32-3.24-8.36-3.66Z"/><path class="cls-5" d="M142.54,388.31v5.13h14A.8.8,0,0,0,157,392c-2.05-1.36-5.32-3.24-8.37-3.66Z"/><path class="cls-7" d="M167.77,236.26s4.82-7.31-.71-8c-4.24-.55-6,.71-6,.71s-4.89-.53-7.56,1.78c-1.83,1.59-8.55,13.9,2.32,18.35s8.55-7,8.55-7Z"/><path class="cls-8" d="M167.06,228.24c-4.24-.55-6,.71-6,.71s-4.89-.53-7.56,1.78c-1.83,1.59-8.55,13.9,2.32,18.35,5.11,2.1,7.3.69,8.19-1.4-10.31,2.91-11.43-9.52-9.73-13.06s5.88-1.93,5.88-1.93c1.62-4.09,6.9-3.64,9.08-3.33A3,3,0,0,0,167.06,228.24Z"/><path class="cls-9" d="M161,239.82s-1.42-1.43-2.49,0-.36,4.63,1.42,4.81c0,0-.53,4.63-4.09,4.45v3.75h8.37V250s5.17-2.13,5-6.41a23.52,23.52,0,0,0-1.43-7.3A11.67,11.67,0,0,1,161,239.82Z"/><path class="cls-10" d="M162.28,251.17c.83.35.69.87.73,1.66h1.2V250s-2,.65-5-1A13.23,13.23,0,0,0,162.28,251.17Z"/><path class="cls-9" d="M164,233s-4.34-1.73-4.85-.43c-.33.85.51,1.58,1.67,2.32l-1,.16a.27.27,0,0,0-.13.48,5.77,5.77,0,0,0,2.71.44Z"/><polygon class="cls-11" points="138.18 280.07 144 298.82 143.89 297.87 144 298.82 145.96 271.52 138.18 280.07"/><path class="cls-6" d="M195,243.87c-8.28-6.13-30.89-11-30.89-11l-1.86,3.4s20.52,8,19.17,9.14c-.8.7-10.83,5.29-14.22,6.84a5.51,5.51,0,0,1-2.34.48l-10.39-.06a16.4,16.4,0,0,0-13.39,5.88c-5.27,6.07-14.24,20.12-14.24,20.12l15.1,22.2,1.67,2.45,0,0,0,.21,1.49.15c4.85.45,20.4,1.68,28.64-.07l.22-.05-.39-36.42a141.22,141.22,0,0,0,21.67-21A1.52,1.52,0,0,0,195,243.87Zm-50.66,49.67-1.47-3.22-4.69-10.25,7.78-8.72-1.4,19.13Z"/><polygon class="cls-12" points="142.87 290.32 144.34 293.54 143.63 303.25 143.61 303.28 141.94 300.83 142.87 290.32"/><path class="cls-13" d="M170.06,265.76c-1.4,1-1,10-1.39,15.65-.58,9.43-1.14,17.59-.72,22.86a41.28,41.28,0,0,0,5.79-.73l.22-.05-.39-36.42a141.22,141.22,0,0,0,21.67-21,1.52,1.52,0,0,0-.24-2.23A185.2,185.2,0,0,1,170.06,265.76Z"/><path class="cls-7" d="M176.74,337.49c-.37-2.69-2.4-22.81-3.51-33.81l-5.28.59s7.7,63.33,8.21,84.05h2.44S177.25,341.21,176.74,337.49Z"/><path class="cls-2" d="M126.15,232h.42v1.5c0,.46.14.66.46.66s.43-.13.67-.42V232h.41v2.46h-.34l0-.39h0a1,1,0,0,1-.81.45c-.52,0-.76-.34-.76-1Z"/><path class="cls-2" d="M129.86,234.65v.83h-.41V232h.34l0,.28h0a1.26,1.26,0,0,1,.79-.34c.63,0,1,.49,1,1.25s-.5,1.33-1.07,1.33a1.15,1.15,0,0,1-.68-.29Zm.6-.49c.41,0,.71-.37.71-1s-.19-.9-.65-.9a1,1,0,0,0-.66.33v1.29A1,1,0,0,0,130.46,234.16Z"/><path class="cls-2" d="M132.69,233.89a1.13,1.13,0,0,0,.73.29c.32,0,.48-.17.48-.38s-.29-.36-.56-.47-.73-.29-.73-.7.31-.7.84-.7a1.2,1.2,0,0,1,.77.28l-.2.26a.89.89,0,0,0-.56-.22c-.31,0-.45.17-.45.36s.27.31.54.42.75.28.75.74-.32.74-.9.74a1.47,1.47,0,0,1-.91-.34Z"/><path class="cls-2" d="M135.6,233.87a.32.32,0,1,1-.3.32A.31.31,0,0,1,135.6,233.87Z"/><path class="cls-2" d="M137.37,233.87a.32.32,0,1,1-.31.32A.31.31,0,0,1,137.37,233.87Z"/><path class="cls-4" d="M101.56,220.21a7,7,0,0,0,7-6,13.28,13.28,0,0,0,.13-1.9,14,14,0,0,0-14-14c-.31,0-.63,0-.94,0a14.83,14.83,0,0,0-29.6,1.26c0,.36,0,.72,0,1.08a14.83,14.83,0,0,0-22,11.87c0,.06,0,.12,0,.18a7.08,7.08,0,0,0,7.09,7.44Z"/><path class="cls-4" d="M434.69,231.17c11,0,11.65-16.61.63-17.15l-.91,0a18.15,18.15,0,0,0-5.64.89,18.94,18.94,0,0,0-37.46.59,17.59,17.59,0,0,0-11.91-1.15c-9.65,2.48-7.62,16.84,2.34,16.84Z"/><path class="cls-4" d="M302.14,149.32c11,0,11.64-16.6.62-17.14l-.91,0a18.44,18.44,0,0,0-5.64.88,18.93,18.93,0,0,0-37.45.6,17.3,17.3,0,0,0-7.53-1.71,17.5,17.5,0,0,0-4.37.55c-9.65,2.49-7.62,16.84,2.34,16.84Z"/><circle class="cls-6" cx="126.45" cy="153.56" r="26.45"/><path class="cls-14" d="M126.66,127.11a26.46,26.46,0,0,1-14.5,48.58h-.22a26.45,26.45,0,1,0,14.72-48.57Z"/></g></g></svg>