<svg xmlns="http://www.w3.org/2000/svg" xmlns:xlink="http://www.w3.org/1999/xlink" width="177.718" height="172" viewBox="0 0 177.718 172"><defs><style>.a{fill:#fab991;}.b{fill:#f0915a;}.c{fill:#d7e6f0;}.d{fill:#a5c3dc;}.e{fill:#2387c3;}.f{fill:#0569a5;}.g{fill:#555a6e;}.h{filter:url(#a);}</style><filter id="a" x="0" y="73.978" width="177.718" height="98.022" filterUnits="userSpaceOnUse"><feOffset dy="3" input="SourceAlpha"/><feGaussianBlur stdDeviation="3" result="b"/><feFlood flood-color="#030303" flood-opacity="0.412"/><feComposite operator="in" in2="b"/><feComposite in="SourceGraphic"/></filter></defs><g transform="translate(-7 -16.04)"><g transform="translate(16.358 16.04)"><ellipse class="a" cx="79.821" cy="80" rx="79.821" ry="80" transform="translate(0)"/></g><g transform="translate(16 96.017)"><g class="h" transform="matrix(1, 0, 0, 1, -9, -79.98)"><path class="b" d="M95.859,336.022A79.941,79.941,0,0,0,175.718,256H16A79.941,79.941,0,0,0,95.859,336.022Z" transform="translate(-7 -176.02)"/></g></g><g transform="translate(29.309 45.337)"><path class="b" d="M58.663,125.1a2.668,2.668,0,0,1-1.392-4.943,110.029,110.029,0,0,1,15.3-7.8A108.793,108.793,0,0,1,114.483,104h16.129a108.783,108.783,0,0,1,41.911,8.354,110.065,110.065,0,0,1,15.3,7.8,2.666,2.666,0,0,1-2.779,4.55,104.709,104.709,0,0,0-14.56-7.421,103.492,103.492,0,0,0-39.873-7.948H114.483a103.5,103.5,0,0,0-39.874,7.948A104.688,104.688,0,0,0,60.05,124.7a2.642,2.642,0,0,1-1.387.393Z" transform="translate(-55.998 -104)"/></g><g transform="translate(16 58.674)"><path class="c" d="M103.923,144H87.795a96.111,96.111,0,0,0-68.03,28.236,12.9,12.9,0,0,0,0,18.214,96.11,96.11,0,0,0,68.03,28.236h16.129a96.111,96.111,0,0,0,68.03-28.236,12.9,12.9,0,0,0,0-18.214A96.11,96.11,0,0,0,103.923,144Z" transform="translate(-16 -144)"/></g><g transform="translate(16 58.674)"><path class="d" d="M171.953,172.236A96.109,96.109,0,0,0,103.923,144H87.795a96.11,96.11,0,0,0-68.03,28.236,12.874,12.874,0,0,0-3.483,11.775,12.884,12.884,0,0,1,3.483-6.44,96.109,96.109,0,0,1,68.03-28.236h16.129a96.11,96.11,0,0,1,68.03,28.236,12.886,12.886,0,0,1,3.483,6.44,12.874,12.874,0,0,0-3.483-11.775Z" transform="translate(-16 -144)"/></g><g transform="translate(59.473 58.557)"><ellipse class="e" cx="36.706" cy="37.483" rx="36.706" ry="37.483" transform="translate(0)"/></g><g transform="translate(75.372 58.674)"><path class="f" d="M206.854,149.335h16.129a96.016,96.016,0,0,1,12.422.812,37.213,37.213,0,0,0-40.973,0A96.019,96.019,0,0,1,206.854,149.335Z" transform="translate(-194.432 -144)"/></g><g transform="translate(80.448 79.816)"><ellipse class="g" cx="15.731" cy="16.224" rx="15.731" ry="16.224" transform="translate(0)"/></g><g transform="translate(74.622 74.221)"><ellipse class="c" cx="10.487" cy="10.629" rx="10.487" ry="10.629" transform="translate(0)"/></g></g></svg>