<svg xmlns="http://www.w3.org/2000/svg" xmlns:xlink="http://www.w3.org/1999/xlink" width="118.162" height="155.357" viewBox="0 0 118.162 155.357"><defs><style>.a{fill:#5ad7ff;}.b{fill:#2387c3;}.c{fill:#d73728;}.d{fill:#f05a4b;}.e{fill:#faa032;}.f{fill:#dc6950;}.g{fill:#c85541;}.h{fill:#fa876e;}.i{filter:url(#a);}</style><filter id="a" x="0" y="5.946" width="102.403" height="149.41" filterUnits="userSpaceOnUse"><feOffset dy="3" input="SourceAlpha"/><feGaussianBlur stdDeviation="3" result="b"/><feFlood flood-opacity="0.788"/><feComposite operator="in" in2="b"/><feComposite in="SourceGraphic"/></filter></defs><g transform="translate(-46.878 -16)"><g transform="translate(48 16)"><g transform="translate(31.511 40.618)"><path class="a" d="M160,152h16.881v4.779H160Z" transform="translate(-160 -152)"/></g><g transform="translate(7.878)"><path class="b" d="M82.752,159.357H76A76.327,76.327,0,0,1,81.221,131.5a72.9,72.9,0,0,1,14.867-23.619l2.317-2.46a67.292,67.292,0,0,0,18.11-46.411V16h6.752V59.007a76.327,76.327,0,0,1-5.221,27.861,72.9,72.9,0,0,1-14.867,23.619l-2.317,2.46A67.292,67.292,0,0,0,82.752,159.357Z" transform="translate(-76 -16)"/></g><g transform="translate(54.018 40.618)"><path class="b" d="M240,152h40.514v4.779H240Z" transform="translate(-240 -152)"/></g><g transform="translate(21.382)"><path class="c" d="M130.752,159.357H124a76.326,76.326,0,0,1,5.221-27.861,72.9,72.9,0,0,1,14.867-23.619l2.317-2.46a67.292,67.292,0,0,0,18.11-46.411V16h6.752V59.007a76.327,76.327,0,0,1-5.221,27.861,72.9,72.9,0,0,1-14.867,23.619l-2.317,2.46A67.292,67.292,0,0,0,130.752,159.357Z" transform="translate(-124 -16)"/></g><g transform="translate(61.896 43.007)"><path class="c" d="M315.266,260.35h-6.752A67.294,67.294,0,0,0,290.4,213.939l-2.317-2.459a72.9,72.9,0,0,1-14.867-23.619A76.327,76.327,0,0,1,268,160h6.752a67.294,67.294,0,0,0,18.109,46.411l2.317,2.459a72.9,72.9,0,0,1,14.867,23.619A76.326,76.326,0,0,1,315.266,260.35Z" transform="translate(-268 -160)"/></g><path class="d" d="M190.294,112.946l-2.317-2.459A72.9,72.9,0,0,1,173.11,86.868a76.326,76.326,0,0,1-5.221-27.861V16h-3.376V59.007a67.293,67.293,0,0,1-18.11,46.411l-2.317,2.46A72.89,72.89,0,0,0,129.221,131.5,76.324,76.324,0,0,0,124,159.357h3.376A76.327,76.327,0,0,1,132.6,131.5a72.9,72.9,0,0,1,14.867-23.619l2.317-2.46a66.352,66.352,0,0,0,16.34-30.726,76.116,76.116,0,0,0,3.614,12.176A72.9,72.9,0,0,0,184.6,110.486l2.317,2.459a67.3,67.3,0,0,1,18.11,46.411H208.4A67.294,67.294,0,0,0,190.294,112.946Z" transform="translate(-102.618 -16)"/><g transform="translate(31.511 7.168)"><path class="d" d="M160,40h33.761v4.779H160Z" transform="translate(-160 -40)"/></g><g transform="translate(65.272 7.168)"><path class="c" d="M280,40h29.26v4.779H280Z" transform="translate(-280 -40)"/></g><g transform="translate(48.391 43.007)"><path class="b" d="M267.266,260.35h-6.752A67.294,67.294,0,0,0,242.4,213.939l-2.317-2.459a72.893,72.893,0,0,1-14.867-23.619A76.327,76.327,0,0,1,220,160h6.752a67.294,67.294,0,0,0,18.109,46.411l2.317,2.459a72.9,72.9,0,0,1,14.866,23.619A76.326,76.326,0,0,1,267.266,260.35Z" transform="translate(-220 -160)"/></g><g class="i" transform="matrix(1, 0, 0, 1, -1.12, 0)"><path class="a" d="M142.294,141l-2.317-2.459a72.892,72.892,0,0,1-14.867-23.619,76.326,76.326,0,0,1-5.221-27.86V56h-3.376V87.061A67.293,67.293,0,0,1,98.4,133.472l-2.317,2.46A72.889,72.889,0,0,0,81.221,159.55,76.324,76.324,0,0,0,76,187.41h3.376A76.327,76.327,0,0,1,84.6,159.55a72.9,72.9,0,0,1,14.867-23.619l2.317-2.46a66.352,66.352,0,0,0,16.34-30.726,76.118,76.118,0,0,0,3.614,12.176A72.893,72.893,0,0,0,136.6,138.539L138.918,141a67.3,67.3,0,0,1,18.11,46.411H160.4A67.294,67.294,0,0,0,142.294,141Z" transform="translate(-67 -44.05)"/></g><g transform="translate(33.761 23.893)"><path class="e" d="M182.163,188.482l-7.025-7.458a9.8,9.8,0,0,1-2.637-6.758V105.557a4.651,4.651,0,0,0-4.5-4.779V96a9.3,9.3,0,0,1,9,9.557v68.709a4.9,4.9,0,0,0,1.318,3.379l7.025,7.458Z" transform="translate(-167.999 -96)"/></g><g transform="translate(68.182 23.893)"><path class="e" d="M293.526,188.482l-3.183-3.379,7.025-7.458a4.9,4.9,0,0,0,1.319-3.379V105.557a9.3,9.3,0,0,1,9-9.557v4.779a4.651,4.651,0,0,0-4.5,4.779v68.709a9.8,9.8,0,0,1-2.637,6.758Z" transform="translate(-290.343 -96)"/></g><path class="f" d="M70.508,16C58.077,16,48,26.7,48,39.893v4.779c0,13.2,10.077,23.893,22.508,23.893V39.893c6.215,0,11.254-5.349,11.254-11.946S76.723,16,70.508,16Z" transform="translate(-48 -16)"/><g transform="translate(0 14.336)"><path class="g" d="M81.761,75.946c0-6.6-5.039-11.946-11.254-11.946S59.254,69.349,59.254,75.946v1.195a5.637,5.637,0,1,1-11.254,0v1.195c0,13.2,10.077,23.893,22.508,23.893,6.215,0,11.254-5.349,11.254-11.946a12.381,12.381,0,0,0-2.251-7.168A12.381,12.381,0,0,0,81.761,75.946Z" transform="translate(-48 -64)"/></g><g transform="translate(83.278)"><path class="f" d="M355.254,16C349.039,16,344,21.349,344,27.946a12.381,12.381,0,0,0,2.251,7.168A12.381,12.381,0,0,0,344,42.282c0,6.6,5.039,11.946,11.254,11.946V68.564c12.431,0,22.508-10.7,22.508-23.893V39.893C377.761,26.7,367.684,16,355.254,16Z" transform="translate(-344 -16)"/></g><g transform="translate(83.278 17.92)"><path class="g" d="M372.134,76a5.808,5.808,0,0,0-5.627,5.973v2.389c0,6.6-5.039,11.946-11.254,11.946a11.034,11.034,0,0,1-9-4.779A12.381,12.381,0,0,0,344,98.7c0,6.6,5.039,11.946,11.254,11.946,12.431,0,22.508-10.7,22.508-23.893V81.973A5.808,5.808,0,0,0,372.134,76Z" transform="translate(-344 -76)"/></g><g transform="translate(2.251 2.389)"><path class="h" d="M58.251,47.893A2.323,2.323,0,0,1,56,45.5C56,33.646,65.087,24,76.257,24a2.394,2.394,0,0,1,0,4.779c-8.687,0-15.755,7.5-15.755,16.725A2.323,2.323,0,0,1,58.251,47.893Z" transform="translate(-56 -24)"/></g><g transform="translate(85.529 2.389)"><path class="h" d="M354.251,35.946A2.323,2.323,0,0,1,352,33.557,9.3,9.3,0,0,1,361,24a2.394,2.394,0,0,1,0,4.779,4.651,4.651,0,0,0-4.5,4.779A2.323,2.323,0,0,1,354.251,35.946Z" transform="translate(-352 -24)"/></g><g transform="translate(36.012 109.907)"><path class="f" d="M176,398.336c0,7.917,6.046,14.336,13.5,14.336a4.646,4.646,0,0,1,4.5,4.779h9a4.646,4.646,0,0,1,4.5-4.779c7.458,0,13.5-6.418,13.5-14.336S214.969,384,207.511,384H189.5C182.046,384,176,390.418,176,398.336Z" transform="translate(-176 -384)"/></g><g transform="translate(38.263 112.296)"><path class="h" d="M186.251,406.336A2.323,2.323,0,0,1,184,403.946c0-6.587,5.048-11.946,11.254-11.946H213.26a2.394,2.394,0,0,1,0,4.779H195.254a6.977,6.977,0,0,0-6.752,7.168A2.323,2.323,0,0,1,186.251,406.336Z" transform="translate(-184 -392)"/></g><g transform="translate(36.012 109.907)"><path class="g" d="M207.511,384a7.181,7.181,0,0,1,0,14.336H176c0,7.917,6.046,14.336,13.5,14.336a4.646,4.646,0,0,1,4.5,4.779h9a4.646,4.646,0,0,1,4.5-4.779c7.458,0,13.5-6.418,13.5-14.336S214.969,384,207.511,384Z" transform="translate(-176 -384)"/></g></g><path class="a" d="M220,16h3.376v7.168H220Z" transform="translate(-123.609)"/></g></svg>