<svg xmlns="http://www.w3.org/2000/svg" width="45" height="45" viewBox="0 0 45 45"><defs><style>.a{fill:#60e2f4;}.b{fill:#29c5ec;}.c{fill:#cddbf9;}.d{fill:#f3f6ff;}.e{fill:#3c4a83;}.f{fill:#48588b;}.g{fill:#ea0016;}.h{fill:#ff641a;}</style></defs><g transform="translate(0 0)"><path class="a" d="M16.394,33.152,34.031,15.515A8.036,8.036,0,0,0,44.447,5.1L40.378,9.168l-3.585-.96-.96-3.585L39.9.554A8.036,8.036,0,0,0,29.485,10.969L11.848,28.606a8.531,8.531,0,1,0,4.545,4.545ZM6.259,38.741a3.214,3.214,0,1,1,4.545,0A3.214,3.214,0,0,1,6.259,38.741Z" transform="translate(0 0)"/><path class="b" d="M40.5,95.417a8.532,8.532,0,0,1-12.065,0l3.76-3.76a3.214,3.214,0,0,0,4.545-4.545L62.725,61.124l3.585.96,4.069-4.069A8.036,8.036,0,0,1,59.963,68.431L42.326,86.068a8.534,8.534,0,0,1-1.83,9.349Z" transform="translate(-25.932 -52.916)"/><path class="c" d="M32.721,30.856,8.454,6.589l1.671-1.671L3.887,0,0,3.886l4.917,6.238L6.589,8.454,30.856,32.72Z" transform="translate(-0.001 -0.001)"/><path class="d" d="M31.788,51.95,1.944,22.105,0,24.048l4.917,6.238,1.671-1.671L30.856,52.882Z" transform="translate(-0.001 -20.162)"/><path class="e" d="M304.439,310.813l4.546,4.545,1.974-.027,4.4-4.4,0-1.944-4.546-4.545Z" transform="translate(-277.682 -277.682)"/><path class="f" d="M304.439,343.886l4.546,4.545,1.974-.027,2.186-2.186-5.519-5.519Z" transform="translate(-277.682 -310.755)"/><path class="g" d="M356.157,362.53l6,6a4.507,4.507,0,1,0,6.374-6.374l-6-6Z" transform="translate(-324.854 -324.853)"/><path class="h" d="M356.157,395.6l6,6a4.507,4.507,0,0,0,6.374,0l-9.19-9.19Z" transform="translate(-324.854 -357.927)"/></g></svg>