<svg xmlns="http://www.w3.org/2000/svg" xmlns:xlink="http://www.w3.org/1999/xlink" width="193.64" height="198.274" viewBox="0 0 193.64 198.274"><defs><style>.a{fill:#f0f0d9;}.b{fill:#aabece;}.c{fill:#fafafa;}.d{filter:url(#a);}</style><filter id="a" x="0" y="0" width="193.64" height="198.274" filterUnits="userSpaceOnUse"><feOffset dy="5" input="SourceAlpha"/><feGaussianBlur stdDeviation="10" result="b"/><feFlood flood-opacity="0.361"/><feComposite operator="in" in2="b"/><feComposite in="SourceGraphic"/></filter></defs><g transform="translate(23.525 20.616)"><g class="d" transform="matrix(1, 0, 0, 1, -23.53, -20.62)"><path class="a" d="M138.64,45.913C138.64,22.416,122.861,3,101.518,3a39.292,39.292,0,0,0-22.273,7.152,13.773,13.773,0,0,1-14.849,0A39.292,39.292,0,0,0,42.122,3C20.779,3,5,22.416,5,45.913c0,10.68,5.469,20.245,9.9,28.608,21.085,39.813,26.2,66.753,39.6,66.753,8.281,0,9.9-5.226,9.9-23.84,0-21.273,1.9-26.224,7.424-26.224s7.424,4.952,7.424,26.224c0,18.615,1.619,23.84,9.9,23.84,13.394,0,18.512-26.94,39.6-66.753C133.171,66.158,138.64,56.593,138.64,45.913Z" transform="translate(25 22)"/></g><path class="b" d="M53.057,15.818A44.062,44.062,0,0,1,28.4,9.014L31.37,5.2c.606.436,15.1,10.576,38.278,3.128l1.567,4.53a59.181,59.181,0,0,1-18.158,2.961Z" transform="translate(35.986 4.429)"/><path class="c" d="M12.95,41.93,8,41.591C10.094,13.438,29.959,6,40.173,6v4.768C39.163,10.768,15.217,11.273,12.95,41.93Z" transform="translate(5.899 5.536)"/><rect class="c" width="5" height="3" transform="translate(13 53.01)"/><path class="b" d="M53.215,50.994l-4.029-2.77C60.865,32.472,61.1,21.1,61.1,21h4.95C66.049,21.517,65.9,33.874,53.215,50.994Z" transform="translate(66.641 26.297)"/><path d="M14.169,76.99C21.237,90.34,26.6,102.439,30.9,112.168c9.075,20.5,14.552,32.873,25.067,32.873,11.154,0,12.374-8.4,12.374-26.224,0-22.048,2.242-23.84,4.95-23.84s4.95,1.793,4.95,23.84c0,17.825,1.22,26.224,12.374,26.224,10.516,0,15.992-12.373,25.067-32.873,4.306-9.729,9.667-21.835,16.735-35.179l.829-1.564c4.39-8.218,9.34-17.535,9.34-28.129,0-25.4-17.393-45.3-39.6-45.3A42.035,42.035,0,0,0,79.217,9.643a11.264,11.264,0,0,1-11.844,0A42.035,42.035,0,0,0,43.6,2C21.393,2,4,21.9,4,47.3c0,10.595,4.962,19.911,9.34,28.132ZM43.6,6.768a36.733,36.733,0,0,1,20.771,6.661h0A44.061,44.061,0,0,0,89.035,20.24,59.182,59.182,0,0,0,107.2,17.282l-1.567-4.53a50.452,50.452,0,0,1-25.441,1.867,12.1,12.1,0,0,0,2.027-1.192,36.733,36.733,0,0,1,20.774-6.659c19.43,0,34.647,17.8,34.647,40.529,0,9.443-4.672,18.214-8.793,25.953l-.836,1.571c-7.145,13.494-12.54,25.683-16.876,35.477-7.991,18.057-13.27,29.977-20.516,29.977-5.388,0-7.424-1.85-7.424-21.456,0-20.174-1.376-28.608-9.9-28.608s-9.9,8.435-9.9,28.608c0,19.606-2.037,21.456-7.424,21.456-7.246,0-12.525-11.92-20.516-29.977C31.119,100.5,25.724,88.314,18.579,74.82l-.836-1.571C13.622,65.511,8.95,56.74,8.95,47.3,8.95,24.57,24.167,6.768,43.6,6.768Z" transform="translate(0 0)"/><path d="M40.173,10.768V6C29.959,6,10.094,13.438,8,41.591l4.95.339C15.217,11.273,39.163,10.768,40.173,10.768Z" transform="translate(5.899 5.536)"/><rect width="5" height="3" transform="translate(13 53.01)"/><path d="M66.049,21H61.1c0,.112-.235,11.481-11.914,27.233L53.215,51C65.9,33.874,66.049,21.517,66.049,21Z" transform="translate(66.641 26.297)"/></g></svg>