<svg xmlns="http://www.w3.org/2000/svg" xmlns:xlink="http://www.w3.org/1999/xlink" width="179.346" height="157.532" viewBox="0 0 179.346 157.532"><defs><style>.a{fill:#fde4e4;}.b{fill:#ff637b;}.c{fill:#52dddc;}.d{filter:url(#a);}</style><filter id="a" x="0" y="0" width="179.346" height="157.532" filterUnits="userSpaceOnUse"><feOffset dy="3" input="SourceAlpha"/><feGaussianBlur stdDeviation="3" result="b"/><feFlood flood-opacity="0.851"/><feComposite operator="in" in2="b"/><feComposite in="SourceGraphic"/></filter></defs><g transform="translate(7.247 -4.188)"><g transform="translate(1.753 10.188)"><g class="d" transform="matrix(1, 0, 0, 1, -9, -6)"><path class="a" d="M139.29,17.407H104.45c-4.925-3.223-12.863-7.219-22.023-7.219s-17.1,4-22.023,7.219H25.561A23.839,23.839,0,0,0,1.753,41.224,17.4,17.4,0,0,0,19.13,58.607h1.951a10.428,10.428,0,0,1,0-10.372H19.136a7.019,7.019,0,0,1-7.009-7.011,13.458,13.458,0,0,1,13.44-13.446h33.52l3.419,5.489A19.193,19.193,0,0,1,60.89,55.629C54.4,63.519,50.329,74.92,50.329,87.6c0,13.911,4.9,26.282,12.512,34.168a18.95,18.95,0,0,1,4.112,19.175l-2.938,8.774h36.822L97.9,140.945a18.95,18.95,0,0,1,4.112-19.175c7.609-7.886,12.512-20.257,12.512-34.168,0-12.682-4.075-24.083-10.561-31.973a19.193,19.193,0,0,1-1.616-22.361l3.419-5.489H139.29a13.458,13.458,0,0,1,13.441,13.446,7.019,7.019,0,0,1-7.009,7.011h-1.944a10.424,10.424,0,0,1,0,10.372h1.944A17.4,17.4,0,0,0,163.1,41.224,23.84,23.84,0,0,0,139.29,17.407Z" transform="translate(7.25 -4.19)"/></g><path class="b" d="M61.317,141.074c.912-9.366-1.373-18.786-6.21-25.6-4.526-6.347-7.229-16.644-7.229-27.539,0-10.022,2.253-19.478,6.182-25.942,6.434-10.487,7.2-25.361,1.907-36.956l-1.321-2.867A17.006,17.006,0,0,1,64,18.832a16.989,16.989,0,0,1,9.354,3.34L72.032,25.04C66.738,36.636,67.506,51.51,73.94,62c3.928,6.464,6.182,15.92,6.182,25.942,0,10.9-2.7,21.194-7.23,27.539-4.836,6.813-7.121,16.232-6.209,25.6Z" transform="translate(16.673 -10.188)"/><ellipse class="c" cx="10.651" cy="9.22" rx="10.651" ry="9.22" transform="translate(13.847 32.759)"/><ellipse class="c" cx="10.651" cy="9.22" rx="10.651" ry="9.22" transform="translate(126.198 32.759)"/></g><g transform="translate(0 8.438)"><path d="M73.518,26.815l1.321-2.842a3.045,3.045,0,0,0,.2-1.871,2.318,2.318,0,0,0-.895-1.461A18.276,18.276,0,0,0,64,17.082a18.273,18.273,0,0,0-10.144,3.556,2.313,2.313,0,0,0-.9,1.46,3.044,3.044,0,0,0,.2,1.873l1.321,2.844c4.9,10.627,4.184,24.259-1.774,33.865-4.176,6.811-6.575,16.728-6.575,27.18,0,11.39,2.886,22.188,7.72,28.9,4.473,6.232,6.584,14.855,5.733,23.426A2.91,2.91,0,0,0,60,142.03a1.6,1.6,0,0,0,1.313.795h5.366A1.6,1.6,0,0,0,68,142.03a2.91,2.91,0,0,0,.423-1.845c-.851-8.571,1.259-17.2,5.733-23.426A45.422,45.422,0,0,0,81.27,96.824,2.388,2.388,0,0,0,79.863,94.1c-.951-.233-1.862.611-2.036,1.885a40.006,40.006,0,0,1-6.194,17.52c-4.736,6.582-7.22,15.5-6.859,24.634H63.226c.361-9.13-2.123-18.052-6.859-24.634-4.22-5.857-6.739-15.442-6.739-25.641,0-9.391,2.108-18.211,5.784-24.2,6.912-11.161,7.734-26.99,2.041-39.326l-.273-.586a12.751,12.751,0,0,1,13.639,0l-.272.584C64.854,36.669,65.676,52.5,72.588,63.659a1.57,1.57,0,0,0,1.656.888,1.978,1.978,0,0,0,1.377-1.52,2.977,2.977,0,0,0-.333-2.348c-5.954-9.608-6.667-23.237-1.77-33.864Z" transform="translate(18.312 -8.438)"/><path d="M78.088,65.49a1.75,1.75,0,0,0,3.471-.451,35.883,35.883,0,0,0-.849-4.388,1.75,1.75,0,1,0-3.387.88,32.386,32.386,0,0,1,.765,3.959Z" transform="translate(23.02 7.262)"/><path d="M138.935,15.6H104.976C99.7,12.25,91.667,8.438,82.426,8.438S65.154,12.25,59.876,15.6H25.917A25.934,25.934,0,0,0,0,41.5a19.538,19.538,0,0,0,19.526,19.51h.707a16.5,16.5,0,0,0,13.575,6.719c8.807,0,15.97-6.335,15.97-14.12a2.254,2.254,0,0,0-4.508,0c0,5.3-5.141,9.615-11.462,9.615s-11.462-4.313-11.462-9.615S27.487,44,33.808,44a2.252,2.252,0,1,0,0-4.5,16.5,16.5,0,0,0-13.575,6.719h-.707A4.715,4.715,0,0,1,14.811,41.5a11.113,11.113,0,0,1,11.1-11.1H57.982L60.717,34.8a16.813,16.813,0,0,1-1.432,19.578c-7,8.5-11.009,20.594-11.009,33.173,0,13.955,4.765,26.889,13.065,35.486a16.458,16.458,0,0,1,3.57,16.757l-2.92,8.711a2.253,2.253,0,0,0,2.137,2.968h36.595a2.254,2.254,0,0,0,2.137-2.968l-2.917-8.711a16.455,16.455,0,0,1,3.57-16.757c8.3-8.6,13.065-21.531,13.065-35.486,0-12.58-4.013-24.672-11.009-33.174A16.811,16.811,0,0,1,104.134,34.8l2.736-4.389h32.069a11.113,11.113,0,0,1,11.1,11.1,4.715,4.715,0,0,1-4.711,4.708h-.707a16.5,16.5,0,0,0-13.576-6.719c-8.805,0-15.97,6.334-15.97,14.12s7.165,14.12,15.97,14.12a16.5,16.5,0,0,0,13.576-6.719h.707A19.538,19.538,0,0,0,164.853,41.5,25.934,25.934,0,0,0,138.935,15.6Zm-7.891,47.624c-6.321,0-11.462-4.313-11.462-9.615S124.723,44,131.044,44s11.462,4.313,11.462,9.615-5.14,9.614-11.462,9.614Zm15.649-6.79a12.444,12.444,0,0,0-.049-5.828,9.222,9.222,0,0,0,7.905-9.108,15.623,15.623,0,0,0-15.611-15.6h-33.32a2.255,2.255,0,0,0-1.914,1.062l-3.4,5.45a21.307,21.307,0,0,0,1.777,24.821c6.344,7.71,9.983,18.759,9.983,30.313,0,12.8-4.3,24.593-11.8,32.357a20.943,20.943,0,0,0-4.6,21.316l1.924,5.743H67.262l1.924-5.743a20.943,20.943,0,0,0-4.6-21.317c-7.5-7.764-11.8-19.564-11.8-32.357,0-11.555,3.638-22.6,9.983-30.312a21.311,21.311,0,0,0,1.777-24.822l-3.4-5.45A2.252,2.252,0,0,0,59.234,25.9H25.917A15.623,15.623,0,0,0,10.3,41.5a9.22,9.22,0,0,0,7.905,9.1,12.444,12.444,0,0,0-.049,5.828A15.024,15.024,0,0,1,4.508,41.5,21.423,21.423,0,0,1,25.913,20.111H60.541a2.259,2.259,0,0,0,1.234-.367c4.746-3.1,12.181-6.8,20.652-6.8s15.906,3.7,20.652,6.8a2.259,2.259,0,0,0,1.234.367h34.623A21.424,21.424,0,0,1,160.345,41.5a15.024,15.024,0,0,1-13.652,14.936Z" transform="translate(0 -8.438)"/></g></g></svg>