<svg xmlns="http://www.w3.org/2000/svg" xmlns:xlink="http://www.w3.org/1999/xlink" width="752.889" height="566" viewBox="0 0 752.889 566"><defs><style>.a,.e{fill:#0293aa;}.a,.d,.g{opacity:0.1;}.b{fill:url(#a);}.c{fill:#fff;}.f{fill:#3f3d56;}.h{fill:#fbbebe;}.i{fill:url(#b);}.j{fill:#cf6f80;}.k{fill:#512e4e;}.l{fill:#535461;}.m{fill:#9d9cb5;}.n{fill:none;stroke:#535461;stroke-miterlimit:10;stroke-width:2px;}</style><linearGradient id="a" x1="0.5" y1="1" x2="0.5" gradientUnits="objectBoundingBox"><stop offset="0" stop-color="gray" stop-opacity="0.251"/><stop offset="0.54" stop-color="gray" stop-opacity="0.122"/><stop offset="1" stop-color="gray" stop-opacity="0.102"/></linearGradient><linearGradient id="b" x1="0.5" y1="1" x2="0.5" y2="0" xlink:href="#a"/></defs><g transform="translate(0.002 -0.003)"><path class="a" d="M91.624,356.76h65.42V447.5H96.407c-.155.938-.309,1.869-.483,2.807h61.12V523.47a.91.91,0,0,1-.3-.118q-2.579-1.043-5.157-2.211c-.367-.171-.728-.348-1.1-.512q-2.579-1.24-5.157-2.624c-.6-.321-1.2-.656-1.786-1a107.567,107.567,0,0,1-25.722-20.374c-.226-.216-.432-.453-.645-.656-1.044-1.154-2.069-2.322-3.062-3.516-.374-.439-.735-.886-1.1-1.312-1.173-1.456-2.308-2.965-3.4-4.48-.168-.23-.322-.453-.483-.656a97.407,97.407,0,0,1-11.088-20.4c-.09-.216-.174-.453-.258-.656-.89-2.3-1.7-4.624-2.392-7-.3-.991-.587-1.968-.832-3-.09-.3-.161-.6-.239-.892-3.623-14.529-4.042-29.629-4.042-44.657v-5.248q.077-9.2.213-18.386.052-2.361.1-4.743.135-6.028.387-12.083c.039-1.115.09-2.237.148-3.345q.039-.964.1-1.928Q91.385,360.2,91.624,356.76Z" transform="translate(-42.185 -134.916)"/><path class="a" d="M174.068,178.54H138.18a277.83,277.83,0,0,1,19.088-26.724c5.338-6.664,10.959-13.158,16.8-19.416Z" transform="translate(-59.209 -57.725)"/><path class="a" d="M157.9,207v95.428H92.69c0-.276.039-.558.064-.833.058-.754.116-1.5.18-2.256.064-.879.148-1.758.232-2.624s.168-1.915.271-2.866.187-1.915.29-2.867.206-1.9.322-2.847.219-1.9.348-2.847c.1-.781.193-1.568.3-2.355.148-1.109.3-2.217.464-3.319a3.208,3.208,0,0,1,.077-.5,232.413,232.413,0,0,1,4.8-23.955,179.522,179.522,0,0,1,8.091-24.27A183.452,183.452,0,0,1,120.3,207Z" transform="translate(-43.045 -83.391)"/><path class="a" d="M218.09,240.4v90.738H357.827V240.4Zm0,93.545v77.927c.8.164,1.586.328,2.379.466,1.064.21,2.134.4,3.223.564l.645.092c.425.072.857.131,1.289.184,1.077.157,2.153.275,3.223.38.5.052,1.025.092,1.534.138l1.244.092h0c.677.052,1.347.092,2.018.118.413,0,.825.033,1.244.046s.645,0,.98,0h3.584c.554,0,1.109,0,1.657-.052h.032a9.7,9.7,0,0,0,1.154-.046,2.774,2.774,0,0,0,.329,0,7.638,7.638,0,0,0,.954-.039,1.327,1.327,0,0,1,.219,0c.716-.046,1.438-.1,2.166-.171s1.418-.144,2.147-.223l1.463-.184a126.458,126.458,0,0,0,17.7-3.831c13.042-3.7,25.786-8.875,38.822-12.66,16.839-4.887,35.456-7.294,51.728-1.345V333.95ZM357.827,139.374V18.574a176.618,176.618,0,0,0-45.4,5.412c-35.386,9.046-67.161,28.665-94.34,53.723v61.66h7.033v2.8H218.09V237.6H357.827V142.169H253.895v-2.807ZM537.352,98.568a57.108,57.108,0,0,1-25.335-7.491c-15.046-8.324-27.076-21.194-40.511-32.043-27.914-22.611-62.532-36.261-98.047-39.646V139.374H572.925l.5-.531Zm18.173-3.28,19.269,21.522V89.627c-6.485.833-12.133,2.768-19.269,5.635Zm19.269,335.94V333.95H533.7c-.1-.413-.219-.833-.348-1.253.122.42.232.84.342,1.253H373.46v70.344c1.521,1.148,3.023,2.361,4.513,3.582h0q2.411,2.007,4.79,4.06l1.6,1.345c.767.656,1.547,1.312,2.321,1.935q2.327,1.909,4.687,3.778,1.18.945,2.372,1.856a323.172,323.172,0,0,0,39.737,26.441c3.107,1.765,6.247,3.464,9.406,5.123q3.152,1.653,6.35,3.24,4.8,2.381,9.67,4.592h0a350.337,350.337,0,0,0,94.121,27.891q10.817,1.62,21.732,2.558V431.215h.645ZM373.46,142.169V237.6H574.794V142.169Zm0,98.222v90.751H574.794V240.4ZM590.421,89.5v30.371L615.008,92.4Q602.785,90.349,590.421,89.5Zm0,150.909v90.738H786.237V240.4ZM785.547,438.423l.69-104.474H590.421v157.8a346.767,346.767,0,0,0,37.842-.466h.219q9.025-.59,17.967-1.679h.135a325.9,325.9,0,0,0,92.335-25.1m85.1-209.2q-1.115-2.624-2.289-5.248c-1.457-3.28-2.991-6.468-4.577-9.649H801.87v90.731h38.622c-.032-25.7-6.427-51.938-16.478-75.835ZM801.87,333.95v89.866a128.466,128.466,0,0,0,26.689-36.628c7.962-16.72,11.6-34.811,11.907-53.244Zm0-119.987v23.614h13.847a257.563,257.563,0,0,0-13.847-23.614ZM669.07,107.3c-1.019-.4-2.044-.8-3.069-1.181A275.006,275.006,0,0,0,632.93,96.009l-37.635,42.02h0l-.735.807.483.531H728.991A284.5,284.5,0,0,0,669.07,107.3Zm63.854,34.864H593.167l-2.746,2.552V237.6H786.237v-45a280.775,280.775,0,0,0-53.314-50.43Z" transform="translate(-87.604 -18.56)"/><path class="a" d="M157.9,280.39v47.288H92.69c0-.276.039-.558.064-.833.058-.754.116-1.5.18-2.256.064-.879.148-1.758.232-2.624s.168-1.915.271-2.867.187-1.915.29-2.867.206-1.9.322-2.847.219-1.9.348-2.847c.1-.781.193-1.568.3-2.355.148-1.109.3-2.217.464-3.319a3.208,3.208,0,0,1,.077-.5,232.413,232.413,0,0,1,4.8-23.955Z" transform="translate(-43.045 -108.641)"/><path class="a" d="M91.624,356.76h65.42V447.5H96.407c-.155.938-.309,1.869-.483,2.807h61.12V523.47a.91.91,0,0,1-.3-.118q-2.579-1.043-5.157-2.211c-.367-.171-.728-.348-1.1-.512q-2.579-1.24-5.157-2.624c-.6-.321-1.2-.656-1.786-1a107.567,107.567,0,0,1-25.722-20.374c-.226-.216-.432-.453-.645-.656-1.044-1.154-2.069-2.322-3.062-3.516-.374-.439-.735-.886-1.1-1.312-1.173-1.456-2.308-2.965-3.4-4.48-.168-.23-.322-.453-.483-.656a97.407,97.407,0,0,1-11.088-20.4c-.09-.216-.174-.453-.258-.656-.89-2.3-1.7-4.624-2.392-7-.3-.991-.587-1.968-.832-3-.09-.3-.161-.6-.239-.892-3.623-14.529-4.042-29.629-4.042-44.657v-5.248q.077-9.2.213-18.386.052-2.361.1-4.743.135-6.028.387-12.083c.039-1.115.09-2.237.148-3.345q.039-.964.1-1.928Q91.385,360.2,91.624,356.76Z" transform="translate(-42.185 -134.916)"/><path class="a" d="M251.324,194.761v81.758H202.13V194.761h7.014V167.08h28.791v27.681Z" transform="translate(-71.65 -57.482)"/><rect class="a" width="49.188" height="90.738" transform="translate(130.48 221.838)"/><path class="a" d="M218.09,499.37h49.188V574.8a125.492,125.492,0,0,1-17.7,3.824c-.49.072-.973.131-1.463.184-.722.085-1.438.164-2.153.23l-2.16.177h-.219l-.954.052H242.3c-.387,0-.767.046-1.154.052h-.032c-.554,0-1.1.039-1.657.052H234.9a9.969,9.969,0,0,1-1.251-.052q-.993-.039-2.011-.118h0l-1.244-.092c-.516-.039-1.031-.092-1.541-.144q-1.625-.144-3.223-.374l-1.289-.184-.645-.092c-1.077-.164-2.147-.348-3.223-.558-.8-.144-1.586-.308-2.379-.479Z" transform="translate(-87.604 -183.98)"/><rect class="a" width="40.562" height="91.407" transform="translate(446.622 127.623)"/><path class="a" d="M644.484,338.19v90.745H443.15V389.794H550.389v23.09h53.526V338.19Z" transform="translate(-157.294 -116.352)"/><path class="a" d="M661.073,596.01a3.587,3.587,0,0,1-.645-.039V655.5q-10.9-.912-21.725-2.552a350.8,350.8,0,0,1-94.159-27.878q-12.977-5.956-25.425-12.981a324.359,324.359,0,0,1-39.73-26.441q-4.758-3.7-9.373-7.563c-2.134-1.8-4.248-3.634-6.4-5.412-1.483-1.227-2.985-2.44-4.513-3.595V498.713H619.337c-.116-.42-.219-.833-.335-1.253.122.42.239.833.342,1.253h41.091v97.252C660.647,595.971,660.86,595.991,661.073,596.01Z" transform="translate(-173.244 -183.323)"/><path class="a" d="M920.941,185.3H894.51v-8.357h11.842V152.05q1.541.577,3.069,1.181v23.713h11.514Z" transform="translate(-327.962 -64.486)"/><path class="a" d="M949.5,302.428H819.728a.082.082,0,0,0,.039,0H795.65V211.021h6.82v67.563h31.163V238.571h25.754V207h26.431v31.591H911.56V278.6h37.945Z" transform="translate(-292.833 -83.391)"/><path class="a" d="M795.65,356.76V447.5H949.505V356.76Zm195.6,197.54.219-71.827H949.505V450.332H795.65V608.108a346.775,346.775,0,0,0,37.842-.466h.219q9.025-.59,17.967-1.679h.135a325.9,325.9,0,0,0,92.335-25.1" transform="translate(-292.833 -134.916)"/><path class="a" d="M1126.357,499.37h35.888c-.309,18.426-3.945,36.523-11.907,53.237a128.407,128.407,0,0,1-26.689,36.635V531.518h2.707Z" transform="translate(-409.384 -183.98)"/><path class="a" d="M1163.764,455.315H1127.85V379.48h19.436C1157.337,403.376,1163.732,429.615,1163.764,455.315Z" transform="translate(-410.876 -142.732)"/><rect class="a" width="21.732" height="28.659" transform="translate(465.459 153.035)"/><rect class="a" width="21.732" height="6.599" transform="translate(465.459 212.438)"/><rect class="a" width="21.732" height="19.252" transform="translate(465.459 221.838)"/><rect class="a" width="21.732" height="28.659" transform="translate(465.459 271.841)"/><rect class="a" width="21.732" height="28.659" transform="translate(465.459 331.244)"/><path class="a" d="M759.432,636.094a3.079,3.079,0,0,1,.645.046,3.586,3.586,0,0,1-.645-.039v6.658H737.7V614.1h21.732Z" transform="translate(-272.241 -223.453)"/><path class="a" d="M759.432,704.65v22.132q-10.908-.912-21.732-2.552V704.65Z" transform="translate(-272.241 -254.606)"/><rect class="a" width="93.134" height="2.106" transform="translate(285.856 310.477)"/><rect class="a" width="93.134" height="8.068" transform="translate(285.856 315.383)"/><rect class="a" width="93.134" height="12.975" transform="translate(285.856 349.899)"/><path class="a" d="M554.722,612.08v12.975H481.875q-4.758-3.686-9.373-7.57c-2.14-1.791-4.255-3.627-6.4-5.405Z" transform="translate(-175.731 -222.758)"/><path class="a" d="M585.316,672.17v13.008h-7.691Q564.648,679.221,552.2,672.2Z" transform="translate(-206.326 -243.432)"/><rect class="a" width="18.334" height="18.655" transform="translate(540.659 230.634)"/><rect class="a" width="18.334" height="18.655" transform="translate(143.689 143.714)"/><rect class="a" width="18.334" height="18.655" transform="translate(143.689 187.046)"/><rect class="a" width="18.334" height="18.655" transform="translate(143.689 230.378)"/><rect class="a" width="18.334" height="18.655" transform="translate(143.689 273.704)"/><rect class="a" width="18.334" height="18.655" transform="translate(143.689 317.036)"/><rect class="a" width="18.334" height="18.655" transform="translate(143.689 360.368)"/><rect class="a" width="18.334" height="18.655" transform="translate(610.65 230.634)"/><rect class="a" width="18.334" height="18.655" transform="translate(540.659 276.649)"/><rect class="a" width="18.334" height="18.655" transform="translate(610.65 276.649)"/><rect class="a" width="18.334" height="18.655" transform="translate(540.659 322.658)"/><rect class="a" width="18.334" height="18.655" transform="translate(610.65 322.658)"/><rect class="a" width="18.334" height="18.655" transform="translate(540.659 368.673)"/><rect class="a" width="18.334" height="18.655" transform="translate(610.65 368.673)"/><rect class="a" width="18.334" height="18.655" transform="translate(540.659 414.688)"/><rect class="a" width="18.334" height="18.655" transform="translate(610.65 414.688)"/><path class="a" d="M838.4,714.36V702.33h18.328v10.318Z" transform="translate(-297.741 -241.634)"/><path class="a" d="M96.53,316.91v10.672h62.739V316.91Zm6.247,10H97.619v-9.328h5.157Zm6.247,0h-5.157v-9.328h5.157Zm6.234,0H110.1v-9.328h5.157Zm6.247,0h-5.157v-9.328H121.5Zm6.24,0h-5.157v-9.328h5.157Zm6.247,0h-5.157v-9.328h5.157Zm6.247,0h-5.157v-9.328h5.157Zm6.24,0h-5.157v-9.328h5.157Zm6.24,0h-5.157v-9.328h5.157Zm6.247,0h-5.157v-9.328h5.157Z" transform="translate(-44.409 -121.205)"/><path class="a" d="M96.53,364.27v10.672h62.739V364.27Zm6.247,10H97.619v-9.328h5.157Zm6.247,0h-5.157v-9.328h5.157Zm6.234,0H110.1v-9.328h5.157Zm6.247,0h-5.157v-9.328H121.5Zm6.24,0h-5.157v-9.328h5.157Zm6.247,0h-5.157v-9.328h5.157Zm6.247,0h-5.157v-9.328h5.157Zm6.24,0h-5.157v-9.328h5.157Zm6.24,0h-5.157v-9.328h5.157Zm6.247,0h-5.157v-9.328h5.157Z" transform="translate(-44.409 -137.499)"/><path class="a" d="M96.53,411.64v10.666h62.739V411.64Zm6.247,9.99H97.619V412.3h5.157Zm6.247,0h-5.157V412.3h5.157Zm6.234,0H110.1V412.3h5.157Zm6.247,0h-5.157V412.3H121.5Zm6.24,0h-5.157V412.3h5.157Zm6.247,0h-5.157V412.3h5.157Zm6.247,0h-5.157V412.3h5.157Zm6.24,0h-5.157V412.3h5.157Zm6.24,0h-5.157V412.3h5.157Zm6.247,0h-5.157V412.3h5.157Z" transform="translate(-44.409 -153.797)"/><path class="a" d="M96.53,459v10.666h62.739V459Zm6.247,10H97.619v-9.341h5.157Zm6.247,0h-5.157v-9.341h5.157Zm6.234,0H110.1v-9.341h5.157Zm6.247,0h-5.157v-9.341H121.5Zm6.24,0h-5.157v-9.341h5.157Zm6.247,0h-5.157v-9.341h5.157Zm6.247,0h-5.157v-9.341h5.157Zm6.24,0h-5.157v-9.341h5.157Zm6.24,0h-5.157v-9.341h5.157Zm6.247,0h-5.157v-9.341h5.157Z" transform="translate(-44.409 -170.091)"/><path class="a" d="M97,506.34c.245,1.01.535,2.007.832,3v-2.322h5.157v9.321h-2.766c.077.223.161.453.251.656h58.987V506.34Zm12.249,10h-5.157v-9.321h5.157Zm6.234,0h-5.157v-9.321h5.157Zm6.247,0h-5.157v-9.321h5.157Zm6.24,0h-5.157v-9.321h5.157Zm6.247,0h-5.157v-9.321h5.157Zm6.247,0h-5.157v-9.321h5.157Zm6.24,0h-5.157v-9.321H146.7Zm6.24,0h-5.157v-9.321h5.157Zm6.247,0h-5.157v-9.321h5.157Z" transform="translate(-44.576 -186.378)"/><path class="a" d="M119.54,553.7c.168.21.322.446.483.656h3.41v4.48l1.1,1.312V554.33h5.157v9.406h-2.121c.206.216.406.446.645.656h39.215V553.7Zm16.413,10.036H130.8v-9.367h5.157Zm6.247,0h-5.157v-9.367H142.2Zm6.247,0h-5.157v-9.367h5.157Zm6.24,0H149.53v-9.367h5.157Zm6.24,0H155.77v-9.367h5.157Zm6.247,0h-5.157v-9.367h5.157Z" transform="translate(-52.585 -202.672)"/><path class="a" d="M172.93,601.06c.593.341,1.193.656,1.792.991v-.328h5.157v2.958c.374.164.728.341,1.1.512v-3.47h5.157V607.4a2.075,2.075,0,0,0,.3.112V601.06Z" transform="translate(-71.557 -218.966)"/><path class="a" d="M618.376,300.956Zm-39.711,193.6Zm-41.432-98.5c.122.42.232.84.342,1.253h0C537.477,396.9,537.361,396.475,537.232,396.056Zm81.144-95.1ZM229,202.733v2.794h28.8V202.72ZM578.671,494.56Zm-41.439-98.5c.122.42.232.84.342,1.253h0C537.477,396.9,537.361,396.475,537.232,396.056Zm81.144-95.1Zm-39.711,193.6Zm-41.432-98.5c.122.42.232.84.342,1.253h0C537.477,396.9,537.361,396.475,537.232,396.056Z" transform="translate(-91.481 -81.919)"/><ellipse class="a" cx="62.816" cy="10.266" rx="62.816" ry="10.266" transform="translate(504.293 545.472)"/><ellipse class="a" cx="62.816" cy="10.266" rx="62.816" ry="10.266" transform="translate(220.99 535.206)"/><path class="b" d="M506.36,381.3a.349.349,0,0,0-.1-.171c-.961-.964-13.209-18.59-13.209-18.59s-.645-1.968-1.689-4.526a4.53,4.53,0,0,0,.741-1.476,5.155,5.155,0,0,0,.122-.689c0-.072.052-.131.071-.2a5.062,5.062,0,0,0-.065-2.7,4.724,4.724,0,0,1-.264.656,11.066,11.066,0,0,0-.967-2.191c-1.625-2.847-3.945-5.248-5.654-8.022a22.019,22.019,0,0,1-2.907-14.4c0,.256,0,.518,0,.774a22.816,22.816,0,0,1,.387-2.952,20.724,20.724,0,0,1,1.077-3.24c1.534-3.575,4.016-6.691,5.525-10.279a19.727,19.727,0,0,0,1.148-3.759,21.412,21.412,0,0,0,.574-6.592,10.675,10.675,0,0,1-.161,1.568,21.538,21.538,0,0,0-5.924-14.215c-5.267-5.385-12.829-7.478-20.062-8.58a18.192,18.192,0,0,1-8.445-3.28,14.469,14.469,0,0,0-9.618-1.87,15.765,15.765,0,0,0-9.792,4.926c-3.436,3.844-4.925,9.288-8.935,12.529-2.43,1.968-5.512,2.886-8.342,4.224s-5.505,3.28-6.414,6.153v.1l-.039.1c-.941,3.4.877,6.855,1.824,10.246a42.213,42.213,0,0,1,1.1,10.843c.071,4.434.135,8.875.064,13.316-.032,1.745-.09,3.509-.219,5.248a26.757,26.757,0,0,0-4.429,1.81c-1.444.958-6.846,6.894-6.846,6.894L394.35,394.033l.142.164-.142.558.535-.125a54.658,54.658,0,0,0,10.785,9.223l.451,8.055s.542,8.081,7.846,11.42c.168,2.8.69,14.175-1.728,18.682a21.3,21.3,0,0,0-2.282,10.679s.844,6.835-.116,10.43a17.347,17.347,0,0,0-.122,7.32h0V472.6c0,7.275.084,30.587,0,33.224-.122,3.116,0,49.2,0,49.2s-.6,23.031-2.521,29.269-1.438,26.894-1.438,26.894-1.206,24.6,3.056,29.459c0,.216-.039.439-.045.656v.308c-.052,1.869.3,3.857,1.882,4.467a27.011,27.011,0,0,1,8.29,6.12c.806,1.082,5.493,3.778,11.6,3.057a85.869,85.869,0,0,1,11.533-.538h0s2.411-.446,1.631-3.5h0c-.5-1.9-2.385-4.828-3.726-6.75.245.066.483.118.709.164l.232.046h.181a2.4,2.4,0,0,0,.3,0h.129a2.167,2.167,0,0,0,.361,0h0c1.618-.157,7.652,2.7,8.729,4.592s4.874,3.326,7.736,3.686a54.028,54.028,0,0,0,9.6-.617,34.793,34.793,0,0,0,5.376-1c.851-.328,1.031-1.378.786-2.558h0a6.681,6.681,0,0,0-2.231-3.831,18.364,18.364,0,0,1-3.442-4.369l-.271-.44c1.8-1.745,5.048-7.452,6.034-8.632,1.2-1.437-1.934-53.972-1.934-53.972V551.2l4.8-24.926,3.359-13.191,2.882-19.915s5.041-23.26,3.488-25.543h0c0-.046-1.289-23.995-2.643-29.747-.587-2.565-.438-8.337-.09-13.952a2.789,2.789,0,0,0,.645-2.873,6.032,6.032,0,0,0-.374-.977v-.3a43.869,43.869,0,0,1,8.684-3c4.8-.958,3.6-3.477,3.6-3.477s1.083-2.158,1.8-3.477.122-12.955,0-13.913c-.045-.387-.342-2.525-.683-4.952,1.541-1.115,3.546-2.5,5.731-3.811C507.636,384.633,506.7,381.99,506.36,381.3ZM443.7,547.6s-3.6,9.354-2.16,11.748-.239,11.282-.239,11.282L440.1,583.827s-3.359,24.467-2.16,30.22c.941,4.513,1.289,17.993,1.4,23.614h0a1.62,1.62,0,0,0-.239.118l-.161.085c.554-2.211.322-6.684-2.43-15.684l-.232-37.173s-.425-42.939,2.907-47.74,4.513-12.955,4.513-12.955-.722,11.761-1.193,14.877S443.7,547.6,443.7,547.6ZM436.988,640c-.032.079-.071.157-.1.23l-.18-.236a1.86,1.86,0,0,0,.277.007Z" transform="translate(-150.236 -107.276)"/><path class="c" d="M497.5,845.573c-1.863.728-11.965,1.968-14.789,1.62s-6.563-1.8-7.626-3.706-7.027-4.775-8.626-4.592a5.708,5.708,0,0,1-1.934-.275,23.552,23.552,0,0,1-3.223-1.26,6.192,6.192,0,0,1,.071-2.493,4.048,4.048,0,0,1,.142-.485,4.311,4.311,0,0,1,2.166-2.453l.232-.111a6.473,6.473,0,0,1,1.392-.433c5.067-.991,25.973,1,25.973,1s.587,1.069,1.392,2.394a18.261,18.261,0,0,0,3.4,4.395,6.75,6.75,0,0,1,2.2,3.857C498.515,844.189,498.334,845.252,497.5,845.573Z" transform="translate(-173.992 -298.114)"/><path class="d" d="M497.5,846.537c-1.863.728-11.958,1.968-14.782,1.62s-6.563-1.81-7.633-3.706-7.02-4.775-8.619-4.592-5.157-1.535-5.157-1.535a5.514,5.514,0,0,1,1.057-4.415l3.223,2.329s8.626,2.722,10.224,5.248,4.513,3.936,8.722,4.192c3.146.21,10.373-1.036,13.757-1.66C498.519,845.153,498.345,846.216,497.5,846.537Z" transform="translate(-173.996 -299.078)"/><path class="c" d="M451.485,849.043a84.368,84.368,0,0,0-11.385.545c-6.053.721-10.676-1.968-11.481-3.076a26.949,26.949,0,0,0-8.181-6.166c-1.567-.617-1.934-2.624-1.863-4.5v-.308a18.667,18.667,0,0,1,.516-3.522l25.084-.544,2.172,3,.335.459,1.322,1.83s.6.8,1.386,1.968c1.328,1.968,3.185,4.874,3.681,6.8h0C453.864,848.6,451.485,849.043,451.485,849.043Z" transform="translate(-158.841 -298.238)"/><path class="d" d="M451.485,851.345a84.358,84.358,0,0,0-11.385.544c-6.047.721-10.676-1.968-11.475-3.076a26.191,26.191,0,0,0-8.187-6.153c-1.567-.617-1.934-2.624-1.863-4.5,1.792.426,5.557,1.515,7.033,3.411,1.934,2.532,5.4,6.789,10.315,7.058,3.971.216,13.641-.505,17.187-.794C453.871,850.9,451.485,851.345,451.485,851.345Z" transform="translate(-158.841 -300.54)"/><path class="d" d="M448.487,832.021c-.29,2.191-1.186,2.781-1.831,2.912a1.221,1.221,0,0,1-.477,0,1.564,1.564,0,0,1-.251-.039s-22.524,5.064-27.076.964a3.176,3.176,0,0,1-.322-.341,18.667,18.667,0,0,1,.516-3.522l25.084-.545,2.173,3a4.311,4.311,0,0,1,2.166-2.453Z" transform="translate(-158.828 -298.231)"/><path class="d" d="M494.138,834.719c-.5.564-.922.885-1.186.774-1.186-.485-10.908-2.171-14-.721s-13.538.236-13.538.236,0-1.259-.058-3.28a6.475,6.475,0,0,1,1.392-.433c5.067-.99,25.973,1,25.973,1S493.338,833.394,494.138,834.719Z" transform="translate(-175.468 -298.083)"/><path class="e" d="M490.5,592.728l-2.849,20.033-3.314,13.276-4.745,25.1V677.7s3.082,52.857,1.9,54.3-5.692,9.662-6.879,9.183-10.908-2.171-14-.728-13.538.243-13.538.243-.238-20.512-1.425-26.3,2.134-30.41,2.134-30.41l1.186-13.27s1.663-8.934.239-11.348,2.134-11.807,2.134-11.807-1.657-5.32-1.18-8.455,1.18-14.962,1.18-14.962-1.18,8.213-4.474,13.034S444,685.2,444,685.2l.232,37.389c5.937,19.8,0,17.862,0,17.862s-22.524,5.07-27.076.964-3.249-29.951-3.249-29.951-.471-20.754,1.425-27.025S417.824,655,417.824,655s-.122-46.343,0-49.472c.09-2.624,0-26.113,0-33.454V569.9l2.72-6.874,32.233-4.106H468.2s23.208,5.549,25.606,7.944a.541.541,0,0,1,.129.144C495.487,569.323,490.5,592.728,490.5,592.728Z" transform="translate(-157.123 -204.468)"/><path class="d" d="M472.11,770.88s7.091,17.376,10.437,18.583S472.11,770.88,472.11,770.88Z" transform="translate(-177.867 -277.392)"/><path class="d" d="M476.18,809.88s23.943,1.207,23.7,3.864S476.18,809.88,476.18,809.88Z" transform="translate(-179.313 -290.81)"/><path class="d" d="M426.49,799.29c.948.912,18.263,2.624,16.839,4.29s-15.414,4.906-15.414,4.906Z" transform="translate(-161.656 -287.167)"/><path class="d" d="M422.08,753.59c0,.721,3.559,23.168,4.513,24.133s8.774,1.928,8.774,1.928Z" transform="translate(-160.089 -271.444)"/><path class="f" d="M448.442,283.169c-3.4,3.864-4.867,9.341-8.825,12.607-2.4,1.968-5.447,2.906-8.245,4.244s-5.57,3.378-6.4,6.409c-.928,3.411.864,6.894,1.805,10.3a43.378,43.378,0,0,1,1.09,10.909c.064,4.467.135,8.934.058,13.4-.116,6.96-.683,14.241-4.313,20.138,13.106,4.244,27.044,4.821,40.788,5.366a40.453,40.453,0,0,0,7.923-.2,67.042,67.042,0,0,0,6.75-1.738,50.912,50.912,0,0,1,13.448-1.751,22.2,22.2,0,0,0,5.905-.4,5.861,5.861,0,0,0,4.261-3.811,7.18,7.18,0,0,0-1.089-5.169c-1.6-2.86-3.868-5.248-5.583-8.068a22.513,22.513,0,0,1-1.4-19.934c1.521-3.6,3.971-6.737,5.467-10.344a22.1,22.1,0,0,0-4.319-23.142c-5.2-5.418-12.668-7.517-19.81-8.632a17.812,17.812,0,0,1-8.342-3.28,14.073,14.073,0,0,0-9.5-1.876,15.418,15.418,0,0,0-9.663,4.972Z" transform="translate(-160.633 -107.839)"/><g class="g" transform="translate(263.235 196.885)"><path d="M533.125,335.673a22.166,22.166,0,0,0-1.644,10.016,21.762,21.762,0,0,1,1.644-7.111c1.515-3.6,3.965-6.737,5.46-10.344a21.261,21.261,0,0,0,1.5-9.524,20.7,20.7,0,0,1-1.5,6.625C537.09,328.943,534.64,332.072,533.125,335.673Z" transform="translate(-462.18 -318.71)"/><path d="M428.778,341.49c.039,2.571.077,5.149.084,7.721q0-5.313-.084-10.613a43.284,43.284,0,0,0-1.089-10.915,54.787,54.787,0,0,1-1.934-6.783c-.574,3.214,1.057,6.474,1.934,9.682A43.085,43.085,0,0,1,428.778,341.49Z" transform="translate(-424.587 -319.464)"/><path d="M498.784,399.08a21.433,21.433,0,0,1-5.9.4,50.873,50.873,0,0,0-13.441,1.719,67.5,67.5,0,0,1-6.75,1.732,40.028,40.028,0,0,1-7.929.21c-13.28-.531-26.747-1.1-39.466-4.966a22.408,22.408,0,0,1-1.289,2.493c13.106,4.237,27.044,4.821,40.781,5.366a40.027,40.027,0,0,0,7.929-.21,65.735,65.735,0,0,0,6.724-1.725,50.876,50.876,0,0,1,13.415-1.738,21.884,21.884,0,0,0,5.9-.407,5.866,5.866,0,0,0,4.261-3.8,5.3,5.3,0,0,0-.064-2.729A6.051,6.051,0,0,1,498.784,399.08Z" transform="translate(-424.01 -345.102)"/></g><path class="h" d="M486.06,368.906c-.477,1.089-2.488,10.5-2.965,11.46s-3.081,16.4-3.32,17.265-17.167-3.621-17.167-3.621l-10.192-8.691-10.476-10.607s-.309-9.57,7.407-12.64a11.629,11.629,0,0,1,1.612-.512c9.361-2.289,8.419-31.25,8.419-31.25l19.211,8.442s-3.559,16.9-3.436,20.157c.032,1.1.877,1.778,1.979,2.191a15.391,15.391,0,0,0,5.248.577S486.537,367.824,486.06,368.906Z" transform="translate(-167.145 -125.816)"/><path class="e" d="M549.74,436.773l2.727.728s2.018,3.122-2.727,6.028a82.193,82.193,0,0,0-8.658,6.159l-14.021,4.342-2.7-8.626,13.048-10.075Z" transform="translate(-196.433 -161.947)"/><path class="d" d="M549.74,436.773l2.727.728s2.018,3.122-2.727,6.028a82.193,82.193,0,0,0-8.658,6.159l-14.021,4.342-2.7-8.626,13.048-10.075Z" transform="translate(-196.433 -161.947)"/><path class="e" d="M401.994,449.408l-5.454,5.431s9.838,11.584,17.406,12.306,12.448-8.809,12.448-8.809l-6.55-10.5Z" transform="translate(-151.014 -166.251)"/><path class="d" d="M401.994,449.408l-5.454,5.431s9.838,11.584,17.406,12.306,12.448-8.809,12.448-8.809l-6.55-10.5Z" transform="translate(-151.014 -166.251)"/><ellipse class="d" cx="18.972" cy="19.305" rx="18.972" ry="19.305" transform="translate(283.812 184.809)"/><ellipse class="h" cx="18.972" cy="19.305" rx="18.972" ry="19.305" transform="translate(283.812 183.36)"/><path class="d" d="M496.2,569.209A60.348,60.348,0,0,0,483.5,572.1c-7.091,2.4-62.661.039-63.435,0v-2.171l2.721-6.874,32.233-4.106h15.42s23.208,5.549,25.606,7.944C496.147,568.337,496.2,569.209,496.2,569.209Z" transform="translate(-159.375 -204.479)"/><path class="d" d="M486.06,385.056c-.477,1.089-2.488,10.5-2.965,11.46s-3.081,16.4-3.32,17.265-17.167-3.621-17.167-3.621l-10.192-8.691-10.476-10.607s-.309-9.57,7.407-12.64l19.159,22.414,8.626-23.385a15.391,15.391,0,0,0,5.248.577S486.537,383.974,486.06,385.056Z" transform="translate(-167.145 -141.965)"/><path class="e" d="M458.113,400.83,438.5,377.872a8.1,8.1,0,0,0-7.781-.584c-4.39,1.935-9.844,3.5-11.269,4.467s-6.763,6.933-6.763,6.933L428.587,431l-7,27.871s1.07,14.241-1.657,19.429a21.638,21.638,0,0,0-2.256,10.738s.832,6.881-.116,10.5a17.781,17.781,0,0,0-.122,7.36s56.337,2.414,63.448,0A59.825,59.825,0,0,1,493.576,504s-1.289-24.139-2.579-29.931,1.07-27.871,1.07-27.871l-1.541-23.654,9.244-24.27s-5.009-15.559-10.231-17.127c0,0-9.483-2.3-11.5-3.378s-7.949-2.053-7.949-2.053l-3.114,1.063Z" transform="translate(-156.753 -141.439)"/><path class="d" d="M2.162.188,43.527.237a1.918,1.918,0,0,1,1.9,1.931L45.5,68.611a1.907,1.907,0,0,1-1.893,1.926L2.244,70.488a1.918,1.918,0,0,1-1.9-1.931L.269,2.114A1.907,1.907,0,0,1,2.162.188Z" transform="translate(285.312 277.122) rotate(3.89)"/><path class="f" d="M2.162.188,43.527.237a1.918,1.918,0,0,1,1.9,1.931L45.5,68.611a1.907,1.907,0,0,1-1.893,1.926L2.244,70.488a1.918,1.918,0,0,1-1.9-1.931L.269,2.114A1.907,1.907,0,0,1,2.162.188Z" transform="translate(286.733 275.682) rotate(3.89)"/><path class="c" d="M.236.169l39.34.047.07,60.487L.306,60.656Z" transform="translate(289.311 281.169) rotate(3.89)"/><path class="d" d="M.037.141,32.177.18l.011,9.113L.048,9.254Z" transform="translate(293.175 297.046) rotate(4.004)"/><path class="d" d="M.019.022l5.1.006.006,4.749-5.1-.006Z" transform="translate(318.998 335.228) rotate(3.89)"/><path class="d" d="M.019.111l26.1.031.006,4.749L.025,4.86Z" transform="translate(293.031 322.253) rotate(3.89)"/><path class="f" d="M.029.116,27.21.148l.009,7.3L.037,7.416Z" transform="translate(296.787 279.818) rotate(3.89)"/><path class="d" d="M.029.116,27.21.148l.009,7.3L.037,7.416Z" transform="translate(296.787 279.818) rotate(3.89)"/><path class="d" d="M481.6,572.56s-.239,35.723-9.489,56.235c0,0,11.153-27.032,11.153-28.114s6.163-12.43,4.513-15.808S481.6,572.56,481.6,572.56Z" transform="translate(-177.867 -209.161)"/><path class="d" d="M475.034,309.511a13.611,13.611,0,0,1,2.147-8.993,11.057,11.057,0,0,0,8.419,11.676,1.466,1.466,0,0,1-.406-1.587c1.322,1.522,2.334,3.326,3.829,4.664s3.739,2.138,5.5,1.187c2.392-1.312,2.417-4.769,1.8-7.458a35.238,35.238,0,0,0-7.923-15.4,10.425,10.425,0,0,0-8.316-4.3,20.143,20.143,0,0,0-10.747,1.712,28.559,28.559,0,0,0-5.157,3.667l-9.025,7.491a8.656,8.656,0,0,0-2.192,2.348,6.514,6.514,0,0,0-.683,2.46,13.332,13.332,0,0,0,6.073,12.509,9.792,9.792,0,0,1,5.757-9.183,2.562,2.562,0,0,1,.9,1.9l1.9-3.45a3.782,3.782,0,0,1,1.289-1.555c1.173-.656,2.637.118,3.636,1.043s1.973,2.079,3.314,2.224l.052-5.136" transform="translate(-170.799 -111.674)"/><path class="f" d="M475.048,308.41a13.618,13.618,0,0,1,2.147-9,11.063,11.063,0,0,0,8.426,11.676,1.453,1.453,0,0,1-.406-1.581c1.322,1.522,2.334,3.319,3.829,4.664s3.739,2.138,5.5,1.181c2.392-1.312,2.417-4.769,1.8-7.452a35.238,35.238,0,0,0-7.923-15.4,10.418,10.418,0,0,0-8.3-4.3,20.14,20.14,0,0,0-10.747,1.705,28.922,28.922,0,0,0-5.157,3.673l-9.025,7.491A8.566,8.566,0,0,0,453,303.419a6.482,6.482,0,0,0-.683,2.46,13.326,13.326,0,0,0,6.073,12.5,9.805,9.805,0,0,1,5.757-9.183,2.582,2.582,0,0,1,.9,1.9l1.9-3.437a3.742,3.742,0,0,1,1.289-1.555c1.173-.656,2.637.118,3.636,1.043s1.973,2.073,3.314,2.224l.052-5.143" transform="translate(-170.813 -111.296)"/><path class="h" d="M469.982,485.121c-1.657-.853-29.055,3.5-29.055,3.5a154.452,154.452,0,0,0-15.42-3.135c-10.908-1.824-11.6-12.673-11.6-12.673L412.71,451.09l3.681-3.28,15.768,10.5a52.737,52.737,0,0,1,0,6.264,8.96,8.96,0,0,0-.529,1.968.652.652,0,0,0,.529.59c1.07.276,15.652,2.676,15.652,2.676s33.8-2.355,42.225,9.229a8.761,8.761,0,0,1,1.489,2.86C493.615,489.811,471.484,485.875,469.982,485.121Z" transform="translate(-156.76 -166.241)"/><path class="d" d="M501.7,491.786c-1.289.584-2.089,1-2.089,1s-12.094-.361-18.889-2.867-15.053-2.06-15.053-2.06-28.314-4.959-23.923-11.433a.652.652,0,0,0,.529.59c1.07.275,15.652,2.676,15.652,2.676s33.8-2.355,42.225,9.229a8.757,8.757,0,0,1,1.547,2.86Z" transform="translate(-166.913 -176.088)"/><path class="h" d="M513.469,441.58s1.663,11.945,1.779,12.916.716,12.666,0,14-1.779,3.5-1.779,3.5,1.186,2.532-3.558,3.5A48.186,48.186,0,0,0,499.6,479.35s-12.1-.361-18.856-2.893S465.68,474.4,465.68,474.4s-35.94-6.277-20.52-13.939,26.328,2.716,26.328,2.716l17.193-1.082s6.408-3.988,8.187-3.621a6.482,6.482,0,0,0,3.675-.6l.122-12.673Z" transform="translate(-166.924 -164.098)"/><path class="d" d="M410.353,396.784l-3.442-.184L396.48,437.925s11.262-2.9,16.117,0,13.757,3.5,13.757,3.5l-3.32-32.942Z" transform="translate(-150.993 -148.623)"/><path class="e" d="M410.353,395.674l-3.442-.184L396.48,436.815s11.262-2.9,16.117,0,13.757,3.5,13.757,3.5l-3.32-32.942Z" transform="translate(-150.993 -148.241)"/><path class="d" d="M536.178,409.57l4.738,1.089s12.1,17.711,13.048,18.7-4.513,4.592-6.763,4.592-13.28,1.312-16.484,4.342-1.87-12.22-1.87-12.568,3.978-9.97,3.978-9.97Z" transform="translate(-197.93 -153.085)"/><path class="e" d="M536.178,408.47l4.738,1.082s12.1,17.744,13.048,18.708-4.513,4.592-6.763,4.592-13.28,1.312-16.484,4.342-1.87-12.22-1.87-12.568,4-10,4-10Z" transform="translate(-197.93 -152.706)"/><g class="g" transform="translate(281.444 186.666)"><path d="M477.162,304.639a9.84,9.84,0,0,1,.032-1.509,13.56,13.56,0,0,0-1.986,4.952v1.83c0,1.063,0,2.132-.032,3.194h-.09v.492a2.661,2.661,0,0,0-.032-.505c-1.289-.21-2.211-1.312-3.172-2.191s-2.463-1.719-3.636-1.043a3.743,3.743,0,0,0-1.289,1.555l-1.915,3.437a2.556,2.556,0,0,0-.9-1.889,9.792,9.792,0,0,0-5.757,9.183,13.369,13.369,0,0,1-6.118-10.449,13.329,13.329,0,0,0,6.118,11.892,9.805,9.805,0,0,1,5.757-9.183,2.582,2.582,0,0,1,.9,1.9l1.9-3.437a3.743,3.743,0,0,1,1.289-1.555c1.173-.656,2.637.118,3.636,1.043s1.973,2.073,3.314,2.224q0-2.519.052-5.025a13.5,13.5,0,0,1,1.934-4.913Z" transform="translate(-452.256 -303.13)"/><path d="M487.5,313.862c.032-.446.084-.892.148-1.312l.071-1.81A13.5,13.5,0,0,0,487.5,313.862Z" transform="translate(-464.775 -305.748)"/><path d="M512.661,324.365c-1.76.958-4,.157-5.5-1.181s-2.508-3.142-3.829-4.664a1.466,1.466,0,0,0,.406,1.587,1.5,1.5,0,0,1-.374-.1,43.171,43.171,0,0,0,3.8,4.592c1.483,1.312,3.739,2.138,5.5,1.181s2.263-3.2,2.108-5.385A4.573,4.573,0,0,1,512.661,324.365Z" transform="translate(-470.376 -308.425)"/><path d="M498.929,315.657a11.1,11.1,0,0,1-8.033-9.747,11.05,11.05,0,0,0,8.445,11.3A1.459,1.459,0,0,1,498.929,315.657Z" transform="translate(-465.978 -304.086)"/></g><path class="i" d="M907.884,408.5s-2.54-.361-2.54-4.119-1.818-10.8-1.818-10.8h0s-1.573-12.247-3.745-14.188-4.964-13.342-4.964-13.342-.477-6.186-1.45-7.517-2.289-4.592-4.229-9.242-10.011-7.839-10.011-7.839-14.627-8.632-18.773-11.446h0a6.412,6.412,0,0,1-1.057-.813c-.722-.958-3.868-.977-3.868-.977a65.925,65.925,0,0,1-.748-6.743v-.708a22.623,22.623,0,0,0,9.805-12.345c.077-.249.142-.505.213-.761a2.108,2.108,0,0,0,1.289-1.154,23.432,23.432,0,0,1,.844-2.624,9.612,9.612,0,0,1,2.385-2.125c2.05-1.778,2.579-4.762,2.482-7.471-.065-2.2-.413-4.421-.277-6.605a2.646,2.646,0,0,1,.039-.551c.039-.321.084-.656.142-.971.316-1.627,1.006-3.162,1.392-4.775a6.239,6.239,0,0,0-.477-4.821c-1.322-2.04-4.074-2.447-6.492-2.624-2.74-.236-5.157.066-6.943-2.25a24.647,24.647,0,0,0-2.759-3.385c-.361-.341-3.868-2.525-3.868-2.663a15.424,15.424,0,0,0-10.959-.859c-1.824.538-3.533,1.417-5.383,1.856-3.971.958-8.548-.079-11.926,2.237-1.882,1.312-3.011,3.4-4.068,5.431q-1.289,2.506-2.617,5.018a32.607,32.607,0,0,0-3.475,8.586,14.78,14.78,0,0,0-.239,2.014h0v1.043a3.654,3.654,0,0,0,.039.656,3.836,3.836,0,0,0,.045.407c.045.138.058.446.1.656s.116.584.193.866a1.349,1.349,0,0,0,.116.367c.039.125.142.44.226.656s.09.23.142.341a6.192,6.192,0,0,0,.329.656c.052.085.09.171.142.256a7.436,7.436,0,0,0,.593.879c1.373,1.751,3.41,2.866,4.912,4.506v.735a22.543,22.543,0,0,0,10.108,18.3c0,.249.032.505.045.761a38.092,38.092,0,0,1-.071,5.838,2.7,2.7,0,0,0-2.14-.971,3.017,3.017,0,0,0-.825.072l-.058-.046h0v.059c-1.418.354-3.165,1.856-4.835,6.127,0,0-5.08,5.825-8.948,5.582s-13.66,6.068-13.66,6.068-9.554,6.3-11.6,12.732a89.935,89.935,0,0,1-4.119,10.679l-11.842,24.743h0L770.5,411.57s1.206,8.731.967,10.069,4.957,13.342,4.957,13.342,17.167,30.685,24.181,32.26l.5-.354a4.341,4.341,0,0,0,.948.354l1.444-1.03a15.624,15.624,0,0,1-.116,3.457c-.96,3.037.367,22.807,2.057,26.684s1.089,54.713,1.089,54.713l-.238,4.48a1.934,1.934,0,0,0,.058.394L806.291,557l.174.092a12.893,12.893,0,0,1-.174,4.277,48.228,48.228,0,0,0-.851,7.524s-4.835,31.407-2.54,37.717,4.235,13.224,4.235,13.224,2.417,7.871.116,9.183-8.819,3.641-7.491,6.914c1.225,3.03,5.873,11.151,6.563,12.338l-.058.656-.948,10.449a13.293,13.293,0,0,0,1.089,3.988c1.038,2.283,3.049,4.638,6.891,4.382.645-.046,1.386-.118,2.114-.216a90.365,90.365,0,0,0,15.659-4.152,6.2,6.2,0,0,1-1.218-1.03h0a3.632,3.632,0,0,1-1.077-2.624c.1-1.909-3.4-10.968-4.274-13.2l-.2-.5s7.981-8.495,6.653-16.012c0,0-8.832-5.248-5.924-8.134s8.1-11.151,8.1-11.151.238-30.928,0-35.54a38.965,38.965,0,0,1,.445-9.6c.1-.472.213-.938.335-1.4a80.964,80.964,0,0,0,12.158.938q2.231,0,4.513-.092,0,.656.058,1.417c.335,7.662.96,21.1,1.47,26.094.722,7.15,4.712,26.441,4.712,26.441s-7.613,4.966,1.328,17.225c0,0,0,4.434-.593,5.084h0a56.322,56.322,0,0,0-1.528,6.409c-.374,2.3-.529,4.644.077,5.851,1.45,2.9,10.153,2.663,10.153,2.663h0a1.348,1.348,0,0,1,.213-.033A12.277,12.277,0,0,1,875.689,659c3.307,2.7,15.852,1.522,22.653.656,2.662-.348,4.442-.656,4.442-.656a2.7,2.7,0,0,0,.09-.945h0c-.071-1.7-1.38-5.425-10.25-8.75,0,0-8.342-5.707-8.226-10.679h-1.147c.606-.019,1.031-.019,1.031-.019s-3.268-12.129-1.934-13.119-2.663-14.431-2.663-14.431-2.288-22.565-2.417-24.139a14.092,14.092,0,0,1,.606-4l-.606-12.378s-.116-4.113,0-5.451a26.073,26.073,0,0,0-.271-3.47c-.058-.459-.116-.938-.181-1.41,3.127-.807,5.157-1.548,5.157-1.548l-.361-43.063c2.656-5.248,3.146-16.766,3.133-24.926,0-5.248-.232-9.131-.232-9.131l3.63-6.028s.838-7.216-.49-8.8a1.533,1.533,0,0,1,.161-2.066,6.761,6.761,0,0,1,.806-.577,1.049,1.049,0,0,1-.084-.144,6.4,6.4,0,0,1,.806-.584s-1.289-2.033-.135-2.893c1.083.748,2.05,1.345,2.785,1.771-.052.479-.1.754-.1.754l.309-.656,1.141.656s5.686-11.525,5.563-13.217,3.868-8.855,3.868-8.855.484-3.765,2.662-5.339,1.689-12.981,1.689-12.981.606-5.943,2.057-8.363S907.884,408.5,907.884,408.5Zm-108.793-5.057.11,2.748c-.645-1.056-1.109-1.81-1.109-1.81Z" transform="translate(-283.896 -103.055)"/><path class="c" d="M953.3,550.595l-1.392,6.035s-11.153-5.805-13.157-13.152,3.359-10.148,3.359-10.148l10.4,4.474Z" transform="translate(-343.523 -195.664)"/><path class="d" d="M953.3,550.595l-1.392,6.035s-11.153-5.805-13.157-13.152,3.359-10.148,3.359-10.148l10.4,4.474Z" transform="translate(-343.523 -195.664)"/><path class="c" d="M850.568,860.244s-10.315,3.857-17.406,4.342c-3.765.256-5.744-2.093-6.762-4.356a13.5,13.5,0,0,1-1.07-3.936l.935-10.4.49-5.53,15.066-3.988,2.134,6.645.2.5c.851,2.224,4.293,11.237,4.19,13.119a3.633,3.633,0,0,0,1.051,2.624A6.009,6.009,0,0,0,850.568,860.244Z" transform="translate(-303.379 -299.928)"/><path class="c" d="M948.212,854.578a2.67,2.67,0,0,1-.09.945s-22.06,3.739-26.573,0a11.8,11.8,0,0,0-9.257-2.775s-8.535.236-9.96-2.624c-.593-1.2-.438-3.529-.071-5.818a56.65,56.65,0,0,1,1.5-6.376l.342-.276,2.031-1.66,23.775-.715h.181c-.116,4.946,8.065,10.62,8.065,10.62C946.858,849.18,948.141,852.886,948.212,854.578Z" transform="translate(-330.6 -299.549)"/><path class="d" d="M948.216,859.309a2.747,2.747,0,0,1-.1.945s-22.06,3.739-26.566,0a11.8,11.8,0,0,0-9.264-2.775s-8.542.236-9.967-2.624c-.587-1.2-.438-3.529-.071-5.825,3.288.334,8.477,1.168,10.514,3.162,3.082,3.017,8.3,6.035,11.5,6.277C926.794,858.627,941.821,859.112,948.216,859.309Z" transform="translate(-330.598 -304.28)"/><path class="d" d="M851.158,872.234s-10.315,3.857-17.406,4.342c-3.765.256-5.744-2.093-6.762-4.356,2.63.9,6.272,1.837,8.187.977,2.269-1.03,10.315-1.686,14.827-1.968a5.886,5.886,0,0,0,1.154,1Z" transform="translate(-303.969 -311.918)"/><path class="j" d="M878.767,378.224c-8.51-3.365-19.456-14.483-16.723-19.679a11.929,11.929,0,0,0,1.064-4.172,38.746,38.746,0,0,0,.077-5.9,82.4,82.4,0,0,0-1.141-9.61s26.567.61,25.019,4.592a15.019,15.019,0,0,0-.4,5.464c.129,2.263.445,4.841.78,7.012.458,2.971.928,5.248.928,5.248s-1.631,2.316-2.579,2.44S890.977,383.045,878.767,378.224Z" transform="translate(-316.274 -128.757)"/><path class="d" d="M844.629,843.473l-.2.223c-7.942-9.774-17.548,2.414-17.548,2.414l-.142-.262.49-5.53L842.3,836.33l2.134,6.645Z" transform="translate(-303.881 -299.91)"/><path class="d" d="M931.111,835.955s-5.8-.118-8.9,2.663-18.051.6-17.406,0a2.3,2.3,0,0,0,.335-1l2.031-1.66,23.775-.715C931.04,835.7,931.111,835.955,931.111,835.955Z" transform="translate(-331.614 -299.535)"/><path class="e" d="M850.892,712.525a18.643,18.643,0,0,0-.98,3.365,39.18,39.18,0,0,0-.445,9.551c.239,4.592,0,35.362,0,35.362s-5.1,8.206-7.949,11.1,5.8,8.088,5.8,8.088c1.289,7.484-6.524,15.933-6.524,15.933-7.942-9.774-17.548,2.407-17.548,2.407s-5.222-9.183-6.524-12.463,5.1-5.543,7.349-6.881-.116-9.183-.116-9.183-1.9-6.881-4.152-13.158,2.488-37.521,2.488-37.521a49.311,49.311,0,0,1,.832-7.491,12.906,12.906,0,0,0,.174-4.25c-.039-.479-.084-.872-.116-1.148s-.058-.394-.058-.394l.09-.157,3.223-6.113S852.439,708.675,850.892,712.525Z" transform="translate(-300.26 -252.858)"/><path class="e" d="M927.27,791.939s-5.8-.125-8.9,2.624-18.051.6-17.406,0,.587-5.064.587-5.064c-8.774-12.194-1.289-17.14-1.289-17.14s-3.913-19.187-4.622-26.3c-.5-4.966-1.109-18.367-1.438-25.956-.142-3.28-.226-5.543-.226-5.543l7.1-1.437.922-.184L919.3,709.4s.477,3.28.8,5.963a26.651,26.651,0,0,1,.264,3.457c-.11,1.312,0,5.425,0,5.425l.593,12.306a14.422,14.422,0,0,0-.593,3.982c.122,1.574,2.372,24.014,2.372,24.014s3.913,13.395,2.579,14.359S927.27,791.939,927.27,791.939Z" transform="translate(-327.773 -256.24)"/><path class="d" d="M887.3,343.482a15.019,15.019,0,0,0-.4,5.464,21.759,21.759,0,0,1-23.479-.446,82.425,82.425,0,0,0-1.141-9.61S888.847,339.5,887.3,343.482Z" transform="translate(-316.509 -128.768)"/><path class="j" d="M892.688,312.037a22.059,22.059,0,1,1-44.108.538c0-.184,0-.354,0-.538a22.064,22.064,0,1,1,44.121,0Z" transform="translate(-311.641 -111.806)"/><path class="d" d="M878.767,386.36c-8.51-3.365-19.456-14.483-16.723-19.679a11.929,11.929,0,0,0,1.064-4.172l11.649,9.747,7.207,6.015,5.48-14.188c.458,2.971.928,5.248.928,5.248s-1.631,2.316-2.579,2.44S890.977,391.182,878.767,386.36Z" transform="translate(-316.274 -136.894)"/><path class="e" d="M888.533,410.344l-9.728,166.284-12.687.846L833.26,481.055l5.389-114.47L839.79,342.4,854.4,354.607l7.207,6.015,5.641-14.608,10.489,9.3Z" transform="translate(-295.915 -117.801)"/><path class="d" d="M854.508,712.553a18.658,18.658,0,0,0-.98,3.365,92.314,92.314,0,0,1-26.625-8.455l-.174-.092.058-1.056v-.551l3.223-6.114S856.056,708.7,854.508,712.553Z" transform="translate(-303.877 -252.886)"/><path class="d" d="M901.276,721.249a64.214,64.214,0,0,1-7.13.833c-.142-3.28-.226-5.543-.226-5.543l7.143-1.469Z" transform="translate(-327.752 -258.191)"/><path class="d" d="M924.559,715.363c-4.584,1.214-11.668,2.578-18,1.725l-.09-4.152,17.29-3.536S924.218,712.654,924.559,715.363Z" transform="translate(-332.212 -256.24)"/><path class="d" d="M860.346,597.944c-26.431,4.592-50.638-8.573-50.638-8.573l.232-4.461s.6-50.567-1.064-54.444-2.959-23.509-2.018-26.507-3.436-48.258-3.436-48.258l-.709-18.367L776.74,426.6l11.6-24.618a89.886,89.886,0,0,0,4.035-10.626c2.018-6.4,11.385-12.673,11.385-12.673s9.605-6.271,13.4-6.035,8.774-5.549,8.774-5.549c3.675-9.531,7-5.248,7-5.248a8.572,8.572,0,0,1-.181,1.41c-1.289,10.462,20.848,43.522,21.164,44.113h0l2.134,52.253,2.134,66.127Z" transform="translate(-286.114 -136.335)"/><path class="c" d="M859.236,597.944c-26.431,4.592-50.645-8.573-50.645-8.573l.239-4.461s.593-50.567-1.07-54.444-2.959-23.529-2.011-26.553-3.455-48.239-3.455-48.239l-.716-18.367L775.61,426.57l11.6-24.618a91.3,91.3,0,0,0,4.036-10.62c2.018-6.376,11.417-12.66,11.417-12.66s9.605-6.271,13.4-6.035,8.793-5.543,8.793-5.543c3.681-9.531,7.736-5.248,7.736-5.248,0,.459-.387.656-.18,1.41,2.836,10.148,20.139,43.522,20.455,44.113h0L855,459.623l2.089,66.159Z" transform="translate(-285.712 -136.335)"/><path class="d" d="M880.859,409.631c-2.843-1.207-17.9-18.7-17.9-18.7v-3.982c-.548-1.312-3.81-.512-6.447.407l1.135-24.185,1.289,1.089C861.751,374.4,880.549,409.047,880.859,409.631Z" transform="translate(-314.459 -137.121)"/><path class="c" d="M881.965,407.441c-2.849-1.214-17.909-18.7-17.909-18.7v-3.988c-.548-1.312-3.8-.512-6.447.407L858.725,361l1.289,1.082C862.857,372.21,881.649,406.851,881.965,407.441Z" transform="translate(-314.85 -136.374)"/><path class="d" d="M827.081,563.789c.355,0,18.379-1.929,18.379-1.929s10.914,21.843,10.2,27.15-2.011,10.016-6.4,9.183-23.627.656-23.627.656Z" transform="translate(-303.486 -205.48)"/><path class="c" d="M825.97,561.578c.361,0,18.386-1.928,18.386-1.928s10.908,21.876,10.2,27.124-2.018,10.016-6.4,9.183-23.633.656-23.633.656Z" transform="translate(-303.092 -204.719)"/><path class="j" d="M842.407,547s16.542,9.052,16.9,11.807-8.419-1.207-10.315-1.692a24.2,24.2,0,0,0-3.8-.6l-12.642.348Z" transform="translate(-305.945 -200.367)"/><ellipse class="d" cx="1.741" cy="1.771" rx="1.741" ry="1.771" transform="translate(560.037 270.096)"/><ellipse class="f" cx="1.741" cy="1.771" rx="1.741" ry="1.771" transform="translate(560.037 269.375)"/><ellipse class="d" cx="1.741" cy="1.771" rx="1.741" ry="1.771" transform="translate(563.241 346.764)"/><ellipse class="f" cx="1.741" cy="1.771" rx="1.741" ry="1.771" transform="translate(563.241 346.036)"/><ellipse class="d" cx="1.741" cy="1.771" rx="1.741" ry="1.771" transform="translate(561.778 308.43)"/><ellipse class="f" cx="1.741" cy="1.771" rx="1.741" ry="1.771" transform="translate(561.778 307.709)"/><path class="c" d="M934.141,493.455s1.186,1.81,0,2.624.116,2.9.116,2.9-2.959,1.758-1.657,3.352.477,8.75.477,8.75l-3.558,6.028s.213,3.864.226,9.085c0,8.147-.471,19.6-3.075,24.821l.348,42.84s-12.461,4.638-22.892,3.221l-1.547-68.744s2.256-38.983,3.088-46.461a79.182,79.182,0,0,0,.593-11.709s-.355-11.7-1.547-17.127c0,0-1.289-23.536-1.418-30.049-.058-3.116.1-12.207.284-20.853.2-9.452.426-18.367.426-18.367l-2.353-18.95s2.353-.236,3.062.722a6.8,6.8,0,0,0,1.031.807h0c4.068,2.794,18.418,11.387,18.418,11.387s7.942,3.214,9.844,7.819,3.223,7.871,4.145,9.183,1.425,7.478,1.425,7.478,2.733,11.348,4.867,13.27,3.668,14.123,3.668,14.123l-18.856,15.087s-1.657,25.1-2.011,26.068S934.141,493.455,934.141,493.455Z" transform="translate(-330.499 -137.679)"/><path class="c" d="M934.846,493.335s1.18,1.81,0,2.624.11,2.9.11,2.9S932,500.616,933.3,502.21s.477,8.75.477,8.75l-3.546,6.028s.213,3.864.232,9.085c0,8.147-.471,19.6-3.075,24.821l.355,42.84s-12.461,4.638-22.892,3.221l-1.541-68.744s2.25-38.983,3.088-46.461a78.445,78.445,0,0,0,.587-11.709s-.355-11.7-1.541-17.127c0,0-1.289-23.536-1.425-30.049-.058-3.116.1-12.207.284-20.853.2-9.452.425-18.367.425-18.367L901.62,364.44s3.107,0,3.823.977a6.129,6.129,0,0,0,1.031.807h0c4.061,2.794,18.412,11.387,18.412,11.387s7.923,3.214,9.857,7.819,3.223,7.871,4.145,9.183,1.425,7.478,1.425,7.478,2.733,11.348,4.867,13.27,3.675,14.123,3.675,14.123L930,444.571s-1.657,25.1-2.018,26.068S934.846,493.335,934.846,493.335Z" transform="translate(-330.488 -137.558)"/><path class="d" d="M912.651,389.972l1.708,5.051-8.967,9.183c.2-9.452.425-18.367.425-18.367l-3.107-19.2s3.107,0,3.823.977a6.138,6.138,0,0,0,1.032.807h0l7.62,22.361Z" transform="translate(-330.876 -138.315)"/><path class="c" d="M911.521,387.755l1.708,5.044-8.961,9.183c.193-9.452.425-18.367.425-18.367L901.58,364.41s3.114,0,3.823.977a6.466,6.466,0,0,0,1.031.807h0l7.665,22.381Z" transform="translate(-330.474 -137.548)"/><path class="d" d="M892.688,312.037A22.735,22.735,0,0,1,891.6,319a.9.9,0,0,1-.7-.171c-.174-5.9-3.023-11.453-6.537-16.169a17,17,0,0,0-3.546-3.739,6.857,6.857,0,0,0-4.809-1.384c-1.934.269-3.642,1.607-5.6,1.778-2.579.216-4.887-1.6-7.446-1.686a7.247,7.247,0,0,0-5.473,2.584,15.278,15.278,0,0,0-2.933,5.53,32.9,32.9,0,0,0-1.637,9.551c-.032,1.837-.206,4.139-1.882,4.808a9.883,9.883,0,0,0-2.43-7.478l-.039-.046v-.538a22.064,22.064,0,1,1,44.121,0Z" transform="translate(-311.641 -111.806)"/><path class="k" d="M876.095,268.709a14.948,14.948,0,0,0-10.714-.853c-1.786.538-3.468,1.41-5.28,1.85-3.868.951-8.381-.079-11.7,2.224-1.844,1.312-2.953,3.385-3.984,5.405l-2.579,4.992a32.76,32.76,0,0,0-3.41,8.527,11.063,11.063,0,0,0,1.644,8.809c1.36,1.758,3.384,2.866,4.867,4.526a9.95,9.95,0,0,1,2.424,7.5c1.676-.656,1.844-2.971,1.882-4.808a32.947,32.947,0,0,1,1.638-9.551,15.278,15.278,0,0,1,2.933-5.53,7.253,7.253,0,0,1,5.473-2.591c2.579.092,4.893,1.909,7.446,1.686,1.934-.164,3.649-1.5,5.6-1.771a6.825,6.825,0,0,1,4.809,1.384,16.679,16.679,0,0,1,3.539,3.739c3.52,4.723,6.376,10.246,6.543,16.169.729.538,1.779-.171,2.14-1.01a24.274,24.274,0,0,1,.832-2.624,9.591,9.591,0,0,1,2.334-2.119c2.011-1.764,2.514-4.736,2.437-7.432s-.593-5.431-.09-8.081c.3-1.62.986-3.149,1.36-4.756a6.316,6.316,0,0,0-.464-4.8c-1.289-2.027-4-2.434-6.369-2.624-2.688-.236-5.093.066-6.808-2.237a25.558,25.558,0,0,0-2.708-3.372C879.531,271.018,876.095,268.853,876.095,268.709Z" transform="translate(-307.941 -104.116)"/><path class="d" d="M783.394,473.716l-6.73-12.666L774.53,480.6s1.186,8.685.948,10.016,4.861,13.27,4.861,13.27,16.845,30.535,23.724,32.1l23.208-16.9-6.163-7.963s-2.134-.846-2.669,0c0,0-11.449-20.033-12.629-21.476s-.954-4.349-.954-4.349-1.779-1.928-1.186-3.739-3.4-8.081-3.4-8.081l3.675-3.5Z" transform="translate(-285.328 -170.796)"/><path class="c" d="M776.233,458.84l-1.779,1.45-2.134,19.547s1.186,8.685.948,10.016,4.867,13.27,4.867,13.27,16.839,30.535,23.717,32.1l23.246-16.9-6.169-7.963s-2.134-.846-2.669,0c0,0-11.443-20.033-12.629-21.476s-.948-4.349-.948-4.349-1.779-1.929-1.186-3.739-3.442-8.081-3.442-8.081l3.675-3.5Z" transform="translate(-284.543 -170.036)"/><path class="d" d="M942.243,569.5c1.289,1.594.477,8.757.477,8.757l-3.559,5.989s.213,3.87.226,9.091l-5.982,1.9a3.509,3.509,0,0,1-3.212-.574,3.645,3.645,0,0,1-1.4-2.995l1.038-33.847,13.957,5.425c-1.186.84.116,2.9.116,2.9S940.941,567.9,942.243,569.5Z" transform="translate(-340.142 -204.09)"/><path class="c" d="M943.35,568.393c1.289,1.587.477,8.75.477,8.75l-3.546,6s.213,3.864.232,9.085l-6.092,1.935a3.427,3.427,0,0,1-3.14-.557,3.559,3.559,0,0,1-1.373-2.926l1.038-33.965,13.951,5.438c-1.193.84.11,2.9.11,2.9S942.048,566.8,943.35,568.393Z" transform="translate(-340.54 -203.708)"/><path class="j" d="M951.784,547.13s-.948,6.159-3.32,6.52-3.436,9.964-5.8,9.629-.8-8.934-.716-10.6-2.579-8.567-.593-10.135,8.3,0,8.3,0Z" transform="translate(-344.345 -198.595)"/><path class="d" d="M955.431,472.783,959.9,463.6s1.786,7,1.786,10.738,2.488,4.106,2.488,4.106,2.727,3.28,1.289,5.674-2.011,8.324-2.011,8.324.471,11.341-1.663,12.909-2.611,5.313-2.611,5.313-3.913,7.117-3.791,8.809-5.454,13.152-5.454,13.152,2.727-14.241-13.164-20.394c0,0-.122-4.828,1.064-6.153s3.036-1.968,1.876-8.632-.335-14.7-.335-16.307,3.559-11.623,3.559-11.623Z" transform="translate(-342.976 -171.674)"/><path class="c" d="M958.216,461.6l3.907,1.312s1.786,7,1.786,10.738,2.488,4.106,2.488,4.106,2.727,3.28,1.289,5.674-2.018,8.324-2.018,8.324.477,11.341-1.657,12.909-2.579,5.313-2.579,5.313-3.913,7.117-3.791,8.809-5.46,13.152-5.46,13.152,2.727-14.241-13.164-20.394c0,0-.116-4.828,1.07-6.153s3.036-1.968,1.876-8.632-.335-14.7-.335-16.307,3.559-11.623,3.559-11.623Z" transform="translate(-343.776 -170.986)"/><path class="d" d="M834.92,823.346s6.227-3.982,10.315-1.089S834.92,823.346,834.92,823.346Z" transform="translate(-306.787 -294.706)"/><path class="d" d="M910,805.681a12.48,12.48,0,0,1,10.141,4.349C924.769,815.1,910,805.681,910,805.681Z" transform="translate(-333.466 -289.354)"/><g class="g" transform="translate(530.218 177.568)"><path d="M897.6,313.924c-.793.7-1.812,1.194-2.34,2.119a24.764,24.764,0,0,0-.825,2.624c-.361.846-1.412,1.548-2.147,1.01-.168-5.9-3.024-11.446-6.537-16.169a16.647,16.647,0,0,0-3.539-3.732,6.844,6.844,0,0,0-4.816-1.391c-1.934.269-3.636,1.607-5.589,1.778-2.579.216-4.893-1.6-7.452-1.686a7.221,7.221,0,0,0-5.467,2.584,15.277,15.277,0,0,0-2.933,5.53,32.951,32.951,0,0,0-1.637,9.551c-.039,1.83-.206,4.113-1.87,4.8a9.217,9.217,0,0,1,0,1.463c1.683-.656,1.85-2.971,1.889-4.808a32.949,32.949,0,0,1,1.638-9.551,15.277,15.277,0,0,1,2.933-5.53,7.247,7.247,0,0,1,5.467-2.591c2.579.092,4.9,1.909,7.452,1.686,1.934-.164,3.649-1.5,5.589-1.771a6.844,6.844,0,0,1,4.816,1.384,16.68,16.68,0,0,1,3.539,3.739c3.513,4.723,6.369,10.246,6.537,16.169.735.538,1.786-.171,2.147-1.01a25.786,25.786,0,0,1,.825-2.624,9.621,9.621,0,0,1,2.34-2.119c2.011-1.765,2.514-4.736,2.437-7.432v-.249C899.929,310.04,899.317,312.421,897.6,313.924Z" transform="translate(-843.234 -292.389)"/><path d="M844.927,316.2c-1.476-1.66-3.5-2.775-4.861-4.533a9.623,9.623,0,0,1-1.876-5.366,10.237,10.237,0,0,0,1.876,6.815c1.36,1.758,3.385,2.866,4.861,4.526a9.926,9.926,0,0,1,2.437,5.851A9.948,9.948,0,0,0,844.927,316.2Z" transform="translate(-838.155 -295.123)"/><path d="M927.367,290.526c-.38,1.607-1.057,3.135-1.367,4.756a15.451,15.451,0,0,0-.2,3.319,12.946,12.946,0,0,1,.2-1.869c.309-1.62.986-3.149,1.367-4.756a8.377,8.377,0,0,0,.213-2.716,9.259,9.259,0,0,1-.213,1.266Z" transform="translate(-869.292 -289.26)"/></g><ellipse class="a" cx="62.816" cy="10.266" rx="62.816" ry="10.266" transform="translate(22.924 529.736)"/><rect class="l" width="4.042" height="92.601" transform="translate(83.722 343.34)"/><path class="f" d="M160.989,679.434l-.258,4.172-.355,5.9-.148,2.453-.361,5.9-.155,2.453-.355,5.9-4.081,66.953a11.224,11.224,0,0,1-11.12,10.64h-21.19a11.218,11.218,0,0,1-11.12-10.685l-4.081-66.953-.355-5.9-.148-2.453-.367-5.9-.148-2.453-.355-5.9-.258-4.172a5.965,5.965,0,0,1,1.565-4.378,5.756,5.756,0,0,1,4.2-1.86h43.334a5.756,5.756,0,0,1,4.211,1.878,5.966,5.966,0,0,1,1.546,4.406Z" transform="translate(-47.819 -243.769)"/><path class="m" d="M144.925,670.52l-.361,5.89H90.941l-.361-5.89Z" transform="translate(-32.012 -230.689)"/><path class="m" d="M144.7,683.24l-.355,5.89H91.731l-.361-5.89Z" transform="translate(-32.293 -235.066)"/><path class="m" d="M144.468,695.97l-.355,5.884H92.521l-.361-5.884Z" transform="translate(-32.574 -239.445)"/><path class="e" d="M68.374,585.3c23.543,17.33,33.348,44.434,33.348,44.434s-28.365-.99-51.915-18.321S16.44,567,16.44,567,44.805,567.971,68.374,585.3Z" transform="translate(-15.95 -207.248)"/><path class="n" d="M16.44,567s29.442,16.628,38.886,30.4S101.7,629.749,101.7,629.749" transform="translate(-15.95 -207.248)"/><path class="e" d="M104.956,536.451c12.816,9.426,18.154,24.178,18.154,24.178s-15.472-.538-28.256-9.964S76.7,526.48,76.7,526.48,92.146,527.018,104.956,536.451Z" transform="translate(-37.363 -193.307)"/><path class="n" d="M76.7,526.48s16.026,9.052,21.171,16.543,25.239,17.606,25.239,17.606" transform="translate(-37.363 -193.307)"/><path class="e" d="M167.741,566.046c-14.718,16.458-17.831,37.967-17.831,37.967s20.752-5.182,35.456-21.646S203.2,544.4,203.2,544.4,182.459,549.589,167.741,566.046Z" transform="translate(-63.377 -199.473)"/><path class="n" d="M203.211,544.41s-19.172,16.871-24.046,28.495-29.255,31.112-29.255,31.112" transform="translate(-63.377 -199.476)"/></g></svg>